<svg width="547" height="622" viewBox="0 0 547 622" fill="none" xmlns="http://www.w3.org/2000/svg">
<g id="illus-avanthomePad">
<path id="Oval" fill-rule="evenodd" clip-rule="evenodd" d="M90.35 312.9C104.019 312.9 115.1 302.625 115.1 289.95C115.1 277.275 104.019 267 90.35 267C76.6809 267 65.6 277.275 65.6 289.95C65.6 302.625 76.6809 312.9 90.35 312.9Z" fill="#F2F9FF"/>
<g id="locataire">
<path id="Path 2" fill-rule="evenodd" clip-rule="evenodd" d="M389.685 597.843C389.685 597.843 445.972 578.313 420.213 538.587C394.454 498.861 426.566 451.644 372.506 436.834C318.446 422.024 335.708 468.659 274.1 497.979C212.492 527.298 292.19 597.843 292.19 597.843H389.685Z" fill="#F2F9FF"/>
<g id="loca">
<path id="face" d="M313.853 497.978C307.835 497.978 302.957 487.207 302.957 473.92C302.957 460.632 307.835 449.861 313.853 449.861C319.871 449.861 324.75 460.632 324.75 473.92C324.75 487.207 319.871 497.978 313.853 497.978Z" fill="#E49F56"/>
<path id="Forme_34" d="M309.079 484.932C309.079 484.932 308.568 487.379 306.825 487.94" stroke="#A15E18" stroke-width="1.40137" stroke-linecap="round"/>
<path id="Body" fill-rule="evenodd" clip-rule="evenodd" d="M366.787 597.843C366.787 597.843 387.418 490.678 350.307 490.035C313.196 489.391 301.687 498.847 299.201 521.615C296.714 544.384 310.963 597.548 310.963 597.548L366.787 597.843Z" fill="#F15D79"/>
<path id="hand" fill-rule="evenodd" clip-rule="evenodd" d="M297.697 534.828C297.697 534.828 299.743 513.327 296.945 514.526C294.148 515.725 295.032 521.195 293.939 524.301C292.846 527.406 283.85 529.786 286.422 534.076C288.995 538.366 288.679 538.587 288.679 538.587" fill="#E49F56"/>
<path id="arm" fill-rule="evenodd" clip-rule="evenodd" d="M325.505 524.301C325.505 524.301 317.097 581.78 294.691 573.175C282.607 565.532 287.927 535.58 287.927 535.58L299.202 533.324" fill="#F15D79"/>
<path id="Forme_33" d="M304.166 574.088C304.166 574.088 311.766 571.742 318.446 546.267" stroke="white" stroke-width="1.5876" stroke-linecap="round"/>
<path id="hair" fill-rule="evenodd" clip-rule="evenodd" d="M335.276 445.323C335.276 445.323 355.536 455.394 354.065 468.633C352.594 481.872 362.896 498.783 375.109 503.972C404.108 520.032 384.671 546.08 361.58 550.592C338.49 555.103 315.662 545.732 322.499 520.515C329.337 495.299 327.415 500.442 319.493 495.701C311.571 490.961 322.949 479.502 321.748 472.392C320.547 465.282 312.771 472.664 314.232 467.129C315.693 461.594 314.131 455.157 302.959 462.618C291.786 470.078 282.279 416.752 335.276 445.323Z" fill="#041766"/>
<g id="smile_sunglass">
<path id="Oval_2" d="M304.461 476.471C304.033 476.471 303.686 475.196 303.686 473.624C303.686 472.051 304.033 470.776 304.461 470.776C304.889 470.776 305.237 472.051 305.237 473.624C305.237 475.196 304.889 476.471 304.461 476.471Z" fill="#041766"/>
<path id="Oval_3" fill-rule="evenodd" clip-rule="evenodd" d="M303.704 479.933C301.629 479.933 299.948 476.4 299.948 472.041C299.948 467.682 301.629 464.149 303.704 464.149C305.779 464.149 307.461 467.682 307.461 472.041C307.461 476.4 305.779 479.933 303.704 479.933Z" stroke="#041766" stroke-width="1.05103"/>
<path id="Forme_35" d="M307.468 473.17C307.468 473.17 307.606 469.104 314.984 468.659" stroke="#041766" stroke-width="1.05103"/>
</g>
</g>
<path id="Path 3" d="M401.77 597.844H348.188" stroke="#041766" stroke-width="2.7" stroke-linecap="round"/>
<path id="Path 3 Copy" d="M337.624 597.844L306.574 597.394" stroke="#041766" stroke-width="2.7" stroke-linecap="round"/>
<path id="Path 3 Copy 2" d="M296.449 597.844L285.874 597.394" stroke="#041766" stroke-width="2.7" stroke-linecap="round"/>
<g id="text">
<path id="locataire_2" d="M324.385 612.649L324.396 613.448V618.6C324.151 618.643 323.859 618.665 323.521 618.665C323.182 618.665 322.898 618.643 322.668 618.6V612.649L321.976 612.66H320.864C320.821 612.451 320.799 612.214 320.799 611.947C320.799 611.674 320.821 611.432 320.864 611.224H326.21C326.268 611.411 326.296 611.638 326.296 611.904C326.296 612.17 326.224 612.365 326.08 612.487C325.936 612.602 325.706 612.66 325.389 612.66H325.076L324.396 612.649H324.385ZM328.856 616.418L328.845 617.196V617.207C329.177 617.192 329.443 617.185 329.645 617.185H332.15C332.15 617.452 332.139 617.657 332.118 617.801C332.031 618.355 331.664 618.632 331.016 618.632H328.143C327.834 618.632 327.589 618.542 327.409 618.362C327.236 618.182 327.15 617.938 327.15 617.628V611.299L327.225 611.224H331.88C331.923 611.432 331.945 611.659 331.945 611.904C331.945 612.149 331.895 612.404 331.794 612.671H328.845L328.856 613.448V614.204C329.043 614.197 329.288 614.194 329.591 614.194H331.243C331.308 614.395 331.34 614.626 331.34 614.885C331.34 615.144 331.308 615.382 331.243 615.598H328.856V616.418ZM339.229 611.148L339.305 611.224V618.568C339.017 618.632 338.675 618.665 338.279 618.665C337.89 618.665 337.545 618.643 337.242 618.6L335.547 614.734C335.345 614.294 335.14 613.787 334.931 613.211L334.899 613.222C334.985 614.273 335.028 615.349 335.028 616.451V618.6C334.805 618.643 334.535 618.665 334.218 618.665C333.901 618.665 333.635 618.643 333.419 618.6V611.256C333.693 611.191 334.02 611.159 334.402 611.159C334.791 611.159 335.136 611.18 335.439 611.224L337.113 615.079C337.415 615.792 337.638 616.339 337.782 616.721L337.825 616.699C337.739 615.698 337.696 614.636 337.696 613.513V612.196C337.696 611.821 337.771 611.555 337.923 611.396C338.074 611.231 338.319 611.148 338.657 611.148H339.229ZM342.799 617.056C342.605 617.056 342.461 617.052 342.367 617.045L341.903 618.611C341.73 618.654 341.489 618.676 341.179 618.676C340.834 618.676 340.553 618.636 340.337 618.557L340.283 618.47L342.659 611.224C342.94 611.18 343.267 611.159 343.642 611.159C344.067 611.159 344.405 611.184 344.657 611.234L346.99 618.492C346.738 618.629 346.453 618.697 346.137 618.697C345.762 618.697 345.499 618.632 345.348 618.503C345.197 618.373 345.067 618.125 344.959 617.758L344.754 617.045C344.661 617.052 344.52 617.056 344.333 617.056H342.799ZM342.767 615.695L343.199 615.684H343.987C344.023 615.684 344.085 615.688 344.171 615.695C344.265 615.695 344.333 615.695 344.376 615.695L344.193 615.025C344.02 614.42 343.822 613.679 343.599 612.8H343.534C343.476 613.11 343.303 613.798 343.015 614.863L342.767 615.695ZM353.772 611.148L353.847 611.224V618.568C353.559 618.632 353.217 618.665 352.821 618.665C352.432 618.665 352.087 618.643 351.784 618.6L350.089 614.734C349.887 614.294 349.682 613.787 349.473 613.211L349.441 613.222C349.527 614.273 349.57 615.349 349.57 616.451V618.6C349.347 618.643 349.077 618.665 348.76 618.665C348.444 618.665 348.177 618.643 347.961 618.6V611.256C348.235 611.191 348.562 611.159 348.944 611.159C349.333 611.159 349.678 611.18 349.981 611.224L351.655 615.079C351.957 615.792 352.18 616.339 352.324 616.721L352.368 616.699C352.281 615.698 352.238 614.636 352.238 613.513V612.196C352.238 611.821 352.314 611.555 352.465 611.396C352.616 611.231 352.861 611.148 353.199 611.148H353.772ZM358.346 612.649L358.357 613.448V618.6C358.112 618.643 357.82 618.665 357.482 618.665C357.143 618.665 356.859 618.643 356.629 618.6V612.649L355.937 612.66H354.825C354.782 612.451 354.76 612.214 354.76 611.947C354.76 611.674 354.782 611.432 354.825 611.224H360.171C360.229 611.411 360.257 611.638 360.257 611.904C360.257 612.17 360.185 612.365 360.041 612.487C359.897 612.602 359.667 612.66 359.35 612.66H359.037L358.357 612.649H358.346Z" fill="#041766"/>
</g>
</g>
<g id="gestionnaire">
<path id="Path 6" fill-rule="evenodd" clip-rule="evenodd" d="M84.813 520.132C84.813 520.132 18.5412 518.976 39.5375 484.133C60.5337 449.291 0.611238 417.226 21.487 379.944C42.3628 342.663 70.2878 342.859 109.624 352.76C148.96 362.66 134.785 393.922 177.89 393.922C220.995 393.922 208.003 520.132 159.187 520.132C110.371 520.132 84.813 520.132 84.813 520.132Z" fill="#F2F9FF"/>
<path id="Path 7" d="M57.5375 519.956H147.65" stroke="#041766" stroke-width="2.7" stroke-linecap="round"/>
<path id="Path 7_2" d="M157.837 519.55H171.337" stroke="#041766" stroke-width="2.7" stroke-linecap="round"/>
<path id="neck" fill-rule="evenodd" clip-rule="evenodd" d="M117.782 418.362L112.042 409.196L104.598 407.229L99.1265 419.066" fill="#FFE1C1"/>
<g id="face_2">
<path id="face-2" fill-rule="evenodd" clip-rule="evenodd" d="M103.605 357.093C93.426 359.196 87.685 372.634 90.7816 387.108C93.8782 401.582 104.641 411.611 114.819 409.508C124.998 407.406 130.739 393.967 127.644 379.494C124.549 365.021 113.783 354.99 103.605 357.093Z" fill="#FFE1C1"/>
<path id="SMILE" d="M120.984 400.119C120.984 400.119 115.584 400.114 115.163 393.462" stroke="#E1A15E" stroke-width="1.56816" stroke-linecap="round"/>
<g id="Eyes">
<path id="Path" fill-rule="evenodd" clip-rule="evenodd" d="M123.186 377.271C122.544 377.422 122.284 379.395 122.606 381.676C122.928 383.958 123.707 385.686 124.351 385.535C124.994 385.384 125.253 383.412 124.931 381.13C124.61 378.848 123.829 377.12 123.186 377.271Z" fill="#041766"/>
<path id="Forme_56" d="M123.811 384.909C123.811 384.909 101.344 382.963 99.2092 384.909" stroke="#041766" stroke-width="1.56816"/>
<path id="Oval_4" fill-rule="evenodd" clip-rule="evenodd" d="M126.724 391.684C128.689 391.684 130.282 387.698 130.282 382.78C130.282 377.862 128.689 373.875 126.724 373.875C124.759 373.875 123.166 377.862 123.166 382.78C123.166 387.698 124.759 391.684 126.724 391.684Z" stroke="#041766" stroke-width="1.56816"/>
</g>
<path id="hair_2" fill-rule="evenodd" clip-rule="evenodd" d="M72.0784 376.776C70.7994 366.731 70.4739 358.716 96.5382 356.217C112.048 354.434 120.85 337.226 132.876 344.832C144.902 352.439 142.383 362.446 122.702 368.144C103.021 373.842 113.343 386.591 102.893 385.919C92.4433 385.247 100.852 392.726 100.852 392.726C100.852 392.726 108.023 405.05 104.216 408.451C100.408 411.852 73.8658 390.816 72.0784 376.776Z" fill="#041766"/>
</g>
<g id="body">
<path id="body-2" fill-rule="evenodd" clip-rule="evenodd" d="M168.065 508.539C168.065 508.539 198.258 509.178 174.354 466.821C150.449 424.464 130.341 416.915 109.096 416.605C87.8499 416.294 78.3899 419.482 43.8358 474.547C17.1111 517.365 68.2097 508.539 68.2097 508.539" fill="#FFD800"/>
<path id="Forme_95" fill-rule="evenodd" clip-rule="evenodd" d="M147.65 518.475L173.871 441.716L51.7617 429.266L73.5822 516.414L147.65 518.475Z" fill="url(#paint0_linear)"/>
<path id="Forme_60" d="M158.681 492.389C158.681 492.389 137.97 490.975 134.285 493.799" stroke="white" stroke-width="1.56816" stroke-linecap="round"/>
<path id="Forme_51" d="M143.691 464.099C143.691 464.099 137.661 454.705 138.187 449.42" stroke="white" stroke-width="1.56816" stroke-linecap="round"/>
<path id="Forme_52" d="M83.8661 463.191C83.8661 463.191 86.5218 462.062 87.7976 457.782" stroke="white" stroke-width="1.56816" stroke-linecap="round"/>
<path id="Forme_53" d="M71.0125 495.541C71.0125 495.541 65.2197 492.434 56.8596 492.45" stroke="white" stroke-width="1.56816" stroke-linecap="round"/>
<path id="Forme_54" d="M63.8473 492.365L67.7795 488.502" stroke="white" stroke-width="1.56816" stroke-linecap="round"/>
<path id="Path 12" fill-rule="evenodd" clip-rule="evenodd" d="M115.489 416.587L114.367 412.643H120.984C120.984 412.643 127.67 413.64 125.069 418.794C122.468 423.948 115.489 420.1 115.489 420.1L110.767 459.7L106.078 420.1C106.078 420.1 98.9982 423.693 95.0285 418.794C91.0588 413.895 95.0285 413.147 95.0285 413.147L102.594 412.643L100.547 416.587H115.489Z" fill="white"/>
</g>
<g id="laptop">
<path id="Forme_55" fill-rule="evenodd" clip-rule="evenodd" d="M150.071 518.475L155.81 508.604H63.967L71.8599 518.475" fill="#1D43AB"/>
<path id="Rectangle_arrondi_5" d="M73.2268 462.073H147.891C149.068 462.073 150.022 463.028 150.022 464.205V519.173H71.0951V464.205C71.0951 463.028 72.0495 462.073 73.2268 462.073Z" fill="#3163EC"/>
<g id="logo">
<path id="Fill 1" fill-rule="evenodd" clip-rule="evenodd" d="M108.034 495.537C107.815 495.537 107.1 495.673 106.953 495.448C106.865 495.312 106.953 494.792 106.953 494.638V492.674V487.5V485.398C106.953 485.174 106.841 484.558 106.953 484.358C107.077 484.138 107.461 484.237 107.692 484.237H109.9H112.406H113.309C113.429 484.237 113.774 484.173 113.881 484.237C114.072 484.351 114.003 484.58 114.003 484.803V486.531V492.206C114.003 492.452 114.154 495.509 113.916 495.537H110.406H108.034ZM115.461 487.985C115.461 486.777 115.523 485.549 115.461 484.342C115.361 482.399 113.277 482.74 111.959 482.74C110.357 482.74 108.738 482.67 107.138 482.74C105.467 482.813 105.495 484.268 105.495 485.54C105.495 488.785 105.405 492.043 105.495 495.286C105.552 497.354 107.576 497.034 108.997 497.034H113.741C113.795 497.04 113.853 497.042 113.916 497.034C114.004 497.034 114.081 497.018 114.152 496.994C115.689 496.659 115.461 495.011 115.461 493.71V487.985Z" fill="white"/>
<path id="Fill 3" fill-rule="evenodd" clip-rule="evenodd" d="M115.459 492.737C115.755 492.966 116.05 493.194 116.345 493.423C117.094 494.003 117.822 492.704 117.081 492.13C116.539 491.71 115.996 491.29 115.454 490.87" fill="white"/>
<g id="Group 7">
<mask id="mask0" mask-type="alpha" maskUnits="userSpaceOnUse" x="103" y="487" width="11" height="7">
<path id="Clip 6" fill-rule="evenodd" clip-rule="evenodd" d="M103.567 487.128H114V493.452H103.567V487.128Z" fill="white"/>
</mask>
<g mask="url(#mask0)">
<path id="Fill 5" fill-rule="evenodd" clip-rule="evenodd" d="M113.989 489.736C112.913 488.903 111.836 488.069 110.76 487.236C110.576 487.093 110.208 487.092 110.024 487.236C107.975 488.828 105.925 490.42 103.876 492.013C103.137 492.587 103.863 493.887 104.612 493.305C106.539 491.808 108.466 490.311 110.393 488.813C111.595 489.744 112.797 490.676 114 491.607" fill="white"/>
</g>
</g>
<path id="Fill 8" fill-rule="evenodd" clip-rule="evenodd" d="M111.517 493.466C111.517 494.016 111.082 494.463 110.545 494.463C110.009 494.463 109.574 494.016 109.574 493.466C109.574 492.915 110.009 492.469 110.545 492.469C111.082 492.469 111.517 492.915 111.517 493.466Z" fill="white"/>
</g>
</g>
<g id="text_2">
<path id="gestionnaire_2" d="M61.0531 538.489H60.1999V540.8C59.9695 540.843 59.6815 540.865 59.3359 540.865C58.9831 540.865 58.6951 540.843 58.4719 540.8V533.477L58.5475 533.402C59.1739 533.387 59.6923 533.377 60.1027 533.369C60.5203 533.362 60.8371 533.359 61.0531 533.359C61.4491 533.359 61.8091 533.413 62.1331 533.521C62.4643 533.629 62.7451 533.791 62.9755 534.007C63.2059 534.223 63.3823 534.493 63.5047 534.817C63.6343 535.133 63.6991 535.501 63.6991 535.918C63.6991 536.336 63.6343 536.707 63.5047 537.031C63.3751 537.347 63.1951 537.614 62.9647 537.83C62.7343 538.046 62.4535 538.211 62.1223 538.327C61.7983 538.435 61.4419 538.489 61.0531 538.489ZM60.1999 534.676V537.193C60.4015 537.185 60.5599 537.182 60.6751 537.182C60.7975 537.175 60.8767 537.171 60.9127 537.171C61.1071 537.171 61.2691 537.139 61.3987 537.074C61.5283 537.002 61.6327 536.912 61.7119 536.804C61.7911 536.689 61.8487 536.555 61.8847 536.404C61.9207 536.253 61.9387 536.095 61.9387 535.929C61.9387 535.771 61.9207 535.616 61.8847 535.465C61.8487 535.313 61.7911 535.18 61.7119 535.065C61.6399 534.95 61.5427 534.86 61.4203 534.795C61.2979 534.723 61.1539 534.687 60.9883 534.687C60.8227 534.687 60.6751 534.687 60.5455 534.687C60.4159 534.687 60.3007 534.683 60.1999 534.676ZM70.1912 535.702C70.1912 535.94 70.1552 536.167 70.0832 536.383C70.0112 536.591 69.914 536.782 69.7916 536.955C69.6764 537.121 69.536 537.268 69.3704 537.398C69.212 537.52 69.0464 537.614 68.8736 537.679C69.248 537.815 69.5252 538.147 69.7052 538.672L70.0292 539.59C70.1516 539.95 70.3316 540.217 70.5692 540.389C70.4612 540.533 70.2992 540.656 70.0832 540.757C69.8672 540.85 69.6296 540.897 69.3704 540.897C69.1112 540.897 68.9096 540.825 68.7656 540.681C68.6216 540.53 68.4884 540.271 68.366 539.903L67.9772 538.769C67.898 538.553 67.79 538.388 67.6532 538.273C67.5236 538.157 67.3256 538.1 67.0592 538.1H66.6164V540.8C66.386 540.843 66.098 540.865 65.7524 540.865C65.4068 540.865 65.1224 540.843 64.8992 540.8V533.477L64.9748 533.402C65.6012 533.387 66.1268 533.377 66.5516 533.369C66.9836 533.362 67.322 533.359 67.5668 533.359C67.9628 533.359 68.3228 533.409 68.6468 533.51C68.9708 533.603 69.2444 533.747 69.4676 533.942C69.698 534.136 69.8744 534.381 69.9968 534.676C70.1264 534.971 70.1912 535.313 70.1912 535.702ZM66.6164 534.655V536.771C66.9404 536.771 67.2176 536.768 67.448 536.761C67.6784 536.746 67.862 536.703 67.9988 536.631C68.1428 536.552 68.2508 536.444 68.3228 536.307C68.3948 536.17 68.4308 535.972 68.4308 535.713C68.4308 535.015 68.0924 534.665 67.4156 534.665C67.25 534.665 67.0988 534.665 66.962 534.665C66.8324 534.665 66.7172 534.662 66.6164 534.655ZM73.0725 538.791C73.2669 539.353 73.6593 539.633 74.2497 539.633C74.5449 539.633 74.7825 539.561 74.9625 539.417C75.1497 539.266 75.2937 539.079 75.3945 538.856C75.5025 538.625 75.5745 538.37 75.6105 538.089C75.6465 537.808 75.6645 537.531 75.6645 537.257C75.6645 537.005 75.6537 536.725 75.6321 536.415C75.6177 536.105 75.5673 535.817 75.4809 535.551C75.3945 535.277 75.2577 535.051 75.0705 534.871C74.8833 534.683 74.6097 534.59 74.2497 534.59C73.9041 534.59 73.6377 534.68 73.4505 534.86C73.2705 535.033 73.1337 535.249 73.0401 535.508C72.9537 535.767 72.8997 536.044 72.8781 536.339C72.8565 536.627 72.8457 536.883 72.8457 537.106C72.8457 537.437 72.8601 537.733 72.8889 537.992C72.9249 538.251 72.9861 538.517 73.0725 538.791ZM72.1977 540.281C71.4273 539.641 71.0421 538.586 71.0421 537.117C71.0421 536.483 71.1141 535.929 71.2581 535.454C71.4093 534.971 71.6217 534.568 71.8953 534.244C72.1761 533.92 72.5145 533.675 72.9105 533.51C73.3065 533.344 73.7529 533.261 74.2497 533.261C74.7465 533.261 75.1929 533.344 75.5889 533.51C75.9921 533.675 76.3305 533.924 76.6041 534.255C76.8849 534.579 77.0973 534.982 77.2413 535.465C77.3925 535.94 77.4681 536.491 77.4681 537.117C77.4681 537.743 77.3925 538.298 77.2413 538.78C77.0973 539.255 76.8849 539.655 76.6041 539.979C76.3305 540.303 75.9921 540.548 75.5889 540.713C75.1929 540.879 74.7465 540.962 74.2497 540.962C73.4289 540.962 72.7449 540.735 72.1977 540.281ZM81.3263 538.489H80.4731V540.8C80.2427 540.843 79.9547 540.865 79.6091 540.865C79.2563 540.865 78.9683 540.843 78.7451 540.8V533.477L78.8207 533.402C79.4471 533.387 79.9655 533.377 80.3759 533.369C80.7935 533.362 81.1103 533.359 81.3263 533.359C81.7223 533.359 82.0823 533.413 82.4063 533.521C82.7375 533.629 83.0183 533.791 83.2487 534.007C83.4791 534.223 83.6555 534.493 83.7779 534.817C83.9075 535.133 83.9723 535.501 83.9723 535.918C83.9723 536.336 83.9075 536.707 83.7779 537.031C83.6483 537.347 83.4683 537.614 83.2379 537.83C83.0075 538.046 82.7267 538.211 82.3955 538.327C82.0715 538.435 81.7151 538.489 81.3263 538.489ZM80.4731 534.676V537.193C80.6747 537.185 80.8331 537.182 80.9483 537.182C81.0707 537.175 81.1499 537.171 81.1859 537.171C81.3803 537.171 81.5423 537.139 81.6719 537.074C81.8015 537.002 81.9059 536.912 81.9851 536.804C82.0643 536.689 82.1219 536.555 82.1579 536.404C82.1939 536.253 82.2119 536.095 82.2119 535.929C82.2119 535.771 82.1939 535.616 82.1579 535.465C82.1219 535.313 82.0643 535.18 81.9851 535.065C81.9131 534.95 81.8159 534.86 81.6935 534.795C81.5711 534.723 81.4271 534.687 81.2615 534.687C81.0959 534.687 80.9483 534.687 80.8187 534.687C80.6891 534.687 80.5739 534.683 80.4731 534.676ZM86.868 538.618L86.8572 539.396V539.407C87.1884 539.392 87.4548 539.385 87.6564 539.385H90.162C90.162 539.651 90.1512 539.857 90.1296 540.001C90.0432 540.555 89.676 540.832 89.028 540.832H86.1552C85.8456 540.832 85.6008 540.742 85.4208 540.562C85.248 540.382 85.1616 540.137 85.1616 539.828V533.499L85.2372 533.423H89.892C89.9352 533.632 89.9568 533.859 89.9568 534.104C89.9568 534.349 89.9064 534.604 89.8056 534.871H86.8572L86.868 535.648V536.404C87.0552 536.397 87.3 536.393 87.6024 536.393H89.2548C89.3196 536.595 89.352 536.825 89.352 537.085C89.352 537.344 89.3196 537.581 89.2548 537.797H86.868V538.618ZM96.7229 535.702C96.7229 535.94 96.6869 536.167 96.6149 536.383C96.5429 536.591 96.4457 536.782 96.3233 536.955C96.2081 537.121 96.0677 537.268 95.9021 537.398C95.7437 537.52 95.5781 537.614 95.4053 537.679C95.7797 537.815 96.0569 538.147 96.2369 538.672L96.5609 539.59C96.6833 539.95 96.8633 540.217 97.1009 540.389C96.9929 540.533 96.8309 540.656 96.6149 540.757C96.3989 540.85 96.1613 540.897 95.9021 540.897C95.6429 540.897 95.4413 540.825 95.2973 540.681C95.1533 540.53 95.0201 540.271 94.8977 539.903L94.5089 538.769C94.4297 538.553 94.3217 538.388 94.1849 538.273C94.0553 538.157 93.8573 538.1 93.5909 538.1H93.1481V540.8C92.9177 540.843 92.6297 540.865 92.2841 540.865C91.9385 540.865 91.6541 540.843 91.4309 540.8V533.477L91.5065 533.402C92.1329 533.387 92.6585 533.377 93.0833 533.369C93.5153 533.362 93.8537 533.359 94.0985 533.359C94.4945 533.359 94.8545 533.409 95.1785 533.51C95.5025 533.603 95.7761 533.747 95.9993 533.942C96.2297 534.136 96.4061 534.381 96.5285 534.676C96.6581 534.971 96.7229 535.313 96.7229 535.702ZM93.1481 534.655V536.771C93.4721 536.771 93.7493 536.768 93.9797 536.761C94.2101 536.746 94.3937 536.703 94.5305 536.631C94.6745 536.552 94.7825 536.444 94.8545 536.307C94.9265 536.17 94.9625 535.972 94.9625 535.713C94.9625 535.015 94.6241 534.665 93.9473 534.665C93.7817 534.665 93.6305 534.665 93.4937 534.665C93.3641 534.665 93.2489 534.662 93.1481 534.655ZM100.835 534.849L100.845 535.648V540.8C100.601 540.843 100.309 540.865 99.9707 540.865C99.6323 540.865 99.3479 540.843 99.1175 540.8V534.849L98.4263 534.86H97.3139C97.2707 534.651 97.2491 534.413 97.2491 534.147C97.2491 533.873 97.2707 533.632 97.3139 533.423H102.66C102.717 533.611 102.746 533.837 102.746 534.104C102.746 534.37 102.674 534.565 102.53 534.687C102.386 534.802 102.156 534.86 101.839 534.86H101.526L100.845 534.849H100.835ZM106.332 535.249L107.056 533.423C107.243 533.38 107.484 533.359 107.779 533.359C108.096 533.359 108.37 533.402 108.6 533.488L108.676 533.575L106.58 538.532V540.8C106.357 540.843 106.069 540.865 105.716 540.865C105.364 540.865 105.076 540.843 104.852 540.8V538.489L102.768 533.629C103.099 533.434 103.416 533.337 103.718 533.337C104.021 533.337 104.237 533.391 104.366 533.499C104.503 533.6 104.622 533.776 104.723 534.028L105.241 535.313C105.428 535.774 105.59 536.289 105.727 536.858H105.792C105.907 536.404 106.087 535.868 106.332 535.249ZM111.745 540.778L112.318 533.434C112.634 533.377 113.009 533.348 113.441 533.348C113.873 533.348 114.251 533.377 114.575 533.434L115.212 536.08C115.464 537.275 115.597 537.927 115.612 538.035H115.687C115.716 537.855 115.849 537.203 116.087 536.08L116.735 533.434C117.052 533.377 117.426 533.348 117.858 533.348C118.29 533.348 118.668 533.377 118.992 533.434L119.564 540.778C119.341 540.836 119.064 540.865 118.733 540.865C118.409 540.865 118.142 540.847 117.934 540.811L117.761 537.808C117.71 536.613 117.682 535.781 117.674 535.313H117.61L116.54 539.709C116.281 539.752 115.982 539.774 115.644 539.774C115.313 539.774 115.018 539.752 114.758 539.709L113.7 535.313H113.624C113.624 535.954 113.596 536.786 113.538 537.808L113.376 540.811C113.167 540.847 112.897 540.865 112.566 540.865C112.242 540.865 111.968 540.836 111.745 540.778ZM122.829 539.255C122.634 539.255 122.49 539.252 122.397 539.245L121.932 540.811C121.76 540.854 121.518 540.875 121.209 540.875C120.863 540.875 120.582 540.836 120.366 540.757L120.312 540.67L122.688 533.423C122.969 533.38 123.297 533.359 123.671 533.359C124.096 533.359 124.434 533.384 124.686 533.434L127.019 540.692C126.767 540.829 126.483 540.897 126.166 540.897C125.792 540.897 125.529 540.832 125.378 540.703C125.226 540.573 125.097 540.325 124.989 539.957L124.784 539.245C124.69 539.252 124.55 539.255 124.362 539.255H122.829ZM122.796 537.895L123.228 537.884H124.017C124.053 537.884 124.114 537.887 124.2 537.895C124.294 537.895 124.362 537.895 124.406 537.895L124.222 537.225C124.049 536.62 123.851 535.879 123.628 535H123.563C123.506 535.31 123.333 535.997 123.045 537.063L122.796 537.895ZM133.801 533.348L133.877 533.423V540.767C133.589 540.832 133.247 540.865 132.851 540.865C132.462 540.865 132.116 540.843 131.814 540.8L130.118 536.933C129.917 536.494 129.711 535.987 129.503 535.411L129.47 535.421C129.557 536.473 129.6 537.549 129.6 538.651V540.8C129.377 540.843 129.107 540.865 128.79 540.865C128.473 540.865 128.207 540.843 127.991 540.8V533.456C128.264 533.391 128.592 533.359 128.973 533.359C129.362 533.359 129.708 533.38 130.01 533.423L131.684 537.279C131.987 537.992 132.21 538.539 132.354 538.921L132.397 538.899C132.311 537.898 132.267 536.836 132.267 535.713V534.395C132.267 534.021 132.343 533.755 132.494 533.596C132.645 533.431 132.89 533.348 133.229 533.348H133.801ZM137.371 539.255C137.176 539.255 137.032 539.252 136.939 539.245L136.474 540.811C136.302 540.854 136.06 540.875 135.751 540.875C135.405 540.875 135.124 540.836 134.908 540.757L134.854 540.67L137.23 533.423C137.511 533.38 137.839 533.359 138.213 533.359C138.638 533.359 138.976 533.384 139.228 533.434L141.561 540.692C141.309 540.829 141.025 540.897 140.708 540.897C140.334 540.897 140.071 540.832 139.92 540.703C139.768 540.573 139.639 540.325 139.531 539.957L139.326 539.245C139.232 539.252 139.092 539.255 138.904 539.255H137.371ZM137.338 537.895L137.77 537.884H138.559C138.595 537.884 138.656 537.887 138.742 537.895C138.836 537.895 138.904 537.895 138.948 537.895L138.764 537.225C138.591 536.62 138.393 535.879 138.17 535H138.105C138.048 535.31 137.875 535.997 137.587 537.063L137.338 537.895ZM145.384 536.609L147.079 536.599C147.843 536.599 148.224 536.959 148.224 537.679V540.519C147.295 540.814 146.32 540.962 145.297 540.962C144.779 540.962 144.318 540.875 143.915 540.703C143.519 540.53 143.184 540.281 142.911 539.957C142.644 539.633 142.443 539.237 142.306 538.769C142.169 538.294 142.101 537.758 142.101 537.16C142.101 536.505 142.194 535.936 142.381 535.454C142.576 534.964 142.831 534.557 143.148 534.233C143.472 533.909 143.843 533.668 144.261 533.51C144.678 533.344 145.114 533.261 145.567 533.261C146.503 533.261 147.382 533.521 148.203 534.039C148.195 534.154 148.167 534.273 148.116 534.395C148.073 534.511 148.015 534.626 147.943 534.741C147.879 534.849 147.799 534.95 147.706 535.043C147.619 535.13 147.529 535.205 147.436 535.27C146.838 534.881 146.233 534.687 145.621 534.687C144.448 534.687 143.861 535.508 143.861 537.149C143.861 538.784 144.462 539.601 145.665 539.601C145.83 539.601 145.989 539.594 146.14 539.579C146.298 539.565 146.453 539.543 146.604 539.515V538.791C146.604 538.625 146.604 538.481 146.604 538.359C146.611 538.237 146.619 538.132 146.626 538.046H146.086C145.776 538.046 145.56 537.988 145.438 537.873C145.323 537.751 145.265 537.563 145.265 537.311C145.265 537.095 145.305 536.861 145.384 536.609ZM151.362 538.618L151.351 539.396V539.407C151.683 539.392 151.949 539.385 152.151 539.385H154.656C154.656 539.651 154.645 539.857 154.624 540.001C154.537 540.555 154.17 540.832 153.522 540.832H150.649C150.34 540.832 150.095 540.742 149.915 540.562C149.742 540.382 149.656 540.137 149.656 539.828V533.499L149.731 533.423H154.386C154.429 533.632 154.451 533.859 154.451 534.104C154.451 534.349 154.401 534.604 154.3 534.871H151.351L151.362 535.648V536.404C151.549 536.397 151.794 536.393 152.097 536.393H153.749C153.814 536.595 153.846 536.825 153.846 537.085C153.846 537.344 153.814 537.581 153.749 537.797H151.362V538.618ZM161.217 535.702C161.217 535.94 161.181 536.167 161.109 536.383C161.037 536.591 160.94 536.782 160.817 536.955C160.702 537.121 160.562 537.268 160.396 537.398C160.238 537.52 160.072 537.614 159.899 537.679C160.274 537.815 160.551 538.147 160.731 538.672L161.055 539.59C161.177 539.95 161.357 540.217 161.595 540.389C161.487 540.533 161.325 540.656 161.109 540.757C160.893 540.85 160.655 540.897 160.396 540.897C160.137 540.897 159.935 540.825 159.791 540.681C159.647 540.53 159.514 540.271 159.392 539.903L159.003 538.769C158.924 538.553 158.816 538.388 158.679 538.273C158.549 538.157 158.351 538.1 158.085 538.1H157.642V540.8C157.412 540.843 157.124 540.865 156.778 540.865C156.433 540.865 156.148 540.843 155.925 540.8V533.477L156.001 533.402C156.627 533.387 157.153 533.377 157.577 533.369C158.009 533.362 158.348 533.359 158.593 533.359C158.989 533.359 159.349 533.409 159.673 533.51C159.997 533.603 160.27 533.747 160.493 533.942C160.724 534.136 160.9 534.381 161.023 534.676C161.152 534.971 161.217 535.313 161.217 535.702ZM157.642 534.655V536.771C157.966 536.771 158.243 536.768 158.474 536.761C158.704 536.746 158.888 536.703 159.025 536.631C159.169 536.552 159.277 536.444 159.349 536.307C159.421 536.17 159.457 535.972 159.457 535.713C159.457 535.015 159.118 534.665 158.441 534.665C158.276 534.665 158.125 534.665 157.988 534.665C157.858 534.665 157.743 534.662 157.642 534.655Z" fill="#041766"/>
</g>
</g>
<g id="propri&#195;&#169;taire">
<path id="Path 9" fill-rule="evenodd" clip-rule="evenodd" d="M457.944 352.225L410.51 352.792C410.51 352.792 350.557 301.009 379.113 281.254C407.669 261.5 383.608 193.4 402.456 186.008C421.303 178.616 473.757 176.747 506.157 209.071C538.557 241.395 532.161 269.254 514.72 295.977C497.28 322.7 495.971 351.5 495.971 351.5L457.944 352.225Z" fill="#F2F9FF"/>
<g id="propri&#195;&#169;taire_2">
<path id="face_3" fill-rule="evenodd" clip-rule="evenodd" d="M443.296 186.248C454.885 184.142 466.773 196.153 469.849 213.076C472.926 230 466.021 245.426 454.432 247.532C442.843 249.639 430.955 237.627 427.878 220.704C424.802 203.781 431.706 188.354 443.296 186.248Z" fill="#E49F56"/>
<path id="neck_2" fill-rule="evenodd" clip-rule="evenodd" d="M446.788 246.524C446.788 246.524 444.56 261.014 441.125 262.379C437.69 263.744 457.735 258.982 457.735 258.982L458.113 242.372" fill="#E49F56"/>
<path id="body_2" fill-rule="evenodd" clip-rule="evenodd" d="M456.328 252.499C456.328 252.499 437.324 261.265 431.687 267.287C426.051 273.309 417.305 287.181 418.852 301.64C420.4 316.098 433.197 340.665 426.025 352.225C443.39 352.225 461.138 352.225 470.581 352.225C459.388 322.919 470.359 324.016 478.12 294.09C485.882 264.164 480.764 252.676 456.328 252.499Z" fill="#3163EC"/>
<path id="arm_2" fill-rule="evenodd" clip-rule="evenodd" d="M431.687 295.977C440.412 305.531 454.092 310.26 459.245 309.19C449.845 322.755 443.988 332.677 432.503 352.225C425.655 353.5 428.933 352.225 420.211 352.225C420.871 347.991 424.128 324.436 431.687 295.977Z" fill="#E49F56"/>
<path id="Forme_23" d="M439.238 281.254L431.687 295.977C431.687 295.977 439.649 306.459 458.868 309.567" stroke="white" stroke-width="1.13251" stroke-linecap="round"/>
<path id="hair_3" fill-rule="evenodd" clip-rule="evenodd" d="M407.15 184.236C417.169 169.385 427.361 185.492 439.993 177.441C452.624 169.389 487.852 161.004 489.718 191.807C490.818 209.956 473.914 242.209 459.245 247.772C449.76 251.369 451.817 229.991 454.715 224.629C462.095 210.974 457.607 209.485 452.828 214.059C448.048 218.633 397.131 199.087 407.15 184.236Z" fill="#041766"/>
<path id="mouth" d="M439.993 237.464C439.993 237.464 444.885 240.031 446.788 232.179" stroke="#A15E18" stroke-width="1.13251" stroke-linecap="round"/>
<g id="eyes">
<path id="Oval_5" fill-rule="evenodd" clip-rule="evenodd" d="M441.793 223.436C442.403 223.295 442.594 221.862 442.218 220.234C441.842 218.607 441.043 217.402 440.433 217.543C439.822 217.684 439.632 219.117 440.008 220.745C440.384 222.372 441.183 223.577 441.793 223.436Z" fill="#00166A"/>
<path id="Oval_6" fill-rule="evenodd" clip-rule="evenodd" d="M431.398 223.436C432.008 223.295 432.198 221.862 431.823 220.234C431.447 218.607 430.648 217.402 430.038 217.543C429.427 217.684 429.237 219.117 429.613 220.745C429.989 222.372 430.788 223.577 431.398 223.436Z" fill="#00166A"/>
<path id="Forme_21" d="M445.291 218.774C445.291 218.774 460.701 206.587 466.809 207.826" stroke="#041766" stroke-width="1.13251"/>
<path id="Path_2" fill-rule="evenodd" clip-rule="evenodd" d="M437.789 210.128C440.737 209.466 444.037 212.969 445.158 217.953C446.279 222.937 444.792 227.514 441.843 228.176C438.895 228.839 435.596 225.336 434.474 220.352C433.353 215.367 434.841 210.789 437.789 210.128Z" stroke="#041766" stroke-width="1.13251"/>
<path id="Path_3" fill-rule="evenodd" clip-rule="evenodd" d="M424.559 210.128C427.507 209.466 430.807 212.969 431.928 217.953C433.049 222.937 431.562 227.514 428.613 228.176C425.665 228.839 422.366 225.336 421.244 220.352C420.123 215.367 421.611 210.789 424.559 210.128Z" stroke="#041766" stroke-width="1.13251"/>
</g>
<path id="Oval_7" fill-rule="evenodd" clip-rule="evenodd" d="M454.816 243.032C456.904 243.032 458.596 239.478 458.596 235.094C458.596 230.71 456.904 227.156 454.816 227.156C452.728 227.156 451.036 230.71 451.036 235.094C451.036 239.478 452.728 243.032 454.816 243.032Z" stroke="#FFD700" stroke-width="1.512"/>
<path id="Oval_8" fill-rule="evenodd" clip-rule="evenodd" d="M454.816 226.4C455.651 226.4 456.328 225.723 456.328 224.888C456.328 224.053 455.651 223.376 454.816 223.376C453.981 223.376 453.304 224.053 453.304 224.888C453.304 225.723 453.981 226.4 454.816 226.4Z" fill="#FFD700"/>
<path id="Forme_981" d="M448.11 246.524C448.11 246.524 450.243 247.843 454.15 246.524" stroke="#041766" stroke-width="1.13251" stroke-linecap="round"/>
</g>
<path id="Path 11" d="M401.48 352.792H482.018" stroke="#041766" stroke-width="2.7" stroke-linecap="round"/>
<path id="Path 11_2" d="M491.48 352.792L499.87 352.85" stroke="#041766" stroke-width="2.7" stroke-linecap="round"/>
<g id="text_3">
<path id="propri&#195;&#169;taire_3" d="M426.917 372.642H428.786C428.786 372.93 428.768 373.178 428.732 373.387C428.696 373.589 428.58 373.765 428.386 373.916C428.192 374.06 427.936 374.132 427.619 374.132H425.178C424.869 374.132 424.624 374.042 424.444 373.862C424.264 373.682 424.174 373.438 424.174 373.128V366.724L424.25 366.648H424.887C425.564 366.648 425.902 367.015 425.902 367.75V372.685C426.219 372.656 426.557 372.642 426.917 372.642ZM431.688 372.556C431.493 372.556 431.349 372.552 431.256 372.545L430.791 374.111C430.618 374.154 430.377 374.176 430.068 374.176C429.722 374.176 429.441 374.136 429.225 374.057L429.171 373.97L431.547 366.724C431.828 366.68 432.156 366.659 432.53 366.659C432.955 366.659 433.293 366.684 433.545 366.734L435.878 373.992C435.626 374.129 435.342 374.197 435.025 374.197C434.65 374.197 434.388 374.132 434.236 374.003C434.085 373.873 433.956 373.625 433.848 373.258L433.642 372.545C433.549 372.552 433.408 372.556 433.221 372.556H431.688ZM431.655 371.195L432.087 371.184H432.876C432.912 371.184 432.973 371.188 433.059 371.195C433.153 371.195 433.221 371.195 433.264 371.195L433.081 370.525C432.908 369.92 432.71 369.179 432.487 368.3H432.422C432.364 368.61 432.192 369.298 431.904 370.363L431.655 371.195ZM442.66 366.648L442.735 366.724V374.068C442.447 374.132 442.105 374.165 441.709 374.165C441.321 374.165 440.975 374.143 440.673 374.1L438.977 370.234C438.775 369.794 438.57 369.287 438.361 368.711L438.329 368.722C438.415 369.773 438.459 370.849 438.459 371.951V374.1C438.235 374.143 437.965 374.165 437.649 374.165C437.332 374.165 437.065 374.143 436.849 374.1V366.756C437.123 366.691 437.451 366.659 437.832 366.659C438.221 366.659 438.567 366.68 438.869 366.724L440.543 370.579C440.845 371.292 441.069 371.839 441.213 372.221L441.256 372.199C441.169 371.198 441.126 370.136 441.126 369.013V367.696C441.126 367.321 441.202 367.055 441.353 366.896C441.504 366.731 441.749 366.648 442.087 366.648H442.66ZM449.21 373.625C448.98 373.812 448.678 373.949 448.303 374.035C447.929 374.122 447.515 374.165 447.061 374.165C446.838 374.165 446.514 374.161 446.089 374.154C445.672 374.147 445.146 374.136 444.512 374.122L444.437 374.046V366.778L444.512 366.702C444.93 366.688 445.362 366.677 445.808 366.67C446.262 366.662 446.737 366.659 447.234 366.659C447.846 366.659 448.357 366.756 448.768 366.95C449.178 367.145 449.506 367.411 449.75 367.75C449.995 368.088 450.168 368.488 450.269 368.948C450.37 369.402 450.42 369.892 450.42 370.417C450.42 371.137 450.337 371.76 450.172 372.286C450.006 372.811 449.686 373.258 449.21 373.625ZM447.223 372.815C448.174 372.815 448.649 372.016 448.649 370.417C448.649 368.812 448.174 368.009 447.223 368.009C446.993 368.009 446.788 368.009 446.608 368.009C446.435 368.009 446.284 368.005 446.154 367.998V372.826C446.284 372.818 446.435 372.815 446.608 372.815C446.788 372.815 446.993 372.815 447.223 372.815ZM454.44 372.642H456.309C456.309 372.93 456.291 373.178 456.255 373.387C456.219 373.589 456.103 373.765 455.909 373.916C455.715 374.06 455.459 374.132 455.142 374.132H452.701C452.392 374.132 452.147 374.042 451.967 373.862C451.787 373.682 451.697 373.438 451.697 373.128V366.724L451.773 366.648H452.41C453.087 366.648 453.425 367.015 453.425 367.75V372.685C453.742 372.656 454.08 372.642 454.44 372.642ZM458.869 372.091C459.063 372.653 459.455 372.934 460.046 372.934C460.341 372.934 460.579 372.862 460.759 372.718C460.946 372.566 461.09 372.379 461.191 372.156C461.299 371.926 461.371 371.67 461.407 371.389C461.443 371.108 461.461 370.831 461.461 370.558C461.461 370.306 461.45 370.025 461.428 369.715C461.414 369.406 461.363 369.118 461.277 368.851C461.191 368.578 461.054 368.351 460.867 368.171C460.679 367.984 460.406 367.89 460.046 367.89C459.7 367.89 459.434 367.98 459.247 368.16C459.067 368.333 458.93 368.549 458.836 368.808C458.75 369.067 458.696 369.344 458.674 369.64C458.653 369.928 458.642 370.183 458.642 370.406C458.642 370.738 458.656 371.033 458.685 371.292C458.721 371.551 458.782 371.818 458.869 372.091ZM457.994 373.582C457.223 372.941 456.838 371.886 456.838 370.417C456.838 369.784 456.91 369.229 457.054 368.754C457.205 368.272 457.418 367.868 457.691 367.544C457.972 367.22 458.311 366.976 458.707 366.81C459.103 366.644 459.549 366.562 460.046 366.562C460.543 366.562 460.989 366.644 461.385 366.81C461.788 366.976 462.127 367.224 462.4 367.555C462.681 367.879 462.893 368.282 463.037 368.765C463.189 369.24 463.264 369.791 463.264 370.417C463.264 371.044 463.189 371.598 463.037 372.08C462.893 372.556 462.681 372.955 462.4 373.279C462.127 373.603 461.788 373.848 461.385 374.014C460.989 374.179 460.543 374.262 460.046 374.262C459.225 374.262 458.541 374.035 457.994 373.582ZM469.833 369.002C469.833 369.24 469.797 369.467 469.725 369.683C469.653 369.892 469.556 370.082 469.434 370.255C469.319 370.421 469.178 370.568 469.013 370.698C468.854 370.82 468.689 370.914 468.516 370.979C468.89 371.116 469.167 371.447 469.347 371.972L469.671 372.89C469.794 373.25 469.974 373.517 470.211 373.69C470.103 373.834 469.941 373.956 469.725 374.057C469.509 374.15 469.272 374.197 469.013 374.197C468.753 374.197 468.552 374.125 468.408 373.981C468.264 373.83 468.131 373.571 468.008 373.204L467.619 372.07C467.54 371.854 467.432 371.688 467.295 371.573C467.166 371.458 466.968 371.4 466.701 371.4H466.259V374.1C466.028 374.143 465.74 374.165 465.395 374.165C465.049 374.165 464.765 374.143 464.541 374.1V366.778L464.617 366.702C465.243 366.688 465.769 366.677 466.194 366.67C466.626 366.662 466.964 366.659 467.209 366.659C467.605 366.659 467.965 366.709 468.289 366.81C468.613 366.904 468.887 367.048 469.11 367.242C469.34 367.436 469.517 367.681 469.639 367.976C469.769 368.272 469.833 368.614 469.833 369.002ZM466.259 367.955V370.072C466.583 370.072 466.86 370.068 467.09 370.061C467.321 370.046 467.504 370.003 467.641 369.931C467.785 369.852 467.893 369.744 467.965 369.607C468.037 369.47 468.073 369.272 468.073 369.013C468.073 368.315 467.735 367.966 467.058 367.966C466.892 367.966 466.741 367.966 466.604 367.966C466.475 367.966 466.359 367.962 466.259 367.955ZM476.027 373.625C475.797 373.812 475.494 373.949 475.12 374.035C474.745 374.122 474.331 374.165 473.878 374.165C473.655 374.165 473.331 374.161 472.906 374.154C472.488 374.147 471.963 374.136 471.329 374.122L471.253 374.046V366.778L471.329 366.702C471.747 366.688 472.179 366.677 472.625 366.67C473.079 366.662 473.554 366.659 474.051 366.659C474.663 366.659 475.174 366.756 475.584 366.95C475.995 367.145 476.322 367.411 476.567 367.75C476.812 368.088 476.985 368.488 477.085 368.948C477.186 369.402 477.237 369.892 477.237 370.417C477.237 371.137 477.154 371.76 476.988 372.286C476.823 372.811 476.502 373.258 476.027 373.625ZM474.04 372.815C474.99 372.815 475.465 372.016 475.465 370.417C475.465 368.812 474.99 368.009 474.04 368.009C473.809 368.009 473.604 368.009 473.424 368.009C473.251 368.009 473.1 368.005 472.971 367.998V372.826C473.1 372.818 473.251 372.815 473.424 372.815C473.604 372.815 473.809 372.815 474.04 372.815Z" fill="#041766"/>
</g>
</g>
<g id="prestataire">
<path id="Path 6_2" fill-rule="evenodd" clip-rule="evenodd" d="M219.987 258.832C219.987 258.832 286.259 257.677 265.263 222.834C244.266 187.991 304.189 155.927 283.313 118.645C262.437 81.3628 234.512 81.5597 195.176 91.4598C155.841 101.36 170.015 132.622 126.91 132.622C83.8048 132.622 96.7974 258.832 145.613 258.832C194.429 258.832 219.987 258.832 219.987 258.832Z" fill="#F2F9FF"/>
<g id="gestionnair_copie">
<path id="face_4" fill-rule="evenodd" clip-rule="evenodd" d="M202.923 92.037C192.452 88.9742 180.497 98.4032 176.217 113.098C171.936 127.793 176.962 142.188 187.431 145.252C197.901 148.316 209.859 138.886 214.137 124.191C218.415 109.497 213.394 95.1004 202.923 92.037Z" fill="#FFDBB5"/>
<path id="hair_4" fill-rule="evenodd" clip-rule="evenodd" d="M184.405 137.151C184.405 137.151 172.577 128.074 172.913 131.392C173.248 134.709 176.696 126.201 170.153 113.92C185.652 101.722 208.583 121.576 200.922 116.994C193.262 112.412 195.369 118.47 195.895 123.473C196.42 128.477 187.293 133.907 184.405 137.151Z" fill="#041766"/>
<g id="eyes_sunglass">
<path id="Path_4" fill-rule="evenodd" clip-rule="evenodd" d="M210.807 124.627C210.369 124.404 209.291 125.418 208.399 126.892C207.507 128.367 207.139 129.742 207.577 129.965C208.015 130.188 209.094 129.175 209.985 127.701C210.877 126.226 211.247 124.85 210.807 124.627Z" fill="#041766"/>
</g>
<path id="col_chemise" fill-rule="evenodd" clip-rule="evenodd" d="M193.022 147.23L194.459 141.471C194.459 141.471 169.174 125.236 165.572 130.991C161.971 136.746 165.572 140.716 165.572 140.716" fill="#FF9000"/>
<g id="Ipad">
<path id="Rectangle_arrondi_3" fill-rule="evenodd" clip-rule="evenodd" d="M264.294 154.748L236.118 136.116C235.125 135.459 233.789 135.734 233.133 136.73L198.727 189.011C198.412 189.489 198.3 190.073 198.415 190.634C198.53 191.196 198.862 191.688 199.339 192.003L227.515 210.635C228.508 211.292 229.844 211.018 230.5 210.022L264.906 157.74C265.221 157.262 265.333 156.678 265.219 156.117C265.104 155.556 264.771 155.063 264.294 154.748Z" fill="#F8F9FF" stroke="#1631A0" stroke-width="1.485"/>
<path id="Forme_1312" fill-rule="evenodd" clip-rule="evenodd" d="M237.381 199.481L197.238 154.29L232.994 108.799L264.205 156.24L237.381 199.481Z" fill="url(#paint1_linear)"/>
<path id="Forme_1312_2" fill-rule="evenodd" clip-rule="evenodd" d="M237.381 199.481L197.238 154.29L232.994 108.799L264.205 156.24L237.381 199.481Z" fill="url(#paint2_linear)"/>
<path id="Rectangle_arrondi_4_copie_3" fill-rule="evenodd" clip-rule="evenodd" d="M261.909 156.019L235.054 139.348C234.71 139.108 234.238 139.191 233.997 139.535L203.662 185.858C203.46 186.226 203.593 186.689 203.96 186.892L232.614 201.765C232.958 202.004 233.43 201.92 233.671 201.577L262.207 157.053C262.408 156.685 261.909 156.019 261.909 156.019Z" fill="#DEEDF9"/>
<path id="Fill 1_2" fill-rule="evenodd" clip-rule="evenodd" d="M246.971 155.897L245.94 155.302C245.814 155.229 245.775 155.059 245.854 154.922L246.957 153.012C247.035 152.875 247.202 152.824 247.329 152.897L248.36 153.492C248.486 153.565 248.525 153.735 248.446 153.872L248.39 153.969C248.385 153.986 248.381 154.002 248.377 154.018C248.375 154.028 248.374 154.038 248.372 154.048C248.372 154.053 248.371 154.057 248.37 154.062C248.369 154.071 248.369 154.08 248.367 154.089C248.367 154.095 248.367 154.1 248.367 154.105C248.366 154.114 248.366 154.123 248.366 154.132C248.366 154.137 248.366 154.143 248.366 154.149C248.366 154.157 248.367 154.166 248.367 154.174C248.368 154.18 248.368 154.186 248.369 154.191C248.37 154.2 248.371 154.208 248.372 154.216C248.373 154.222 248.374 154.228 248.375 154.234C248.377 154.242 248.378 154.25 248.38 154.258C248.382 154.264 248.383 154.27 248.385 154.276C248.387 154.283 248.389 154.291 248.391 154.298C248.395 154.311 248.4 154.323 248.405 154.336C248.407 154.341 248.41 154.347 248.413 154.352C248.416 154.36 248.419 154.367 248.423 154.374C248.425 154.38 248.429 154.385 248.432 154.391C248.436 154.397 248.439 154.404 248.443 154.411C248.447 154.416 248.45 154.421 248.454 154.427C248.458 154.433 248.463 154.439 248.467 154.446C248.471 154.451 248.475 154.456 248.479 154.461C248.484 154.467 248.489 154.473 248.495 154.479C248.499 154.483 248.503 154.488 248.507 154.492C248.513 154.498 248.519 154.504 248.526 154.51C248.53 154.514 248.534 154.517 248.538 154.521C248.546 154.527 248.553 154.533 248.561 154.539C248.565 154.542 248.568 154.545 248.572 154.548C248.584 154.556 248.596 154.564 248.609 154.572C248.724 154.638 248.856 154.65 248.979 154.617L249.038 154.583L249.029 154.602C249.029 154.602 249.615 154.149 250.032 154.262C250.372 154.373 250.708 154.521 251.033 154.709C253.244 155.985 254.127 158.592 253.007 160.532C252.996 160.551 252.985 160.569 252.974 160.588C252.926 160.668 252.828 160.698 252.753 160.654C252.691 160.618 252.664 160.543 252.684 160.471L252.683 160.471C252.983 159.508 252.637 158.465 251.787 157.974C250.924 157.476 249.827 157.713 249.145 158.482L248.819 159.047C248.851 159.075 248.881 159.101 248.906 159.125C249.011 159.225 249.039 159.377 248.973 159.495L247.109 162.857L246.972 163.105L246.6 163.777L244.843 166.945L244.257 168.001C244.15 168.194 243.918 168.268 243.739 168.165L242.215 167.285C242.037 167.182 241.984 166.944 242.098 166.754L242.72 165.719L244.585 162.614L244.98 161.956L245.127 161.713L247.106 158.417C247.176 158.302 247.321 158.25 247.46 158.29C247.495 158.301 247.535 158.314 247.577 158.329L248.138 157.358L248.136 157.356C248.397 156.85 248.419 156.283 248.237 155.806L248.232 155.806C248.192 155.711 248.124 155.629 248.03 155.574C247.825 155.456 247.566 155.509 247.399 155.685L247.343 155.783C247.264 155.919 247.098 155.97 246.971 155.897Z" fill="#ACCBE0"/>
<path id="Fill 1_3" fill-rule="evenodd" clip-rule="evenodd" d="M237.003 146.539C236.458 146.212 235.765 146.375 235.414 146.96L235.158 147.386L233.958 146.665L232.424 149.219L237.073 154.33L236.402 155.447C235.847 155.258 235.274 155.348 234.89 155.987L232.844 159.392C232.492 159.977 232.696 160.751 233.296 161.111C233.95 161.505 234.729 161.321 235.081 160.735L237.126 157.33C237.51 156.692 237.32 156.143 236.893 155.742L237.788 154.252L233.138 149.141L234.161 147.439L234.87 147.865L234.615 148.29C234.295 148.822 234.444 149.563 234.989 149.891L242.571 154.447C243.171 154.807 243.895 154.591 244.215 154.059L245.014 152.729C245.366 152.143 245.185 151.456 244.585 151.095L237.003 146.539Z" fill="#ACCBE0"/>
<rect id="Rectangle" width="27.9" height="6.3" rx="1.8" transform="matrix(-0.857167 -0.515038 -0.515038 0.857167 246.043 175.779)" fill="#C5DFF1"/>
<rect id="Rectangle_2" width="27.9" height="6.3" rx="1.8" transform="matrix(-0.857167 -0.515038 -0.515038 0.857167 241.543 182.979)" fill="#C5DFF1"/>
<path id="Forme_28_copie_4" d="M235.67 182.517L236.169 184.409L240.754 182.971" stroke="#00C997" stroke-width="1.26" stroke-linecap="round"/>
<g id="croix">
<path id="Line 3" d="M244.45 176.128L239.346 177.856" stroke="#FF4E77" stroke-width="1.26" stroke-linecap="round"/>
<path id="Line 3_2" d="M241.474 174.268L242.157 179.613" stroke="#FF4E77" stroke-width="1.26" stroke-linecap="round"/>
</g>
</g>
<path id="Hand" fill-rule="evenodd" clip-rule="evenodd" d="M212.413 158.029C212.413 158.029 224.253 153.822 232.523 157.31C240.793 160.797 232.093 160.596 228.932 160.909C225.771 161.222 224.667 161.438 223.904 163.789C223.141 166.14 218.161 164.571 216.004 163.789" fill="#FFDBB5"/>
<path id="hand-2" fill-rule="evenodd" clip-rule="evenodd" d="M245.451 193.305C245.451 193.305 248.519 191.767 247.606 186.826C246.766 183.288 251.908 174.87 254.788 170.988C257.668 167.106 253.819 178.676 254.788 183.947C255.758 189.218 251.197 196.185 251.197 196.185" fill="#FFDBB5"/>
<path id="body_3" fill-rule="evenodd" clip-rule="evenodd" d="M158.994 258.832C158.994 258.832 129.354 148.605 159.276 141.982C189.199 135.358 216.071 156.781 218.159 164.663C220.247 172.544 220.881 249.548 218.267 258.549" fill="#041766"/>
<path id="arm_3" fill-rule="evenodd" clip-rule="evenodd" d="M210.259 206.264C210.259 206.264 243.383 259.319 251.196 195.465C248.737 195.13 244.014 188.986 244.014 188.986C244.014 188.986 240.417 218.139 223.186 171.708C213.391 151.291 193.418 144.498 184.405 144.351" fill="#041766"/>
<path id="Path 13" fill-rule="evenodd" clip-rule="evenodd" d="M161.397 140.87C162.274 139.214 154.299 151.375 154.299 155.927C154.299 160.478 186.803 160.945 186.803 160.945C186.803 160.945 191.204 145.83 194.2 145.83C197.196 145.83 214.988 153.468 210.593 155.927C206.197 158.386 199.533 185.54 203.913 196.185C208.292 206.83 211.695 211.747 211.695 211.747L219.987 219.687C219.987 219.687 221.329 253.3 218.7 258.25C216.072 258.832 157.15 258.25 157.15 258.25C157.15 258.25 143.958 192.989 145.904 166.847C146.843 154.231 150.244 148.199 154.299 144.351C158.353 140.503 160.742 142.106 161.397 140.87Z" fill="#FF9000"/>
<path id="Forme_30" d="M220.71 219.965C220.71 219.965 207.276 211.555 203.568 196.185" stroke="white" stroke-width="1.188" stroke-linecap="round"/>
<path id="Path 14" fill-rule="evenodd" clip-rule="evenodd" d="M165.793 116.163C169.391 122.911 212.062 123.47 222.644 117.278C233.226 111.086 218.417 101.722 210.992 101.722C203.568 101.722 162.195 109.415 165.793 116.163Z" fill="#FF9000"/>
<path id="Path 15" fill-rule="evenodd" clip-rule="evenodd" d="M167.022 113.569C167.022 113.569 175.287 89.0673 194.2 87.4427C213.113 85.8182 222.644 104.558 222.644 109.895C201.542 121.593 167.022 113.569 167.022 113.569Z" fill="#FFAE00"/>
<path id="Path 16" fill-rule="evenodd" clip-rule="evenodd" d="M188.132 89.108L192.245 86.8C192.245 86.8 212.206 79.5274 209.193 116.834C209.193 116.834 208.163 117.975 207.393 116.834C207.393 83.7735 188.132 89.108 188.132 89.108Z" fill="#FF9000"/>
</g>
<path id="Path 7_3" d="M247.263 258.656H157.15" stroke="#041766" stroke-width="2.7" stroke-linecap="round"/>
<path id="Path 7_4" d="M146.963 258.25H133.463" stroke="#041766" stroke-width="2.7" stroke-linecap="round"/>
<path id="Path 17" d="M202.229 134.05L199.833 140.111" stroke="#D6A168" stroke-width="1.26" stroke-linecap="round"/>
<g id="text_4">
<path id="prestataire_2" d="M143.875 277.963C143.897 277.725 143.969 277.487 144.091 277.25C144.221 277.012 144.372 276.818 144.545 276.667C145.315 277.135 146.046 277.369 146.737 277.369C147.039 277.369 147.259 277.3 147.396 277.163C147.54 277.027 147.612 276.857 147.612 276.656C147.612 276.317 147.385 276.051 146.931 275.857L145.657 275.317C145.16 275.093 144.779 274.827 144.512 274.517C144.246 274.201 144.113 273.801 144.113 273.319C144.113 272.987 144.177 272.685 144.307 272.411C144.444 272.138 144.631 271.9 144.869 271.699C145.113 271.497 145.401 271.342 145.733 271.234C146.064 271.119 146.431 271.061 146.834 271.061C147.641 271.061 148.454 271.267 149.275 271.677C149.239 272.231 149.045 272.663 148.692 272.973C147.957 272.62 147.309 272.444 146.748 272.444C146.46 272.444 146.244 272.509 146.1 272.638C145.956 272.768 145.884 272.915 145.884 273.081C145.884 273.362 146.096 273.589 146.521 273.761L147.817 274.312C148.364 274.543 148.771 274.838 149.037 275.198C149.311 275.558 149.448 275.975 149.448 276.451C149.448 276.789 149.387 277.099 149.264 277.379C149.142 277.66 148.958 277.905 148.713 278.114C148.476 278.315 148.177 278.474 147.817 278.589C147.457 278.704 147.036 278.762 146.553 278.762C145.617 278.762 144.725 278.495 143.875 277.963ZM152.309 276.418L152.298 277.196V277.207C152.629 277.192 152.895 277.185 153.097 277.185H155.603C155.603 277.451 155.592 277.657 155.57 277.801C155.484 278.355 155.117 278.632 154.469 278.632H151.596C151.286 278.632 151.041 278.542 150.861 278.362C150.689 278.182 150.602 277.937 150.602 277.628V271.299L150.678 271.223H155.333C155.376 271.432 155.397 271.659 155.397 271.904C155.397 272.149 155.347 272.404 155.246 272.671H152.298L152.309 273.448V274.204C152.496 274.197 152.741 274.193 153.043 274.193H154.695C154.76 274.395 154.793 274.625 154.793 274.885C154.793 275.144 154.76 275.381 154.695 275.597H152.309V276.418ZM162.164 273.502C162.164 273.74 162.128 273.967 162.056 274.183C161.984 274.391 161.886 274.582 161.764 274.755C161.649 274.921 161.508 275.068 161.343 275.198C161.184 275.32 161.019 275.414 160.846 275.479C161.22 275.615 161.498 275.947 161.678 276.472L162.002 277.39C162.124 277.75 162.304 278.017 162.542 278.189C162.434 278.333 162.272 278.456 162.056 278.557C161.84 278.65 161.602 278.697 161.343 278.697C161.084 278.697 160.882 278.625 160.738 278.481C160.594 278.33 160.461 278.071 160.338 277.703L159.95 276.569C159.87 276.353 159.762 276.188 159.626 276.073C159.496 275.957 159.298 275.9 159.032 275.9H158.589V278.6C158.358 278.643 158.07 278.665 157.725 278.665C157.379 278.665 157.095 278.643 156.872 278.6V271.277L156.947 271.202C157.574 271.187 158.099 271.177 158.524 271.169C158.956 271.162 159.294 271.159 159.539 271.159C159.935 271.159 160.295 271.209 160.619 271.31C160.943 271.403 161.217 271.547 161.44 271.742C161.67 271.936 161.847 272.181 161.969 272.476C162.099 272.771 162.164 273.113 162.164 273.502ZM158.589 272.455V274.571C158.913 274.571 159.19 274.568 159.42 274.561C159.651 274.546 159.834 274.503 159.971 274.431C160.115 274.352 160.223 274.244 160.295 274.107C160.367 273.97 160.403 273.772 160.403 273.513C160.403 272.815 160.065 272.465 159.388 272.465C159.222 272.465 159.071 272.465 158.934 272.465C158.805 272.465 158.69 272.462 158.589 272.455ZM165.997 277.153L167.411 271.223C167.584 271.18 167.807 271.159 168.081 271.159C168.455 271.159 168.751 271.198 168.967 271.277L169.031 271.364L167.012 278.6C166.601 278.643 166.187 278.665 165.77 278.665C165.359 278.665 165.061 278.614 164.873 278.513C164.693 278.405 164.557 278.197 164.463 277.887L162.67 271.375C163.059 271.209 163.379 271.126 163.631 271.126C163.934 271.126 164.157 271.195 164.301 271.331C164.445 271.468 164.557 271.684 164.636 271.979L165.467 275.057C165.597 275.54 165.734 276.195 165.878 277.023C165.892 277.109 165.932 277.153 165.997 277.153ZM170.032 278.6V271.223C170.256 271.18 170.544 271.159 170.896 271.159C171.249 271.159 171.541 271.18 171.771 271.223V278.6C171.541 278.643 171.249 278.665 170.896 278.665C170.544 278.665 170.256 278.643 170.032 278.6ZM177.362 274.161V274.031C177.362 272.966 176.966 272.433 176.174 272.433C175.72 272.433 175.392 272.642 175.191 273.059C174.989 273.47 174.888 274.078 174.888 274.885C174.888 275.684 175.014 276.278 175.266 276.667C175.518 277.055 175.886 277.25 176.368 277.25C176.62 277.25 176.897 277.192 177.2 277.077C177.509 276.955 177.844 276.764 178.204 276.505C178.384 276.627 178.55 276.796 178.701 277.012C178.859 277.221 178.956 277.423 178.992 277.617C178.827 277.775 178.632 277.927 178.409 278.071C178.193 278.207 177.956 278.326 177.696 278.427C177.444 278.528 177.178 278.607 176.897 278.665C176.624 278.729 176.346 278.762 176.066 278.762C175.511 278.762 175.043 278.657 174.662 278.449C174.28 278.233 173.97 277.948 173.733 277.595C173.502 277.243 173.333 276.836 173.225 276.375C173.124 275.914 173.074 275.435 173.074 274.939C173.074 274.291 173.153 273.725 173.312 273.243C173.477 272.753 173.697 272.347 173.97 272.023C174.251 271.699 174.579 271.457 174.953 271.299C175.328 271.133 175.727 271.051 176.152 271.051C176.584 271.051 176.976 271.108 177.329 271.223C177.682 271.339 177.981 271.497 178.226 271.699C178.478 271.9 178.668 272.138 178.798 272.411C178.935 272.685 179.003 272.98 179.003 273.297C179.003 273.938 178.676 274.258 178.02 274.258C177.826 274.258 177.606 274.226 177.362 274.161ZM181.85 276.418L181.84 277.196V277.207C182.171 277.192 182.437 277.185 182.639 277.185H185.144C185.144 277.451 185.134 277.657 185.112 277.801C185.026 278.355 184.658 278.632 184.01 278.632H181.138C180.828 278.632 180.583 278.542 180.403 278.362C180.23 278.182 180.144 277.937 180.144 277.628V271.299L180.22 271.223H184.874C184.918 271.432 184.939 271.659 184.939 271.904C184.939 272.149 184.889 272.404 184.788 272.671H181.84L181.85 273.448V274.204C182.038 274.197 182.282 274.193 182.585 274.193H184.237C184.302 274.395 184.334 274.625 184.334 274.885C184.334 275.144 184.302 275.381 184.237 275.597H181.85V276.418ZM191.435 276.289H190.582V278.6C190.351 278.643 190.063 278.665 189.718 278.665C189.365 278.665 189.077 278.643 188.854 278.6V271.277L188.929 271.202C189.556 271.187 190.074 271.177 190.485 271.169C190.902 271.162 191.219 271.159 191.435 271.159C191.831 271.159 192.191 271.213 192.515 271.321C192.846 271.429 193.127 271.591 193.357 271.807C193.588 272.023 193.764 272.293 193.887 272.617C194.016 272.933 194.081 273.301 194.081 273.718C194.081 274.136 194.016 274.507 193.887 274.831C193.757 275.147 193.577 275.414 193.347 275.63C193.116 275.846 192.835 276.011 192.504 276.127C192.18 276.235 191.824 276.289 191.435 276.289ZM190.582 272.476V274.993C190.783 274.985 190.942 274.982 191.057 274.982C191.179 274.975 191.259 274.971 191.295 274.971C191.489 274.971 191.651 274.939 191.781 274.874C191.91 274.802 192.015 274.712 192.094 274.604C192.173 274.489 192.231 274.355 192.267 274.204C192.303 274.053 192.321 273.895 192.321 273.729C192.321 273.571 192.303 273.416 192.267 273.265C192.231 273.113 192.173 272.98 192.094 272.865C192.022 272.75 191.925 272.66 191.802 272.595C191.68 272.523 191.536 272.487 191.37 272.487C191.205 272.487 191.057 272.487 190.927 272.487C190.798 272.487 190.683 272.483 190.582 272.476ZM200.573 273.502C200.573 273.74 200.537 273.967 200.465 274.183C200.393 274.391 200.296 274.582 200.174 274.755C200.058 274.921 199.918 275.068 199.752 275.198C199.594 275.32 199.428 275.414 199.256 275.479C199.63 275.615 199.907 275.947 200.087 276.472L200.411 277.39C200.534 277.75 200.714 278.017 200.951 278.189C200.843 278.333 200.681 278.456 200.465 278.557C200.249 278.65 200.012 278.697 199.752 278.697C199.493 278.697 199.292 278.625 199.148 278.481C199.004 278.33 198.87 278.071 198.748 277.703L198.359 276.569C198.28 276.353 198.172 276.188 198.035 276.073C197.906 275.957 197.708 275.9 197.441 275.9H196.998V278.6C196.768 278.643 196.48 278.665 196.134 278.665C195.789 278.665 195.504 278.643 195.281 278.6V271.277L195.357 271.202C195.983 271.187 196.509 271.177 196.934 271.169C197.366 271.162 197.704 271.159 197.949 271.159C198.345 271.159 198.705 271.209 199.029 271.31C199.353 271.403 199.626 271.547 199.85 271.742C200.08 271.936 200.256 272.181 200.379 272.476C200.508 272.771 200.573 273.113 200.573 273.502ZM196.998 272.455V274.571C197.322 274.571 197.6 274.568 197.83 274.561C198.06 274.546 198.244 274.503 198.381 274.431C198.525 274.352 198.633 274.244 198.705 274.107C198.777 273.97 198.813 273.772 198.813 273.513C198.813 272.815 198.474 272.465 197.798 272.465C197.632 272.465 197.481 272.465 197.344 272.465C197.214 272.465 197.099 272.462 196.998 272.455ZM203.454 276.591C203.649 277.153 204.041 277.433 204.632 277.433C204.927 277.433 205.164 277.361 205.344 277.217C205.532 277.066 205.676 276.879 205.776 276.656C205.884 276.425 205.956 276.17 205.992 275.889C206.028 275.608 206.046 275.331 206.046 275.057C206.046 274.805 206.036 274.525 206.014 274.215C206 273.905 205.949 273.617 205.863 273.351C205.776 273.077 205.64 272.851 205.452 272.671C205.265 272.483 204.992 272.39 204.632 272.39C204.286 272.39 204.02 272.48 203.832 272.66C203.652 272.833 203.516 273.049 203.422 273.308C203.336 273.567 203.282 273.844 203.26 274.139C203.238 274.427 203.228 274.683 203.228 274.906C203.228 275.237 203.242 275.533 203.271 275.792C203.307 276.051 203.368 276.317 203.454 276.591ZM202.58 278.081C201.809 277.441 201.424 276.386 201.424 274.917C201.424 274.283 201.496 273.729 201.64 273.254C201.791 272.771 202.004 272.368 202.277 272.044C202.558 271.72 202.896 271.475 203.292 271.31C203.688 271.144 204.135 271.061 204.632 271.061C205.128 271.061 205.575 271.144 205.971 271.31C206.374 271.475 206.712 271.724 206.986 272.055C207.267 272.379 207.479 272.782 207.623 273.265C207.774 273.74 207.85 274.291 207.85 274.917C207.85 275.543 207.774 276.098 207.623 276.58C207.479 277.055 207.267 277.455 206.986 277.779C206.712 278.103 206.374 278.348 205.971 278.513C205.575 278.679 205.128 278.762 204.632 278.762C203.811 278.762 203.127 278.535 202.58 278.081ZM211.624 277.153L213.039 271.223C213.212 271.18 213.435 271.159 213.709 271.159C214.083 271.159 214.378 271.198 214.594 271.277L214.659 271.364L212.64 278.6C212.229 278.643 211.815 278.665 211.398 278.665C210.987 278.665 210.688 278.614 210.501 278.513C210.321 278.405 210.184 278.197 210.091 277.887L208.298 271.375C208.687 271.209 209.007 271.126 209.259 271.126C209.562 271.126 209.785 271.195 209.929 271.331C210.073 271.468 210.184 271.684 210.264 271.979L211.095 275.057C211.225 275.54 211.362 276.195 211.506 277.023C211.52 277.109 211.56 277.153 211.624 277.153ZM215.66 278.6V271.223C215.884 271.18 216.172 271.159 216.524 271.159C216.877 271.159 217.169 271.18 217.399 271.223V278.6C217.169 278.643 216.877 278.665 216.524 278.665C216.172 278.665 215.884 278.643 215.66 278.6ZM223.908 278.125C223.677 278.312 223.375 278.449 223 278.535C222.626 278.621 222.212 278.665 221.758 278.665C221.535 278.665 221.211 278.661 220.786 278.654C220.369 278.647 219.843 278.636 219.21 278.621L219.134 278.546V271.277L219.21 271.202C219.627 271.187 220.059 271.177 220.506 271.169C220.959 271.162 221.434 271.159 221.931 271.159C222.543 271.159 223.054 271.256 223.465 271.45C223.875 271.645 224.203 271.911 224.448 272.249C224.692 272.588 224.865 272.987 224.966 273.448C225.067 273.902 225.117 274.391 225.117 274.917C225.117 275.637 225.034 276.26 224.869 276.785C224.703 277.311 224.383 277.757 223.908 278.125ZM221.92 277.315C222.871 277.315 223.346 276.515 223.346 274.917C223.346 273.311 222.871 272.509 221.92 272.509C221.69 272.509 221.485 272.509 221.305 272.509C221.132 272.509 220.981 272.505 220.851 272.498V277.325C220.981 277.318 221.132 277.315 221.305 277.315C221.485 277.315 221.69 277.315 221.92 277.315ZM228.101 276.418L228.09 277.196V277.207C228.421 277.192 228.687 277.185 228.889 277.185H231.395C231.395 277.451 231.384 277.657 231.362 277.801C231.276 278.355 230.909 278.632 230.261 278.632H227.388C227.078 278.632 226.833 278.542 226.653 278.362C226.481 278.182 226.394 277.937 226.394 277.628V271.299L226.47 271.223H231.125C231.168 271.432 231.189 271.659 231.189 271.904C231.189 272.149 231.139 272.404 231.038 272.671H228.09L228.101 273.448V274.204C228.288 274.197 228.533 274.193 228.835 274.193H230.487C230.552 274.395 230.585 274.625 230.585 274.885C230.585 275.144 230.552 275.381 230.487 275.597H228.101V276.418ZM237.955 273.502C237.955 273.74 237.919 273.967 237.847 274.183C237.775 274.391 237.678 274.582 237.556 274.755C237.441 274.921 237.3 275.068 237.135 275.198C236.976 275.32 236.811 275.414 236.638 275.479C237.012 275.615 237.289 275.947 237.469 276.472L237.793 277.39C237.916 277.75 238.096 278.017 238.333 278.189C238.225 278.333 238.063 278.456 237.847 278.557C237.631 278.65 237.394 278.697 237.135 278.697C236.875 278.697 236.674 278.625 236.53 278.481C236.386 278.33 236.253 278.071 236.13 277.703L235.741 276.569C235.662 276.353 235.554 276.188 235.417 276.073C235.288 275.957 235.09 275.9 234.823 275.9H234.381V278.6C234.15 278.643 233.862 278.665 233.517 278.665C233.171 278.665 232.887 278.643 232.663 278.6V271.277L232.739 271.202C233.365 271.187 233.891 271.177 234.316 271.169C234.748 271.162 235.086 271.159 235.331 271.159C235.727 271.159 236.087 271.209 236.411 271.31C236.735 271.403 237.009 271.547 237.232 271.742C237.462 271.936 237.639 272.181 237.761 272.476C237.891 272.771 237.955 273.113 237.955 273.502ZM234.381 272.455V274.571C234.705 274.571 234.982 274.568 235.212 274.561C235.443 274.546 235.626 274.503 235.763 274.431C235.907 274.352 236.015 274.244 236.087 274.107C236.159 273.97 236.195 273.772 236.195 273.513C236.195 272.815 235.857 272.465 235.18 272.465C235.014 272.465 234.863 272.465 234.726 272.465C234.597 272.465 234.481 272.462 234.381 272.455Z" fill="#041766"/>
</g>
</g>
<g id="ARROW">
<path id="Path 18" d="M221.886 374.037C221.886 374.037 295.179 407.824 352.258 324.44" stroke="#00C997" stroke-width="1.8" stroke-linecap="round" stroke-linejoin="round"/>
<path id="Path 19" d="M347.917 321.28L356.376 318.694L356.278 328.924" stroke="#00C997" stroke-width="1.8" stroke-linecap="round" stroke-linejoin="round"/>
</g>
<g id="ARROW_2">
<path id="Path 18_2" d="M219.038 407.247C219.038 407.247 297.906 390.122 293.309 289.177" stroke="#00C997" stroke-width="1.8" stroke-linecap="round" stroke-linejoin="round"/>
<path id="Path 19_2" d="M287.941 289.266L293.14 282.11L299.219 290.338" stroke="#00C997" stroke-width="1.8" stroke-linecap="round" stroke-linejoin="round"/>
</g>
<g id="ARROW_3">
<path id="Path 18_3" d="M148.737 417.936C148.737 417.936 206.054 361.118 288.21 419.952" stroke="#C5DFF1" stroke-width="1.8" stroke-linecap="round" stroke-linejoin="round" stroke-dasharray="1.8 4.5"/>
<path id="Path 19_3" d="M285.212 424.406L294.045 423.943L290.454 414.364" stroke="#C5DFF1" stroke-width="1.8" stroke-linecap="round" stroke-linejoin="round"/>
</g>
<g id="ARROW_4">
<path id="Path 18_4" d="M278.82 256.402C278.82 256.402 277.058 337.089 177.091 351.838" stroke="#C5DFF1" stroke-width="1.8" stroke-linecap="round" stroke-linejoin="round" stroke-dasharray="1.8 4.5"/>
<path id="Path 19_4" d="M176.154 346.552L170.121 353.02L179.358 357.417" stroke="#C5DFF1" stroke-width="1.8" stroke-linecap="round" stroke-linejoin="round"/>
</g>
<g id="ARROW_5">
<path id="Path 18_5" d="M336.2 297.773C336.2 297.773 316.333 375.995 215.61 367.878" stroke="#C5DFF1" stroke-width="1.8" stroke-linecap="round" stroke-linejoin="round" stroke-dasharray="1.8 4.5"/>
<path id="Path 19_5" d="M215.886 362.516L208.553 367.463L216.565 373.824" stroke="#C5DFF1" stroke-width="1.8" stroke-linecap="round" stroke-linejoin="round"/>
</g>
<g id="tel">
<path id="tel_2" fill-rule="evenodd" clip-rule="evenodd" d="M323.748 257.428C323.633 257.577 323.496 257.707 323.341 257.814C322.168 258.606 320.889 259.233 319.537 259.677C319.149 259.775 318.754 259.848 318.355 259.894L317.609 259.616C317.279 259.415 316.94 259.227 316.619 259.01C315.206 258.009 313.968 256.786 312.953 255.392C311.185 253.06 309.804 250.522 308.566 247.896C307.415 245.528 306.498 243.059 305.827 240.524C305.381 238.748 305.088 236.96 305.243 235.128C305.282 234.677 305.37 234.231 305.432 233.793L305.703 233.062C306.409 232.301 307.336 231.885 308.282 231.509C308.983 231.236 309.683 230.997 310.396 230.77C310.992 230.566 311.655 230.664 312.173 231.033C312.475 231.225 312.691 231.525 312.774 231.868C313.212 233.681 313.634 235.498 314.118 237.305C314.334 238.036 314.11 238.818 313.541 239.318C313.259 239.599 312.943 239.847 312.637 240.105C312.284 240.405 311.931 240.708 311.565 240.99C311.427 241.067 311.374 241.237 311.444 241.379C311.846 242.429 312.199 243.497 312.646 244.534C313.451 246.485 314.424 248.366 315.553 250.158C315.641 250.343 315.854 250.438 316.051 250.38C316.813 250.248 317.578 250.137 318.346 250.037C318.897 249.932 319.471 250.038 319.953 250.332C320.098 250.426 320.226 250.545 320.33 250.682C321.53 252.285 322.726 253.892 323.918 255.503C324.304 256.015 324.227 256.832 323.748 257.428Z" fill="#00C997"/>
<path id="ondes" fill-rule="evenodd" clip-rule="evenodd" d="M324.503 241.805C325.446 243.655 325.578 245.84 324.864 247.801C324.659 248.364 324.036 248.655 323.472 248.45C322.909 248.245 322.618 247.622 322.823 247.058C323.339 245.64 323.248 244.125 322.568 242.791C321.888 241.457 320.716 240.493 319.266 240.077C318.965 239.991 318.73 239.785 318.598 239.526C318.477 239.289 318.442 239.009 318.522 238.734C318.687 238.157 319.289 237.824 319.865 237.989C321.87 238.564 323.561 239.955 324.503 241.805ZM329.051 239.488C330.611 242.547 330.818 246.019 329.638 249.263C329.433 249.826 328.81 250.117 328.246 249.912C327.682 249.707 327.391 249.083 327.596 248.52C328.569 245.848 328.398 242.991 327.116 240.474C325.834 237.958 323.622 236.14 320.889 235.356C320.588 235.269 320.353 235.063 320.221 234.804C320.1 234.568 320.066 234.287 320.145 234.012C320.31 233.435 320.911 233.102 321.488 233.268C324.807 234.22 327.493 236.429 329.051 239.488ZM320.822 229.085C320.742 229.36 320.777 229.641 320.897 229.878C321.029 230.137 321.264 230.343 321.565 230.429C325.808 231.648 329.242 234.47 331.232 238.376C333.224 242.284 333.489 246.721 331.98 250.868C331.775 251.433 332.066 252.055 332.629 252.26C333.193 252.465 333.816 252.174 334.021 251.611C335.738 246.891 335.435 241.841 333.167 237.39C330.9 232.941 326.993 229.728 322.164 228.341C321.588 228.176 320.987 228.509 320.822 229.085Z" fill="#00C997"/>
</g>
<g id="Message_left_copie">
<rect id="Rectangle_arrondi_7_copie_3" width="30.9456" height="19.9771" rx="3.7422" transform="matrix(-1 0 0 1 252.747 446.121)" fill="#00C997"/>
<g id="Forme_958">
<path fill-rule="evenodd" clip-rule="evenodd" d="M229.215 452.374H245.336H229.215Z" fill="#F15D79"/>
<path d="M229.215 452.374H245.336" stroke="white" stroke-width="1.49688" stroke-linecap="round"/>
</g>
<g id="Forme_958_copie">
<path fill-rule="evenodd" clip-rule="evenodd" d="M229.215 455.6H245.336H229.215Z" fill="#F15D79"/>
<path d="M229.215 455.6H245.336" stroke="white" stroke-width="1.49688" stroke-linecap="round"/>
</g>
<g id="Forme_958_copie_2">
<path fill-rule="evenodd" clip-rule="evenodd" d="M229.215 458.826H238.888H229.215Z" fill="#F15D79"/>
<path d="M229.215 458.826H238.888" stroke="white" stroke-width="1.49688" stroke-linecap="round"/>
</g>
<path id="Forme_61_copie_2" fill-rule="evenodd" clip-rule="evenodd" d="M244.047 465.464C244.047 465.464 245.604 470.206 247.593 470.625C249.583 471.043 242.663 471.997 238.888 466.109" fill="#00C997"/>
</g>
<g id="ARROW_6">
<path id="Path 18_6" d="M366.002 419.013C366.002 419.013 347.503 340.455 246.653 346.813" stroke="#00C997" stroke-width="1.8" stroke-linecap="round" stroke-linejoin="round"/>
<path id="Path 19_6" d="M246.836 352.179L239.59 347.106L247.711 340.884" stroke="#00C997" stroke-width="1.8" stroke-linecap="round" stroke-linejoin="round"/>
</g>
<path id="Path 20" fill-rule="evenodd" clip-rule="evenodd" d="M415.7 411.85C415.7 423.409 438.253 430.929 427.746 447.348C417.24 463.766 461.449 478.067 464.529 457.567C467.61 437.068 463.837 400.008 443.816 393.747C423.795 387.485 415.7 400.29 415.7 411.85Z" fill="#F2F9FF"/>
<g id="avant">
<rect id="Rectangle_3" x="210" width="118" height="37" rx="6" fill="#00C997"/>
<path id="Avant" d="M230.246 8.82C231.758 8.78267 233.046 8.75467 234.11 8.736C235.193 8.71733 236.061 8.708 236.714 8.708C238.749 8.708 240.345 9.13733 241.502 9.996C242.678 10.836 243.266 12.1053 243.266 13.804C243.266 14.6253 243.033 15.3907 242.566 16.1C242.099 16.8093 241.502 17.3227 240.774 17.64C241.241 17.7893 241.679 18.032 242.09 18.368C242.519 18.6853 242.883 19.068 243.182 19.516C243.481 19.9453 243.714 20.4213 243.882 20.944C244.069 21.448 244.162 21.9707 244.162 22.512C244.162 24.4347 243.546 25.8627 242.314 26.796C241.101 27.7107 239.374 28.168 237.134 28.168C236.443 28.168 235.529 28.1587 234.39 28.14C233.251 28.1213 231.87 28.0933 230.246 28.056L230.05 27.86V9.016L230.246 8.82ZM236.798 19.572H234.474V25.032C234.959 25.0133 235.501 25.0133 236.098 25.032C236.714 25.0507 237.283 25.004 237.806 24.892C238.329 24.78 238.767 24.5093 239.122 24.08C239.477 23.6507 239.654 23.0533 239.654 22.288C239.654 21.56 239.421 20.9253 238.954 20.384C238.506 19.8427 237.787 19.572 236.798 19.572ZM234.474 11.872V16.38H236.462C237.358 16.38 237.983 16.1653 238.338 15.736C238.711 15.288 238.898 14.7467 238.898 14.112C238.898 13.4773 238.711 12.9547 238.338 12.544C237.965 12.1147 237.339 11.9 236.462 11.9C236.033 11.9 235.65 11.9 235.314 11.9C234.997 11.9 234.717 11.8907 234.474 11.872ZM257.895 22.428H250.587C250.625 23.268 250.839 23.9213 251.231 24.388C251.623 24.8547 252.267 25.088 253.163 25.088C253.611 25.088 254.125 25.0227 254.703 24.892C255.301 24.7613 255.982 24.5467 256.747 24.248C257.363 24.8827 257.746 25.7413 257.895 26.824C256.402 27.888 254.573 28.42 252.407 28.42C251.231 28.42 250.242 28.2333 249.439 27.86C248.655 27.4867 248.011 26.964 247.507 26.292C247.022 25.62 246.677 24.8267 246.471 23.912C246.266 22.9973 246.163 21.9987 246.163 20.916C246.163 19.8707 246.285 18.9093 246.527 18.032C246.789 17.136 247.171 16.3613 247.675 15.708C248.198 15.0547 248.851 14.5413 249.635 14.168C250.438 13.7947 251.371 13.608 252.435 13.608C253.331 13.608 254.134 13.7573 254.843 14.056C255.571 14.3547 256.187 14.7653 256.691 15.288C257.195 15.8107 257.578 16.436 257.839 17.164C258.119 17.892 258.259 18.6853 258.259 19.544C258.259 20.6827 258.138 21.644 257.895 22.428ZM250.559 19.404H254.255V19.096C254.255 18.4053 254.097 17.836 253.779 17.388C253.481 16.94 253.023 16.716 252.407 16.716C251.81 16.716 251.362 16.9307 251.063 17.36C250.783 17.7707 250.615 18.452 250.559 19.404ZM261.88 28V17.08L259.472 17.108C259.36 16.6413 259.304 16.128 259.304 15.568C259.304 15.008 259.36 14.4853 259.472 14L261.656 14.028C261.563 13.3373 261.516 12.712 261.516 12.152C261.516 10.752 261.964 9.59467 262.86 8.68C263.775 7.74667 264.96 7.28 266.416 7.28C267.872 7.28 269.3 7.54133 270.7 8.064C270.719 8.54933 270.635 9.08133 270.448 9.66C270.262 10.22 270.028 10.6493 269.748 10.948C268.871 10.6867 268.152 10.556 267.592 10.556C266.342 10.556 265.716 11.2 265.716 12.488C265.716 13.0293 265.754 13.552 265.828 14.056L269.496 14C269.608 14.4853 269.664 15.008 269.664 15.568C269.664 16.128 269.608 16.6413 269.496 17.108L266.136 17.052V28C265.502 28.112 264.802 28.168 264.036 28.168C263.271 28.168 262.552 28.112 261.88 28ZM281.223 15.26C282.567 16.604 283.239 18.5267 283.239 21.028C283.239 22.148 283.089 23.1653 282.791 24.08C282.511 24.9947 282.091 25.7787 281.531 26.432C280.989 27.0667 280.317 27.5613 279.515 27.916C278.712 28.252 277.788 28.42 276.743 28.42C275.697 28.42 274.773 28.2427 273.971 27.888C273.187 27.5333 272.515 27.0387 271.955 26.404C271.413 25.7507 271.003 24.9667 270.723 24.052C270.443 23.1373 270.303 22.1293 270.303 21.028C270.303 19.908 270.443 18.9 270.723 18.004C271.003 17.0893 271.413 16.3053 271.955 15.652C272.496 14.9987 273.168 14.4947 273.971 14.14C274.773 13.7853 275.697 13.608 276.743 13.608C278.591 13.608 280.084 14.1587 281.223 15.26ZM276.771 16.884C276.36 16.884 276.024 16.9867 275.763 17.192C275.52 17.3787 275.324 17.64 275.175 17.976C275.025 18.312 274.923 18.704 274.867 19.152C274.811 19.5813 274.783 20.048 274.783 20.552C274.783 21.336 274.801 22.0173 274.839 22.596C274.895 23.156 274.988 23.632 275.119 24.024C275.268 24.3973 275.464 24.6773 275.707 24.864C275.968 25.0507 276.304 25.144 276.715 25.144C277.536 25.144 278.077 24.7893 278.339 24.08C278.6 23.352 278.731 22.3253 278.731 21C278.731 19.656 278.6 18.6387 278.339 17.948C278.077 17.2387 277.555 16.884 276.771 16.884ZM285.106 16.044C285.2 15.6707 285.377 15.26 285.638 14.812C285.9 14.3453 286.161 14.0093 286.422 13.804C288.14 13.9347 289.334 14.784 290.006 16.352C290.716 14.672 291.882 13.832 293.506 13.832C293.992 13.832 294.608 13.9067 295.354 14.056C295.354 14.6347 295.252 15.3253 295.046 16.128C294.86 16.912 294.598 17.584 294.262 18.144C293.945 18.032 293.469 17.9387 292.834 17.864C291.901 17.864 291.136 18.34 290.538 19.292V28C289.922 28.112 289.194 28.168 288.354 28.168C287.533 28.168 286.805 28.112 286.17 28V18.956C286.17 17.556 285.816 16.5853 285.106 16.044ZM307.732 22.428H300.424C300.461 23.268 300.676 23.9213 301.068 24.388C301.46 24.8547 302.104 25.088 303 25.088C303.448 25.088 303.961 25.0227 304.54 24.892C305.137 24.7613 305.819 24.5467 306.584 24.248C307.2 24.8827 307.583 25.7413 307.732 26.824C306.239 27.888 304.409 28.42 302.244 28.42C301.068 28.42 300.079 28.2333 299.276 27.86C298.492 27.4867 297.848 26.964 297.344 26.292C296.859 25.62 296.513 24.8267 296.308 23.912C296.103 22.9973 296 21.9987 296 20.916C296 19.8707 296.121 18.9093 296.364 18.032C296.625 17.136 297.008 16.3613 297.512 15.708C298.035 15.0547 298.688 14.5413 299.472 14.168C300.275 13.7947 301.208 13.608 302.272 13.608C303.168 13.608 303.971 13.7573 304.68 14.056C305.408 14.3547 306.024 14.7653 306.528 15.288C307.032 15.8107 307.415 16.436 307.676 17.164C307.956 17.892 308.096 18.6853 308.096 19.544C308.096 20.6827 307.975 21.644 307.732 22.428ZM300.396 19.404H304.092V19.096C304.092 18.4053 303.933 17.836 303.616 17.388C303.317 16.94 302.86 16.716 302.244 16.716C301.647 16.716 301.199 16.9307 300.9 17.36C300.62 17.7707 300.452 18.452 300.396 19.404Z" fill="white"/>
</g>
</g>
<defs>
<linearGradient id="paint0_linear" x1="51.7617" y1="429.266" x2="51.7617" y2="518.475" gradientUnits="userSpaceOnUse">
<stop stop-color="white" stop-opacity="0.01"/>
<stop offset="1" stop-color="white"/>
</linearGradient>
<linearGradient id="paint1_linear" x1="237.381" y1="199.481" x2="190.154" y2="159.853" gradientUnits="userSpaceOnUse">
<stop stop-color="white" stop-opacity="0.817581"/>
<stop offset="1" stop-color="white" stop-opacity="0.01"/>
</linearGradient>
<linearGradient id="paint2_linear" x1="237.381" y1="199.481" x2="190.154" y2="159.853" gradientUnits="userSpaceOnUse">
<stop stop-color="white" stop-opacity="0.817581"/>
<stop offset="1" stop-color="white" stop-opacity="0.01"/>
</linearGradient>
</defs>
</svg>
