<svg width="477" height="435" viewBox="0 0 477 435" fill="none" xmlns="http://www.w3.org/2000/svg">
<g id="illus-bailleur-topPage">
<g id="illus">
<g id="batiments">
<g id="Forme_74">
<path fill-rule="evenodd" clip-rule="evenodd" d="M220 81.9234V29.5078H78.9293L79.4518 69.8678H49.669V157.926H8.39629V367.589H134.314" fill="white"/>
<path d="M220 81.9234V29.5078H78.9293L79.4518 69.8678H49.669V157.926H8.39629V367.589H134.314" stroke="#D9EBFB" stroke-width="4.4" stroke-linecap="round" stroke-linejoin="round"/>
</g>
<rect id="Rectangle_arrondi_13" width="13.7811" height="23.587" rx="2.75" transform="matrix(-1 0 0 1 201.207 46.8049)" fill="#DFECF7"/>
<rect id="Rectangle_arrondi_13_copie" width="13.7816" height="23.587" rx="2.75" transform="matrix(-1 0 0 1 177.906 46.8049)" fill="#DFECF7"/>
<rect id="Rectangle_arrondi_13_copie_2" width="13.7973" height="23.587" rx="2.75" transform="matrix(-1 0 0 1 156.042 46.8049)" fill="#DFECF7"/>
<path id="Rectangle_arrondi_13_copie_3" fill-rule="evenodd" clip-rule="evenodd" d="M130.13 46.8049H121.571C120.879 46.8052 120.215 47.0816 119.726 47.5732C119.237 48.0647 118.963 48.7312 118.964 49.4257V67.7712C118.963 68.4656 119.237 69.132 119.726 69.6236C120.215 70.1151 120.879 70.3915 121.571 70.392H130.13C131.573 70.392 132.742 69.2186 132.742 67.7712V49.4257C132.742 47.9783 131.573 46.8049 130.13 46.8049Z" fill="#DFECF7"/>
<rect id="Rectangle_arrondi_13_copie_4" width="13.7837" height="23.587" rx="2.75" transform="matrix(-1 0 0 1 109.443 46.8049)" fill="#DFECF7"/>
<rect id="Rectangle_arrondi_13_copie_5" width="13.7811" height="23.587" rx="2.75" transform="matrix(-1 0 0 1 201.207 78.2544)" fill="#DFECF7"/>
<rect id="Rectangle_arrondi_13_copie_5-2" width="13.7816" height="23.587" rx="2.75" transform="matrix(-1 0 0 1 177.906 78.2544)" fill="#DFECF7"/>
<rect id="Rectangle_arrondi_13_copie_5-3" width="13.7973" height="23.587" rx="2.75" transform="matrix(-1 0 0 1 156.042 86.2544)" fill="#DFECF7"/>
<path id="Rectangle_arrondi_13_copie_5-4" fill-rule="evenodd" clip-rule="evenodd" d="M130.13 86.2544H121.571C120.879 86.2548 120.215 86.5312 119.726 87.0228C119.237 87.5143 118.963 88.1807 118.964 88.8752V107.221C118.963 107.915 119.237 108.581 119.726 109.073C120.215 109.565 120.879 109.841 121.571 109.841H130.13C131.573 109.841 132.742 108.668 132.742 107.221V88.8752C132.742 87.4278 131.573 86.2544 130.13 86.2544Z" fill="#DFECF7"/>
<path id="Rectangle_arrondi_13_copie_5-4_2" fill-rule="evenodd" clip-rule="evenodd" d="M107.13 86.2544H98.571C97.8787 86.2548 97.215 86.5312 96.726 87.0228C96.237 87.5143 95.9628 88.1807 95.9637 88.8752V107.221C95.9628 107.915 96.237 108.581 96.726 109.073C97.215 109.565 97.8787 109.841 98.571 109.841H107.13C108.573 109.841 109.742 108.668 109.742 107.221V88.8752C109.742 87.4278 108.573 86.2544 107.13 86.2544Z" fill="#DFECF7"/>
<rect id="Rectangle_arrondi_13_copie_5-3_2" width="13.7973" height="23.587" rx="2.75" transform="matrix(-1 0 0 1 156.042 120.254)" fill="#DFECF7"/>
<path id="Rectangle_arrondi_13_copie_5-4_3" fill-rule="evenodd" clip-rule="evenodd" d="M130.13 127.254H121.571C120.879 127.255 120.215 127.531 119.726 128.023C119.237 128.514 118.963 129.181 118.964 129.875V148.221C118.963 148.915 119.237 149.581 119.726 150.073C120.215 150.565 120.879 150.841 121.571 150.841H130.13C131.573 150.841 132.742 149.668 132.742 148.221V129.875C132.742 128.428 131.573 127.254 130.13 127.254Z" fill="#DFECF7"/>
<rect id="Rectangle_arrondi_13_copie_5-5" width="13.7837" height="23.587" rx="2.75" transform="matrix(-1 0 0 1 109.443 127.254)" fill="#DFECF7"/>
<rect id="Rectangle_arrondi_13_copie_5-3_3" width="13.7973" height="23.587" rx="2.75" transform="matrix(-1 0 0 1 156.042 167.254)" fill="#DFECF7"/>
<path id="Rectangle_arrondi_13_copie_5-4_4" fill-rule="evenodd" clip-rule="evenodd" d="M130.13 167.254H121.571C120.879 167.255 120.215 167.531 119.726 168.023C119.237 168.514 118.963 169.181 118.964 169.875V188.221C118.963 188.915 119.237 189.581 119.726 190.073C120.215 190.565 120.879 190.841 121.571 190.841H130.13C131.573 190.841 132.742 189.668 132.742 188.221V169.875C132.742 168.428 131.573 167.254 130.13 167.254Z" fill="#DFECF7"/>
<rect id="Rectangle_arrondi_13_copie_5-5_2" width="13.7837" height="23.587" rx="2.75" transform="matrix(-1 0 0 1 109.443 167.254)" fill="#DFECF7"/>
<rect id="Rectangle_arrondi_13_copie_6" width="13.7837" height="23.587" rx="2.75" transform="matrix(-1 0 0 1 86.4531 87.3027)" fill="#DFECF7"/>
<rect id="Rectangle_arrondi_13_copie_7" width="13.7837" height="23.587" rx="2.75" transform="matrix(-1 0 0 1 86.4531 127.711)" fill="#DFECF7"/>
<rect id="Rectangle_arrondi_13_copie_8" width="13.7837" height="23.587" rx="2.75" transform="matrix(-1 0 0 1 86.4531 168.409)" fill="#DFECF7"/>
<rect id="Rectangle_arrondi_13_copie_9" width="13.7837" height="23.587" rx="2.75" transform="matrix(-1 0 0 1 62.9404 168.409)" fill="#DFECF7"/>
<rect id="Rectangle_arrondi_13_copie_10" width="13.7837" height="23.587" rx="2.75" transform="matrix(-1 0 0 1 39.4277 168.409)" fill="#DFECF7"/>
<rect id="Rectangle_arrondi_13_copie_11" width="13.7837" height="23.587" rx="2.75" transform="matrix(-1 0 0 1 86.4531 201.955)" fill="#DFECF7"/>
<rect id="Rectangle_arrondi_13_copie_11-2" width="13.7837" height="23.587" rx="2.75" transform="matrix(-1 0 0 1 62.9404 201.955)" fill="#DFECF7"/>
<rect id="Rectangle_arrondi_13_copie_11-3 2" width="13.7837" height="23.587" rx="2.75" transform="matrix(-1 0 0 1 39.4277 201.955)" fill="#DFECF7"/>
<rect id="Rectangle_arrondi_13_copie_12" width="13.7837" height="23.587" rx="2.75" transform="matrix(-1 0 0 1 86.4531 238.646)" fill="#DFECF7"/>
<rect id="Rectangle_arrondi_13_copie_12-2" width="13.7837" height="23.587" rx="2.75" transform="matrix(-1 0 0 1 62.9404 241.646)" fill="#DFECF7"/>
<rect id="Rectangle_arrondi_13_copie_12-3" width="13.7837" height="23.587" rx="2.75" transform="matrix(-1 0 0 1 39.4277 241.646)" fill="#DFECF7"/>
<rect id="Rectangle_arrondi_13_copie_13" width="13.7837" height="23.587" rx="2.75" transform="matrix(-1 0 0 1 86.4531 270.095)" fill="#DFECF7"/>
<rect id="Rectangle_arrondi_13_copie_13-2" width="13.7837" height="23.587" rx="2.75" transform="matrix(-1 0 0 1 62.9404 270.095)" fill="#DFECF7"/>
<rect id="Rectangle_arrondi_13_copie_13-3" width="13.7837" height="23.587" rx="2.75" transform="matrix(-1 0 0 1 39.4277 280.095)" fill="#DFECF7"/>
</g>
<g id="batiments_2">
<g id="Groupe_3-2">
<path id="Rectangle_arrondi_13-2" fill-rule="evenodd" clip-rule="evenodd" d="M436.012 128.602H443.006C443.468 128.601 443.911 128.784 444.237 129.111C444.563 129.437 444.746 129.88 444.746 130.341V133.008C444.746 133.969 443.967 134.748 443.006 134.748H436.012C435.051 134.748 434.272 133.969 434.272 133.008V130.341C434.272 129.38 435.051 128.602 436.012 128.602Z" fill="#DFECF7"/>
<path id="Rectangle_arrondi_13_copie-2" fill-rule="evenodd" clip-rule="evenodd" d="M436.012 118.191H443.006C443.967 118.191 444.746 118.97 444.746 119.93V122.597C444.746 123.059 444.563 123.502 444.237 123.828C443.911 124.154 443.468 124.338 443.006 124.337H436.012C435.051 124.337 434.272 123.558 434.272 122.597V119.93C434.272 118.97 435.051 118.191 436.012 118.191Z" fill="#DFECF7"/>
<path id="Rectangle_arrondi_13_copie_2-2" fill-rule="evenodd" clip-rule="evenodd" d="M436.012 108.422H443.006C443.967 108.422 444.746 109.201 444.746 110.162V112.828C444.746 113.29 444.563 113.733 444.237 114.059C443.911 114.386 443.468 114.569 443.006 114.568H436.012C435.051 114.568 434.272 113.789 434.272 112.828V110.162C434.272 109.201 435.051 108.422 436.012 108.422Z" fill="#DFECF7"/>
<path id="Rectangle_arrondi_13_copie_3-2" fill-rule="evenodd" clip-rule="evenodd" d="M436.012 98.0115H443.006C443.468 98.0109 443.911 98.194 444.237 98.5204C444.563 98.8468 444.746 99.2897 444.746 99.7513V102.431C444.746 103.391 443.967 104.17 443.006 104.17H436.012C435.051 104.17 434.272 103.391 434.272 102.431V99.7513C434.272 98.7904 435.051 98.0115 436.012 98.0115Z" fill="#DFECF7"/>
<path id="Rectangle_arrondi_13_copie_4-2" fill-rule="evenodd" clip-rule="evenodd" d="M436.012 87.6006H443.006C443.967 87.6006 444.746 88.3795 444.746 89.3404V92.0196C444.746 92.4812 444.563 92.9241 444.237 93.2504C443.911 93.5768 443.468 93.76 443.006 93.7594H436.012C435.051 93.7594 434.272 92.9805 434.272 92.0196V89.3404C434.272 88.3795 435.051 87.6006 436.012 87.6006Z" fill="#DFECF7"/>
<path id="Rectangle_arrondi_13_copie_5-6" fill-rule="evenodd" clip-rule="evenodd" d="M449.99 128.602H456.998C457.958 128.602 458.737 129.38 458.737 130.341V133.008C458.737 133.969 457.958 134.748 456.998 134.748H449.99C449.029 134.748 448.25 133.969 448.25 133.008V130.341C448.25 129.88 448.433 129.437 448.76 129.111C449.086 128.785 449.528 128.602 449.99 128.602Z" fill="#DFECF7"/>
<path id="Rectangle_arrondi_13_copie_5-7" fill-rule="evenodd" clip-rule="evenodd" d="M449.99 118.191H456.998C457.958 118.191 458.737 118.97 458.737 119.93V122.597C458.737 123.558 457.958 124.337 456.998 124.337H449.99C449.029 124.337 448.25 123.558 448.25 122.597V119.93C448.25 118.97 449.029 118.191 449.99 118.191Z" fill="#DFECF7"/>
<path id="Rectangle_arrondi_13_copie_5-8" fill-rule="evenodd" clip-rule="evenodd" d="M449.99 108.422H456.998C457.958 108.422 458.737 109.201 458.737 110.162V112.828C458.737 113.789 457.958 114.568 456.998 114.568H449.99C449.029 114.568 448.25 113.789 448.25 112.828V110.162C448.25 109.201 449.029 108.422 449.99 108.422Z" fill="#DFECF7"/>
<path id="Rectangle_arrondi_13_copie_5-9" fill-rule="evenodd" clip-rule="evenodd" d="M449.99 98.0115H456.998C457.958 98.0115 458.737 98.7904 458.737 99.7513V102.431C458.737 103.391 457.958 104.17 456.998 104.17H449.99C449.029 104.17 448.25 103.391 448.25 102.431V99.7513C448.25 98.7904 449.029 98.0115 449.99 98.0115V98.0115Z" fill="#DFECF7"/>
<path id="Rectangle_arrondi_13_copie_5-10" fill-rule="evenodd" clip-rule="evenodd" d="M449.99 87.6006H456.998C457.958 87.6006 458.737 88.3795 458.737 89.3404V92.0196C458.737 92.9805 457.958 93.7594 456.998 93.7594H449.99C449.029 93.7594 448.25 92.9805 448.25 92.0196V89.3404C448.25 88.8789 448.433 88.4364 448.76 88.1102C449.086 87.7839 449.528 87.6006 449.99 87.6006Z" fill="#DFECF7"/>
</g>
<rect id="Rectangle_arrondi_11" x="328.867" y="74.688" width="101" height="147.185" rx="4.608" fill="white" stroke="#B3CCE2" stroke-width="1.8432"/>
<path id="Rectangle_arrondi_12_copie_4" fill-rule="evenodd" clip-rule="evenodd" d="M350.669 126.078H416.662C418.584 126.078 420.142 127.635 420.142 129.557V135.424C420.142 137.345 418.584 138.903 416.662 138.903H350.669C348.747 138.903 347.189 137.345 347.189 135.424V129.557C347.189 128.634 347.556 127.749 348.209 127.097C348.861 126.444 349.746 126.078 350.669 126.078Z" fill="#DFECF7"/>
<path id="Rectangle_arrondi_12_copie_4-2" fill-rule="evenodd" clip-rule="evenodd" d="M297.48 153H363.459C365.381 153 366.939 154.558 366.939 156.48V162.357C366.939 164.279 365.381 165.836 363.459 165.836H297.48C295.558 165.836 294 164.279 294 162.357V156.48C294 154.558 295.558 153 297.48 153Z" fill="#DFECF7"/>
<path id="Rectangle_arrondi_12_copie_2" fill-rule="evenodd" clip-rule="evenodd" d="M349.211 107.128H415.204C417.126 107.128 418.684 108.686 418.684 110.607V117.17C418.684 119.092 417.126 120.65 415.204 120.65H349.211C347.289 120.65 345.731 119.092 345.731 117.17V110.607C345.731 108.686 347.289 107.128 349.211 107.128Z" fill="#DFECF7"/>
<path id="Rectangle_arrondi_12_copie_2_2" fill-rule="evenodd" clip-rule="evenodd" d="M349.211 145.128H415.204C417.126 145.128 418.684 146.686 418.684 148.607V155.17C418.684 157.092 417.126 158.65 415.204 158.65H349.211C347.289 158.65 345.731 157.092 345.731 155.17V148.607C345.731 146.686 347.289 145.128 349.211 145.128Z" fill="#DFECF7"/>
<path id="Rectangle_arrondi_12_copie_2_3" fill-rule="evenodd" clip-rule="evenodd" d="M349.211 165.128H415.204C417.126 165.128 418.684 166.686 418.684 168.607V175.17C418.684 177.092 417.126 178.65 415.204 178.65H349.211C347.289 178.65 345.731 177.092 345.731 175.17V168.607C345.731 166.686 347.289 165.128 349.211 165.128Z" fill="#DFECF7"/>
<path id="Rectangle_arrondi_12_copie_3" fill-rule="evenodd" clip-rule="evenodd" d="M348.755 87.7529H388.638C390.559 87.7529 392.117 89.3108 392.117 91.2325V97.8169C392.117 99.7386 390.559 101.296 388.638 101.296H348.755C346.833 101.296 345.275 99.7386 345.275 97.8169V91.2325C345.275 89.3108 346.833 87.7529 348.755 87.7529Z" fill="#DFECF7"/>
<path id="Oval" d="M410.992 100.339C415.238 100.339 418.68 96.8972 418.68 92.6512C418.68 88.4052 415.238 84.9631 410.992 84.9631C406.746 84.9631 403.304 88.4052 403.304 92.6512C403.304 96.8972 406.746 100.339 410.992 100.339Z" fill="#B3CCE2"/>
</g>
<g id="decor-mask">
<path id="Mask" fill-rule="evenodd" clip-rule="evenodd" d="M464.392 437.024C461.976 436.154 521.806 203.171 393.403 191.664C316.402 184.761 344.879 158.052 334.389 107.912C338.429 34.0172 257.621 -30.2113 168.367 16C79.1131 62.2113 102.818 212.712 37.4679 276.811C-27.8817 340.91 9.26611 421.958 32.4713 434.654C55.6765 434.654 466.808 437.894 464.392 437.024Z" fill="#EDF7FF"/>
<mask id="mask0" mask-type="alpha" maskUnits="userSpaceOnUse" x="0" y="0" width="477" height="438">
<path id="Mask_2" fill-rule="evenodd" clip-rule="evenodd" d="M464.392 437.024C461.976 436.154 521.806 203.171 393.403 191.664C316.402 184.761 344.879 158.052 334.389 107.912C338.429 34.0172 257.621 -30.2113 168.367 16C79.1131 62.2113 102.818 212.712 37.4679 276.811C-27.8817 340.91 9.26611 421.958 32.4713 434.654C55.6765 434.654 466.808 437.894 464.392 437.024Z" fill="white"/>
</mask>
<g mask="url(#mask0)">
<g id="fauteuil">
<path id="Forme_17" fill-rule="evenodd" clip-rule="evenodd" d="M383.143 378.938C373.406 381.23 355.709 390.965 367.675 392.114C379.641 393.263 628.912 393.833 628.912 393.833L622.038 380.656C622.038 380.656 392.88 376.645 383.143 378.938Z" fill="#B7D8ED"/>
<path id="Forme_14" fill-rule="evenodd" clip-rule="evenodd" d="M403.194 373.591L398.611 384.285H403.576L414.27 373.591" fill="#306DF8"/>
<path id="Forme_75" fill-rule="evenodd" clip-rule="evenodd" d="M417.724 373.591H411.2L400.897 379.988L396.51 386.385H403.423L417.724 373.591Z" fill="#224299"/>
<path id="Forme_13" fill-rule="evenodd" clip-rule="evenodd" d="M403.576 324.322C403.576 324.322 366.85 336.101 361.564 353.731C356.278 371.361 364.177 372 368.057 373.209C371.936 374.417 604.221 376.78 618.79 374.546C634.513 365.441 652.915 338.774 622.421 322.031" fill="#1848CC"/>
<path id="Forme_12" fill-rule="evenodd" clip-rule="evenodd" d="M632.59 279.778C632.59 279.778 414.719 270.347 398.401 283.878C382.083 297.409 391.465 326.108 406.561 327.748C421.657 329.388 592.123 338.16 635.024 330.433C647.736 314.509 632.59 279.778 632.59 279.778Z" fill="#3163EC"/>
<path id="Oval_2" d="M429.751 307.922C431.228 307.922 432.425 306.725 432.425 305.249C432.425 303.772 431.228 302.575 429.751 302.575C428.275 302.575 427.078 303.772 427.078 305.249C427.078 306.725 428.275 307.922 429.751 307.922Z" fill="#588BFF"/>
<path id="Ellipse_1_copie" d="M466.534 307.734C468.01 307.734 469.206 306.538 469.206 305.061C469.206 303.585 468.01 302.389 466.534 302.389C465.057 302.389 463.861 303.585 463.861 305.061C463.861 306.538 465.057 307.734 466.534 307.734Z" fill="#588BFF"/>
</g>
<path id="table" fill-rule="evenodd" clip-rule="evenodd" d="M525.6 450.6L345.689 321.675C338.332 316.362 328.366 316.527 321.189 322.081L156 449.918C168.523 450.6 203.674 450.6 223.082 450.461L334.134 363.962L452.834 450.6C461.542 450.461 505.43 450.6 525.6 450.6Z" fill="#00CD93"/>
<g id="batiment">
<rect id="Rectangle_arrondi_13_copie_2_2" x="118.372" y="46.8049" width="13.7973" height="23.587" rx="2.75" fill="#C5DFF1"/>
<path id="Rectangle_arrondi_13_copie_3_2" fill-rule="evenodd" clip-rule="evenodd" d="M144.285 46.8049H152.844C153.536 46.8052 154.2 47.0816 154.689 47.5732C155.178 48.0647 155.452 48.7312 155.451 49.4257V67.7712C155.452 68.4656 155.178 69.132 154.689 69.6236C154.2 70.1151 153.536 70.3915 152.844 70.392H144.285C142.843 70.392 141.673 69.2186 141.673 67.7712V49.4257C141.673 47.9783 142.843 46.8049 144.285 46.8049Z" fill="#C5DFF1"/>
<rect id="Rectangle_arrondi_13_copie_2_3" x="141.654" y="85.8049" width="13.7973" height="23.587" rx="2.75" fill="#C5DFF1"/>
<path id="Rectangle_arrondi_13_copie_3_3" fill-rule="evenodd" clip-rule="evenodd" d="M120.966 85.8049H129.525C130.217 85.8052 130.881 86.0816 131.37 86.5732C131.859 87.0647 132.133 87.7312 132.132 88.4257V106.771C132.133 107.466 131.859 108.132 131.37 108.624C130.881 109.115 130.217 109.392 129.525 109.392H120.966C119.523 109.392 118.354 108.219 118.354 106.771V88.4257C118.354 86.9783 119.523 85.8049 120.966 85.8049Z" fill="#C5DFF1"/>
<rect id="Rectangle_arrondi_13_copie_2_4" x="118.372" y="125.805" width="13.7973" height="23.587" rx="2.75" fill="#C5DFF1"/>
<path id="Rectangle_arrondi_13_copie_3_4" fill-rule="evenodd" clip-rule="evenodd" d="M144.285 125.805H152.844C153.536 125.805 154.2 126.082 154.689 126.573C155.178 127.065 155.452 127.731 155.451 128.426V146.771C155.452 147.466 155.178 148.132 154.689 148.624C154.2 149.115 153.536 149.392 152.844 149.392H144.285C142.843 149.392 141.673 148.219 141.673 146.771V128.426C141.673 126.978 142.843 125.805 144.285 125.805Z" fill="#C5DFF1"/>
<rect id="Rectangle_arrondi_13_copie_2_5" x="141.654" y="166.805" width="13.7973" height="23.587" rx="2.75" fill="#C5DFF1"/>
<path id="Rectangle_arrondi_13_copie_3_5" fill-rule="evenodd" clip-rule="evenodd" d="M120.966 166.805H129.525C130.217 166.805 130.881 167.082 131.37 167.573C131.859 168.065 132.133 168.731 132.132 169.426V187.771C132.133 188.466 131.859 189.132 131.37 189.624C130.881 190.115 130.217 190.392 129.525 190.392H120.966C119.523 190.392 118.354 189.219 118.354 187.771V169.426C118.354 167.978 119.523 166.805 120.966 166.805Z" fill="#C5DFF1"/>
<path id="Rectangle_arrondi_13_copie_5-4_5" fill-rule="evenodd" clip-rule="evenodd" d="M4.96897 201.254H13.5276C14.2199 201.255 14.8836 201.531 15.3726 202.023C15.8617 202.514 16.1359 203.181 16.1349 203.875V222.221C16.1359 222.915 15.8617 223.581 15.3726 224.073C14.8836 224.565 14.2199 224.841 13.5276 224.841H4.96897C3.52611 224.841 2.35645 223.668 2.35645 222.221V203.875C2.35645 202.428 3.52611 201.254 4.96897 201.254Z" fill="#C5DFF1"/>
<rect id="Rectangle_arrondi_13_copie_5-5_3" x="25.6548" y="201.254" width="13.7837" height="23.587" rx="2.75" fill="#C5DFF1"/>
<rect id="Rectangle_arrondi_13_copie_8_2" x="48.645" y="202.409" width="13.7837" height="23.587" rx="2.75" fill="#C5DFF1"/>
<rect id="Rectangle_arrondi_13_copie_9_2" x="72.1577" y="202.409" width="13.7837" height="23.587" rx="2.75" fill="#C5DFF1"/>
<rect id="Rectangle_arrondi_13_copie_10_2" x="95.6709" y="202.409" width="13.7837" height="23.587" rx="2.75" fill="#C5DFF1"/>
<path id="Rectangle_arrondi_13_copie_3_6" fill-rule="evenodd" clip-rule="evenodd" d="M120.966 202.805H129.525C130.217 202.805 130.881 203.082 131.37 203.573C131.859 204.065 132.133 204.731 132.132 205.426V223.771C132.133 224.466 131.859 225.132 131.37 225.624C130.881 226.115 130.217 226.392 129.525 226.392H120.966C119.523 226.392 118.354 225.219 118.354 223.771V205.426C118.354 203.978 119.523 202.805 120.966 202.805Z" fill="#C5DFF1"/>
<path id="Rectangle_arrondi_13_copie_3_7" fill-rule="evenodd" clip-rule="evenodd" d="M143.966 202.805H152.525C153.217 202.805 153.881 203.082 154.37 203.573C154.859 204.065 155.133 204.731 155.132 205.426V223.771C155.133 224.466 154.859 225.132 154.37 225.624C153.881 226.115 153.217 226.392 152.525 226.392H143.966C142.523 226.392 141.354 225.219 141.354 223.771V205.426C141.354 203.978 142.523 202.805 143.966 202.805Z" fill="#C5DFF1"/>
<path id="Rectangle_arrondi_13_copie_5-4_6" fill-rule="evenodd" clip-rule="evenodd" d="M120.966 241.254H129.525C130.217 241.255 130.881 241.531 131.37 242.023C131.859 242.514 132.133 243.181 132.132 243.875V262.221C132.133 262.915 131.859 263.581 131.37 264.073C130.881 264.565 130.217 264.841 129.525 264.841H120.966C119.523 264.841 118.354 263.668 118.354 262.221V243.875C118.354 242.428 119.523 241.254 120.966 241.254Z" fill="#DFECF7"/>
<path id="Rectangle_arrondi_13_copie_5-4_7" fill-rule="evenodd" clip-rule="evenodd" d="M143.966 241.254H152.525C153.217 241.255 153.881 241.531 154.37 242.023C154.859 242.514 155.133 243.181 155.132 243.875V262.221C155.133 262.915 154.859 263.581 154.37 264.073C153.881 264.565 153.217 264.841 152.525 264.841H143.966C142.523 264.841 141.354 263.668 141.354 262.221V243.875C141.354 242.428 142.523 241.254 143.966 241.254Z" fill="#DFECF7"/>
<rect id="Rectangle_arrondi_13_copie_5-5_4" x="95.0547" y="241.254" width="13.7837" height="23.587" rx="2.75" fill="#D7EAF7"/>
<rect id="Rectangle_arrondi_13_copie_8_3" x="72.0645" y="242.409" width="13.7837" height="23.587" rx="2.75" fill="#D7EAF7"/>
<rect id="Rectangle_arrondi_13_copie_9_3" x="48.5518" y="242.409" width="13.7837" height="23.587" rx="2.75" fill="#D7EAF7"/>
<rect id="Rectangle_arrondi_13_copie_10_3" x="25.0391" y="242.409" width="13.7837" height="23.587" rx="2.75" fill="#D7EAF7"/>
<path id="Rectangle_arrondi_13_copie_3_8" fill-rule="evenodd" clip-rule="evenodd" d="M4.96897 240.805H13.5276C14.2199 240.805 14.8837 241.082 15.3728 241.573C15.8618 242.065 16.136 242.731 16.1349 243.426V261.771C16.1359 262.466 15.8617 263.132 15.3726 263.624C14.8836 264.115 14.2199 264.392 13.5276 264.392H4.96897C3.52611 264.392 2.35645 263.219 2.35645 261.771V243.426C2.35645 241.978 3.52611 240.805 4.96897 240.805Z" fill="#D7EAF7"/>
<path id="Rectangle_arrondi_13_copie_5-4_8" fill-rule="evenodd" clip-rule="evenodd" d="M4.96897 281.254H13.5276C14.2199 281.255 14.8836 281.531 15.3726 282.023C15.8617 282.514 16.1359 283.181 16.1349 283.875V302.221C16.1359 302.915 15.8617 303.581 15.3726 304.073C14.8836 304.565 14.2199 304.841 13.5276 304.841H4.96897C3.52611 304.841 2.35645 303.668 2.35645 302.221V283.875C2.35645 282.428 3.52611 281.254 4.96897 281.254Z" fill="#DFEDF7"/>
<rect id="Rectangle_arrondi_13_copie_5-5_5" x="25.6548" y="281.254" width="13.7837" height="23.587" rx="2.75" fill="#DFEDF7"/>
<rect id="Rectangle_arrondi_13_copie_8_4" x="48.645" y="282.409" width="13.7837" height="23.587" rx="2.75" fill="#DFEDF7"/>
<rect id="Rectangle_arrondi_13_copie_9_4" x="72.1577" y="282.409" width="13.7837" height="23.587" rx="2.75" fill="#DFEDF7"/>
<rect id="Rectangle_arrondi_13_copie_10_4" x="95.6709" y="282.409" width="13.7837" height="23.587" rx="2.75" fill="#DFEDF7"/>
<path id="Rectangle_arrondi_13_copie_3_9" fill-rule="evenodd" clip-rule="evenodd" d="M120.966 282.805H129.525C130.217 282.805 130.881 283.082 131.37 283.573C131.859 284.065 132.133 284.731 132.132 285.426V303.771C132.133 304.466 131.859 305.132 131.37 305.624C130.881 306.115 130.217 306.392 129.525 306.392H120.966C119.523 306.392 118.354 305.219 118.354 303.771V285.426C118.354 283.978 119.523 282.805 120.966 282.805Z" fill="#DFEDF7"/>
<path id="Rectangle_arrondi_13_copie_3_10" fill-rule="evenodd" clip-rule="evenodd" d="M143.966 282.805H152.525C153.217 282.805 153.881 283.082 154.37 283.573C154.859 284.065 155.133 284.731 155.132 285.426V303.771C155.133 304.466 154.859 305.132 154.37 305.624C153.881 306.115 153.217 306.392 152.525 306.392H143.966C142.523 306.392 141.354 305.219 141.354 303.771V285.426C141.354 283.978 142.523 282.805 143.966 282.805Z" fill="#DFEDF7"/>
<path id="Path 15" d="M141.776 29.5078H169.776V308.508" stroke="#C5DFF1" stroke-width="4"/>
</g>
<g id="girl">
<path id="Forme_1092" opacity="0.57" fill-rule="evenodd" clip-rule="evenodd" d="M161.91 244.312L207.84 156.279L292.656 244.312C292.656 244.312 235.524 271.861 205.578 279.281C175.632 286.7 185.919 270.757 185.919 270.757" fill="url(#paint0_linear)"/>
<path id="Forme_1092_2" opacity="0.57" fill-rule="evenodd" clip-rule="evenodd" d="M161.91 244.312L207.84 156.279L292.656 244.312C292.656 244.312 235.524 271.861 205.578 279.281C175.632 286.7 185.919 270.757 185.919 270.757" fill="url(#paint1_linear)"/>
<g id="face">
<path id="face-2" fill-rule="evenodd" clip-rule="evenodd" d="M218.992 148.359C228.642 143.846 241.936 151.839 248.684 166.21C255.432 180.58 253.079 195.89 243.428 200.404C233.778 204.918 220.484 196.924 213.738 182.554C206.991 168.183 209.343 152.873 218.992 148.359Z" fill="#E49F56"/>
<path id="Path" fill-rule="evenodd" clip-rule="evenodd" d="M224.468 176.372C224.996 176.1 226.261 177.263 227.293 178.969C228.325 180.676 228.733 182.28 228.205 182.551C227.677 182.823 226.412 181.661 225.38 179.954C224.348 178.248 223.939 176.644 224.468 176.372Z" fill="#041766"/>
<path id="Ellipse_18_copie" fill-rule="evenodd" clip-rule="evenodd" d="M215.418 179.159C215.947 178.887 217.21 180.05 218.243 181.756C219.275 183.463 219.683 185.066 219.154 185.34C218.626 185.614 217.361 184.449 216.33 182.743C215.298 181.037 214.889 179.431 215.418 179.159Z" fill="#041766"/>
<path id="Path_2" fill-rule="evenodd" clip-rule="evenodd" d="M221.309 169.22C224.211 167.715 228.785 170.789 231.526 176.086C234.267 181.382 234.136 186.895 231.234 188.399C228.333 189.904 223.758 186.83 221.017 181.533C218.276 176.237 218.407 170.724 221.309 169.22Z" stroke="#041766" stroke-width="1.3824" stroke-linecap="round"/>
<path id="Ellipse_19_copie" fill-rule="evenodd" clip-rule="evenodd" d="M210.171 172.702C213.073 171.198 217.646 174.272 220.387 179.568C223.128 184.864 222.997 190.378 220.096 191.882C217.195 193.386 212.62 190.312 209.879 185.016C207.137 179.72 207.269 174.208 210.171 172.702Z" stroke="#041766" stroke-width="1.3824" stroke-linecap="round"/>
<path id="Forme_67" d="M231.67 175.967C231.67 175.967 242.247 159.474 253.937 162.398" stroke="#041766" stroke-width="1.3824" stroke-linecap="round"/>
<path id="Forme_68" fill-rule="evenodd" clip-rule="evenodd" d="M230.457 194.206C230.457 194.206 238.128 190.765 236.372 183.768C237.594 184.634 243.145 198.28 230.457 194.206Z" fill="#A15E18"/>
</g>
<path id="arm_right" fill-rule="evenodd" clip-rule="evenodd" d="M306.64 287.187C306.64 287.187 328.114 307.97 322.432 320.379C316.75 332.787 284.529 344.088 284.529 344.088" fill="#E05771"/>
<path id="BODY" fill-rule="evenodd" clip-rule="evenodd" d="M247.418 211.315C261.827 202.704 270.714 204.113 281.743 226.772C292.773 249.43 337.412 305.051 272.999 350.31C261.979 329.975 243.887 323.983 239.829 324.721C235.77 325.459 239.739 298.461 233.994 278.492C228.249 258.523 233.007 219.927 247.418 211.315Z" fill="#F15D79"/>
<g id="tablette">
<path id="Forme_1090" fill-rule="evenodd" clip-rule="evenodd" d="M160.866 244.66L195.313 282.587L224.542 276.324L191.834 240.484L160.866 244.66Z" fill="white" stroke="#041766" stroke-width="2.7648" stroke-linecap="round" stroke-linejoin="round"/>
<path id="Path_3" fill-rule="evenodd" clip-rule="evenodd" d="M191.138 244.312L168.173 247.792L174.436 253.707L196.705 249.879L191.138 244.312Z" fill="#D8DFFF"/>
<path id="Rectangle_6_copie" fill-rule="evenodd" clip-rule="evenodd" d="M198.445 252.315L175.48 255.795L181.743 261.71L204.012 257.882L198.445 252.315Z" fill="#D8DFFF"/>
<path id="Rectangle_6_copie_2" fill-rule="evenodd" clip-rule="evenodd" d="M206.448 261.362L183.483 264.841L189.746 270.757L212.015 266.929L206.448 261.362Z" fill="#D8DFFF"/>
<g id="Forme_1091_copie_2">
<path fill-rule="evenodd" clip-rule="evenodd" d="M172 250.322L173.286 251.718L178.003 247" fill="#D8DFFF"/>
<path d="M172 250.322L173.286 251.718L178.003 247" stroke="#00C997" stroke-width="1.8432" stroke-linecap="round" stroke-linejoin="round"/>
</g>
<g id="Forme_1091_copie_2 Copy">
<path fill-rule="evenodd" clip-rule="evenodd" d="M179 258.322L180.286 259.718L185.003 255" fill="#D8DFFF"/>
<path d="M179 258.322L180.286 259.718L185.003 255" stroke="#00C997" stroke-width="1.8432" stroke-linecap="round" stroke-linejoin="round"/>
</g>
<g id="Forme_1091_copie_2 Copy 2">
<path fill-rule="evenodd" clip-rule="evenodd" d="M187 267.322L188.286 268.718L193.003 264" fill="#D8DFFF"/>
<path d="M187 267.322L188.286 268.718L193.003 264" stroke="#00C997" stroke-width="1.8432" stroke-linecap="round" stroke-linejoin="round"/>
</g>
</g>
<path id="hand" fill-rule="evenodd" clip-rule="evenodd" d="M199.138 278.203C199.138 278.203 195.418 274.908 190.258 273.892C185.098 272.876 181.079 274.132 181.041 276.387C181.002 278.641 194.914 284.264 196.789 285.026" fill="#E49F56"/>
<path id="arm" fill-rule="evenodd" clip-rule="evenodd" d="M267.158 270.589C267.158 270.589 250.901 323.364 193.921 284.327C192.568 284.163 197.749 277.716 197.749 277.716C197.749 277.716 232.478 293.144 235.572 232.655" fill="#F15D79"/>
<path id="Forme_92" d="M237.477 299.303C237.477 299.303 259.839 298.186 267.411 274.222" stroke="white" stroke-width="1.6" stroke-linecap="round"/>
<path id="Forme_65" fill-rule="evenodd" clip-rule="evenodd" d="M198.481 357.597C198.481 357.597 137.881 443.024 122.79 462.31C121.434 467.869 131.457 469.249 131.457 469.249C131.457 469.249 256.82 376.546 265.248 364.265" fill="#000F4C"/>
<path id="pant" fill-rule="evenodd" clip-rule="evenodd" d="M301.112 318.799C301.112 318.799 285.762 373.814 244.179 376.34C222.858 378.345 184.322 355.484 176.649 348.386C184.423 369.211 186.583 395.669 186.583 395.669L175.915 400.99C175.915 400.99 139.362 371.744 130.97 340.278C122.577 308.813 135.761 301.265 237.913 312.452C279.032 328.827 301.112 318.799 301.112 318.799Z" fill="#041766"/>
<path id="Forme_93" d="M306.396 286.411C306.396 286.411 310.061 306.558 287.6 347.728C260.154 390.707 219.67 372.36 219.67 372.36" stroke="white" stroke-width="1.6" stroke-linecap="round"/>
<path id="feet" fill-rule="evenodd" clip-rule="evenodd" d="M185.038 396.25L195.303 411.265C195.303 411.265 185.957 427.236 167.665 431.022C149.373 434.807 171.447 420.506 174.773 412.845C178.1 405.183 175.563 400.99 175.563 400.99L185.038 396.25Z" fill="#FFD800"/>
<path id="hair" fill-rule="evenodd" clip-rule="evenodd" d="M200.849 138.725C200.849 138.725 182.195 169.016 217.429 166.869C252.662 164.721 246.648 166.998 244.83 175.554C243.013 184.111 235.175 202.883 243.889 208.734C252.603 214.584 273.373 225.073 277.138 261.859C280.904 298.645 361.268 296.655 343.866 248.734C326.465 200.814 272.125 218.424 276.561 170.921C280.997 123.419 220.954 114.404 200.849 138.725Z" fill="#041766"/>
</g>
</g>
</g>
<g id="doc">
<rect id="Rectangle_arrondi_1026" x="318.135" y="107" width="77.9843" height="108.6" rx="4.64814" fill="#BFD9EF"/>
<path id="Forme_1052" d="M367.508 211.287C367.508 211.287 376.506 190.813 372.21 196.388C367.915 201.964 365.938 213.718 374.17 207.366C382.402 201.015 386.318 201.485 386.318 201.485L372.21 210.895L384.751 208.152" stroke="white" stroke-width="1.39444" stroke-linecap="round" stroke-linejoin="round"/>
<rect id="Rectangle_arrondi_1033" x="325.973" y="126.998" width="63.0928" height="3.52693" rx="1.39444" fill="white"/>
<rect id="Rectangle_arrondi_1034" x="325.581" y="137.653" width="63.5827" height="40.2415" rx="1.39444" fill="white"/>
<rect id="Rectangle_arrondi_1034_copie" x="325.483" y="112.486" width="19.79" height="7.64168" rx="1.39444" fill="white"/>
<rect id="Rectangle_arrondi_1034_copie_2" x="325.483" y="183.062" width="19.79" height="7.64168" rx="1.39444" fill="white"/>
<rect id="Rectangle_arrondi_1034_copie_3" x="347.82" y="183.062" width="19.79" height="7.64168" rx="1.39444" fill="white"/>
<rect id="Rectangle_arrondi_1034_copie_4" x="369.374" y="183.062" width="19.79" height="7.64168" rx="1.39444" fill="white"/>
<path id="key" fill-rule="evenodd" clip-rule="evenodd" d="M381.206 166.927C380.979 166.577 380.512 166.477 380.164 166.703C379.815 166.93 379.717 167.397 379.944 167.747C380.172 168.097 380.638 168.197 380.987 167.971C381.335 167.744 381.433 167.277 381.206 166.927ZM383.263 166.642C383.838 167.526 383.814 168.621 383.3 169.462L386.185 173.904L386.02 175.513L384.018 174.71L384.132 173.735L383.195 173.443L383.309 172.468L382.372 172.176L381.408 170.691C380.431 170.818 379.421 170.394 378.847 169.51C378.052 168.285 378.396 166.651 379.615 165.859C380.835 165.067 382.468 165.417 383.263 166.642Z" fill="#FFD700"/>
<path id="Forme_28_copie_4" d="M332.354 154.161L333.94 155.65L337.413 151.595" stroke="#00C997" stroke-width="1.85926" stroke-linecap="round"/>
<path id="Forme_28_copie_5" d="M331.962 161.218L333.548 162.708L337.021 158.652" stroke="#00C997" stroke-width="1.85926" stroke-linecap="round"/>
<path id="Forme_28_copie_6" d="M331.962 168.276L333.548 169.765L337.021 165.709" stroke="#00C997" stroke-width="1.85926" stroke-linecap="round"/>
<g id="croix">
<path id="Line 3" d="M332.901 142.971L336.693 147.605" stroke="#FF4E77" stroke-width="1.68506" stroke-linecap="round"/>
<path id="Line 3_2" d="M336.801 142.971L333.009 147.605" stroke="#FF4E77" stroke-width="1.68506" stroke-linecap="round"/>
</g>
</g>
<g id="message_right_copie_2">
<path id="Rectangle_arrondi_7_copie" fill-rule="evenodd" clip-rule="evenodd" d="M258.48 94H294.32C296.241 94 297.799 95.5579 297.799 97.4796V110.512C297.799 112.433 296.241 113.991 294.32 113.991H258.48C256.558 113.991 255 112.433 255 110.512V97.4796C255 95.5579 256.558 94 258.48 94Z" fill="#D9EBFB"/>
<path id="Forme_61_copie" fill-rule="evenodd" clip-rule="evenodd" d="M270.224 111.635C270.224 111.635 268.39 117.147 266.045 117.634C263.699 118.121 271.856 119.23 276.306 112.385" fill="#D9EBFB"/>
<path id="Rectangle_arrondi_8" fill-rule="evenodd" clip-rule="evenodd" d="M261.747 98.9358H284.027C284.507 98.9358 284.897 99.3253 284.897 99.8057V100.734C284.897 101.214 284.507 101.604 284.027 101.604H261.747C261.267 101.604 260.877 101.214 260.877 100.734V99.8057C260.877 99.3253 261.267 98.9358 261.747 98.9358Z" fill="white"/>
<path id="Rectangle_arrondi_8_copie" fill-rule="evenodd" clip-rule="evenodd" d="M261.747 105.34H268.011C268.491 105.34 268.88 105.73 268.88 106.21V107.127C268.88 107.608 268.491 107.997 268.011 107.997H261.747C261.267 107.997 260.877 107.608 260.877 107.127V106.21C260.877 105.73 261.267 105.34 261.747 105.34V105.34Z" fill="white"/>
<path id="Rectangle_arrondi_8_copie_2" fill-rule="evenodd" clip-rule="evenodd" d="M271.365 105.34H286.692C287.173 105.34 287.562 105.73 287.562 106.21V107.127C287.562 107.608 287.173 107.997 286.692 107.997H271.365C270.885 107.997 270.495 107.608 270.495 107.127V106.21C270.495 105.98 270.587 105.758 270.75 105.595C270.913 105.432 271.134 105.34 271.365 105.34V105.34Z" fill="white"/>
</g>
<g id="Flower">
<path id="Forme_82" fill-rule="evenodd" clip-rule="evenodd" d="M24.7573 403.665C24.7573 403.665 -8.90393 356.403 33.0352 349.986C74.9743 343.57 33.5328 433.593 33.5328 433.593" fill="#B3CCE2"/>
<path id="Forme_83" fill-rule="evenodd" clip-rule="evenodd" d="M43.3866 426.032C43.3866 426.032 47.2419 366.448 56.842 374.59C66.4421 382.733 52.2351 401.362 65.6383 399.751C79.0416 398.14 77.6811 417.65 64.6014 424.915" fill="#B3CCE2"/>
<path id="Forme_81" fill-rule="evenodd" clip-rule="evenodd" d="M26.7509 435.302C26.7509 435.302 1.96948 384.629 16.2705 379.702C30.5715 374.775 35.9439 402.656 37.6698 414.57C39.3956 426.484 26.5143 305.041 45.9685 321.277C65.4227 337.512 39.1764 407.263 51.6472 415.04C64.1179 422.817 64.2049 398.022 72.6115 404.205C81.0181 410.388 85.0196 423.729 68.276 435.566" fill="#D9EBFB"/>
</g>
<g id="LAMPE_">
<path id="fil" d="M258.009 4.00342L257.619 38.3119" stroke="#BFD9EF" stroke-width="1.8432"/>
<path id="Forme_10" fill-rule="evenodd" clip-rule="evenodd" d="M297.158 61.7156C297.158 61.7156 253.592 76.4251 232.806 56.6724C272.393 38.4858 297.158 61.7156 297.158 61.7156Z" fill="white"/>
<g id="Forme_11">
<path id="Mask_3" fill-rule="evenodd" clip-rule="evenodd" d="M227.58 58.5155C256.572 18.9031 291.469 46.8513 297.171 61.3732C272.015 44.2235 213.244 86.8439 227.58 58.5155Z" fill="#D9EBFB"/>
<mask id="mask1" mask-type="alpha" maskUnits="userSpaceOnUse" x="225" y="38" width="73" height="31">
<path id="Mask_4" fill-rule="evenodd" clip-rule="evenodd" d="M227.58 58.5155C256.572 18.9031 291.469 46.8513 297.171 61.3732C272.015 44.2235 213.244 86.8439 227.58 58.5155Z" fill="white"/>
</mask>
<g mask="url(#mask1)">
<path id="Forme_11_2" fill-rule="evenodd" clip-rule="evenodd" d="M265.934 36.0871C265.934 36.0871 238.871 44.7307 235.87 65.7135C232.869 86.6963 220.275 69.1878 220.275 69.1878L229.454 38.0186C229.454 38.0186 254.038 30.34 265.934 36.0871Z" fill="#BFD9EF"/>
</g>
</g>
</g>
<g id="dossier_check">
<rect id="Rectangle_arrondi_2" x="71.4307" y="168.132" width="37" height="22.8889" rx="4.608" fill="#00C997"/>
<g id="check">
<path id="Oval_3" d="M89.0285 185.106C91.8601 185.106 94.1556 182.813 94.1556 179.984C94.1556 177.156 91.8601 174.863 89.0285 174.863C86.1969 174.863 83.9014 177.156 83.9014 179.984C83.9014 182.813 86.1969 185.106 89.0285 185.106Z" fill="white"/>
<path id="Forme_22" d="M88.8325 177.082L90.7901 179.583L97.5238 173.832" stroke="#041766" stroke-width="2.304" stroke-linecap="round"/>
</g>
<rect id="Rectangle_arrondi_2_copie_3" x="71.4307" y="127.513" width="37" height="22.8889" rx="4.608" fill="#4373F7"/>
<g id="check-2">
<path id="Ellipse_6_copie" d="M89.0285 144.552C91.8601 144.552 94.1556 142.256 94.1556 139.425C94.1556 136.593 91.8601 134.298 89.0285 134.298C86.1969 134.298 83.9014 136.593 83.9014 139.425C83.9014 142.256 86.1969 144.552 89.0285 144.552Z" fill="white"/>
<path id="Forme_22_copie" d="M88.8325 136.516L90.7901 139.018L97.5238 133.266" stroke="#041766" stroke-width="2.304" stroke-linecap="round"/>
</g>
</g>
</g>
</g>
<defs>
<linearGradient id="paint0_linear" x1="292.656" y1="281.637" x2="161.91" y2="281.637" gradientUnits="userSpaceOnUse">
<stop offset="0.403637" stop-color="white" stop-opacity="0.01"/>
<stop offset="1" stop-color="white"/>
</linearGradient>
<linearGradient id="paint1_linear" x1="292.656" y1="281.637" x2="161.91" y2="281.637" gradientUnits="userSpaceOnUse">
<stop offset="0.403637" stop-color="white" stop-opacity="0.01"/>
<stop offset="1" stop-color="white"/>
</linearGradient>
</defs>
</svg>
