<svg width="462" height="345" viewBox="0 0 462 345" fill="none" xmlns="http://www.w3.org/2000/svg">
<g id="illus-adminBailleur-teamwork">
<g id="fauteuil">
<path id="Mask" fill-rule="evenodd" clip-rule="evenodd" d="M432.643 168.572C501.831 236.589 429.859 329.543 405.293 343.016C374.118 343.016 39.309 341.753 39.309 341.753C45.2568 341.934 90.4916 298.012 25.0969 219.31C-40.2978 140.608 25.1433 119.626 186.022 33.5489C323.144 -72.448 363.459 100.553 432.643 168.572Z" fill="#EDF7FF"/>
<mask id="mask0" mask-type="alpha" maskUnits="userSpaceOnUse" x="0" y="0" width="462" height="344">
<path id="Mask_2" fill-rule="evenodd" clip-rule="evenodd" d="M432.643 168.572C501.831 236.589 429.859 329.543 405.293 343.016C374.118 343.016 39.309 341.753 39.309 341.753C45.2568 341.934 90.4916 298.012 25.0969 219.31C-40.2978 140.608 25.1433 119.626 186.022 33.5489C323.144 -72.448 363.459 100.553 432.643 168.572Z" fill="white"/>
</mask>
<g mask="url(#mask0)">
<g id="fauteuil_2">
<path id="Forme_17" fill-rule="evenodd" clip-rule="evenodd" d="M396.855 283.839C388.189 285.885 372.438 294.578 383.088 295.603C393.739 296.629 615.601 297.138 615.601 297.138L609.483 285.373C609.483 285.373 405.522 281.791 396.855 283.839Z" fill="#B7D8ED"/>
<path id="Forme_14" fill-rule="evenodd" clip-rule="evenodd" d="M414.702 279.065L410.623 288.613H415.042L424.56 279.065" fill="#306DF8"/>
<path id="Forme_75" fill-rule="evenodd" clip-rule="evenodd" d="M427.634 279.065H421.827L412.658 284.777L408.753 290.488H414.905L427.634 279.065Z" fill="#224299"/>
<path id="Forme_13" fill-rule="evenodd" clip-rule="evenodd" d="M415.042 235.075C415.042 235.075 382.354 245.591 377.649 261.332C372.944 277.073 379.975 277.645 383.428 278.724C386.881 279.802 593.625 281.912 606.592 279.917C620.586 271.788 636.964 247.978 609.824 233.029" fill="#1848CC"/>
<path id="Forme_12" fill-rule="evenodd" clip-rule="evenodd" d="M618.874 195.303C618.874 195.303 424.96 186.882 410.436 198.964C395.912 211.045 404.262 236.669 417.698 238.133C431.134 239.598 582.857 247.43 621.041 240.531C632.355 226.313 618.874 195.303 618.874 195.303Z" fill="#3163EC"/>
<path id="Oval" d="M438.339 220.432C439.653 220.432 440.718 219.363 440.718 218.045C440.718 216.726 439.653 215.658 438.339 215.658C437.024 215.658 435.959 216.726 435.959 218.045C435.959 219.363 437.024 220.432 438.339 220.432Z" fill="#588BFF"/>
</g>
<g id="leg_men">
<path id="pant_rigt" fill-rule="evenodd" clip-rule="evenodd" d="M290.794 276.097L257.12 275.537C257.12 275.537 248.58 313.09 250.205 339.815C251.83 366.54 318.852 420.326 318.852 420.326L323.341 412.469C323.341 412.469 298.943 376.44 290.794 345.125C282.645 313.811 293.039 286.761 293.039 286.761" fill="#000F4C"/>
<path id="pant_left" fill-rule="evenodd" clip-rule="evenodd" d="M326.709 269.925C326.709 269.925 312.094 395.252 302.577 434.354C298.849 439.489 290.794 433.794 290.794 433.794C290.794 433.794 276.135 341.437 282.374 282.271C288.614 223.105 326.709 269.925 326.709 269.925Z" fill="#041766"/>
<path id="Forme_91" d="M280.691 315.943C280.691 315.943 278.02 347.587 285.18 394.51" stroke="white" stroke-width="0.691459" stroke-linecap="round"/>
</g>
<path id="logo" fill-rule="evenodd" clip-rule="evenodd" d="M253 275.926L254.1 291.964C254.1 291.964 322.134 296.941 325.973 294.151C329.813 291.361 328.907 269 328.907 269" fill="#FFD800"/>
<path id="table" fill-rule="evenodd" clip-rule="evenodd" d="M165 361L286.693 273.626C291.67 270.025 298.411 270.137 303.265 273.901L415 360.538C406.529 361 382.753 361 369.625 360.906L294.509 302.285L214.22 361C208.329 360.906 178.643 361 165 361Z" fill="#00CD93"/>
<path id="Forme_908" d="M194 269.183H386" stroke="#041766" stroke-width="12.8898" stroke-linecap="round"/>
<g id="men">
<path id="neck" fill-rule="evenodd" clip-rule="evenodd" d="M287.229 179.269L292.904 170.046L299.289 169.336L305.674 179.978" fill="#FFE1C1"/>
<path id="face" fill-rule="evenodd" clip-rule="evenodd" d="M300.147 114.191C311.301 116.538 317.592 131.523 314.199 147.667C310.805 163.811 299.012 174.995 287.858 172.65C276.704 170.306 270.412 155.318 273.806 139.175C277.2 123.031 288.993 111.846 300.147 114.191Z" fill="#FFE1C1"/>
<path id="Forme_1312" d="M280.842 162.951C280.842 162.951 287.228 162.951 286.518 157.275" stroke="#EAB781" stroke-width="1.5" stroke-linecap="round"/>
<g id="Eyes">
<path id="Path" fill-rule="evenodd" clip-rule="evenodd" d="M279.689 136.782C280.393 136.918 280.679 138.684 280.325 140.728C279.971 142.772 279.115 144.319 278.413 144.184C277.711 144.048 277.425 142.282 277.777 140.238C278.13 138.194 278.986 136.646 279.689 136.782Z" fill="#041766"/>
<g id="Forme_56">
<path d="M278.004 145.214C278.004 145.214 302.624 143.044 304.964 145.214H278.004Z" fill="black"/>
<path d="M278.004 145.214C278.004 145.214 302.624 143.044 304.964 145.214" stroke="#041766" stroke-width="1.2474"/>
</g>
<path id="Oval_2" fill-rule="evenodd" clip-rule="evenodd" d="M274.804 152.311C276.959 152.311 278.705 147.863 278.705 142.377C278.705 136.89 276.959 132.443 274.804 132.443C272.649 132.443 270.903 136.89 270.903 142.377C270.903 147.863 272.649 152.311 274.804 152.311Z" stroke="#041766" stroke-width="1.5"/>
</g>
<path id="hair" fill-rule="evenodd" clip-rule="evenodd" d="M334.695 136.145C336.097 124.941 336.455 116.001 307.893 113.214C290.897 111.226 281.251 92.0338 268.074 100.517C254.896 109 257.655 120.162 279.22 126.516C300.785 132.871 289.476 147.09 300.926 146.341C312.376 145.591 303.163 153.93 303.163 153.93C303.163 153.93 295.303 167.676 299.476 171.468C303.649 175.26 332.736 151.803 334.695 136.145Z" fill="#041766"/>
<g id="body">
<path id="body-2" fill-rule="evenodd" clip-rule="evenodd" d="M237.51 270.016C237.51 270.016 207.656 270.658 231.29 228.033C254.925 185.409 274.809 177.812 295.816 177.5C316.822 177.188 326.175 180.396 360.342 235.808C386.846 276.039 336.242 270.016 336.242 270.016" fill="#FFD800"/>
<path id="Forme_60" d="M246.788 253.763C246.788 253.763 267.267 252.341 270.91 255.182" stroke="white" stroke-width="1.386" stroke-linecap="round"/>
<path id="Forme_51" d="M261.609 225.294C261.609 225.294 267.572 215.841 267.051 210.522" stroke="white" stroke-width="1.386"/>
<path id="Forme_52" d="M320.762 224.38C320.762 224.38 318.136 223.244 316.875 218.938" stroke="white" stroke-width="1.2474"/>
<path id="Forme_53" d="M333.472 256.935C333.472 256.935 339.2 253.809 347.466 253.825" stroke="white" stroke-width="1.386" stroke-linecap="round"/>
<path id="Forme_54" d="M341.246 253.994L337.36 250.108" stroke="white" stroke-width="1.386" stroke-linecap="round"/>
</g>
<g id="laptop">
<path id="Forme_917" fill-rule="evenodd" clip-rule="evenodd" d="M255.448 275.865L234.915 178.334L352.612 176.501L334.279 276.232" fill="url(#paint0_linear)"/>
<path id="Forme_55" fill-rule="evenodd" clip-rule="evenodd" d="M255.566 277.296L249.626 270.082H340.438L332.563 277.662" fill="#8896D4"/>
<path id="Rectangle_arrondi_5" d="M257.13 219.96H330.771C331.986 219.96 332.971 220.944 332.971 222.159V277.422H254.93V222.159C254.93 220.944 255.915 219.96 257.13 219.96Z" fill="#3163EC"/>
<g id="logo_2">
<path id="Fill 1" fill-rule="evenodd" clip-rule="evenodd" d="M290.705 256.131C290.36 256.131 289.233 256.345 289.003 255.991C288.863 255.776 289.003 254.956 289.003 254.714V251.621V243.472V240.161C289.003 239.809 288.826 238.839 289.003 238.523C289.197 238.176 289.802 238.332 290.166 238.332H293.643H297.591H299.013C299.202 238.332 299.746 238.232 299.913 238.332C300.215 238.512 300.106 238.873 300.106 239.225V241.945V250.883C300.106 251.271 300.344 256.086 299.97 256.131H294.44H290.705ZM302.403 244.236C302.403 242.333 302.501 240.4 302.403 238.499C302.246 235.438 298.962 235.975 296.887 235.975C294.364 235.975 291.814 235.864 289.293 235.975C286.661 236.09 286.706 238.382 286.706 240.385C286.706 245.495 286.565 250.627 286.706 255.735C286.796 258.991 289.984 258.488 292.222 258.488H299.693C299.779 258.498 299.871 258.5 299.97 258.488C300.108 258.488 300.229 258.462 300.341 258.424C302.761 257.897 302.403 255.302 302.403 253.253V244.236Z" fill="white"/>
<path id="Fill 3" fill-rule="evenodd" clip-rule="evenodd" d="M302.399 251.72C302.865 252.08 303.329 252.44 303.794 252.8C304.975 253.714 306.121 251.668 304.954 250.765C304.099 250.103 303.245 249.442 302.391 248.78" fill="white"/>
<g id="Group 7">
<mask id="mask1" mask-type="alpha" maskUnits="userSpaceOnUse" x="283" y="242" width="18" height="11">
<path id="Clip 6" fill-rule="evenodd" clip-rule="evenodd" d="M283.669 242.887H300.101V252.846H283.669V242.887Z" fill="white"/>
</mask>
<g mask="url(#mask1)">
<path id="Fill 5" fill-rule="evenodd" clip-rule="evenodd" d="M300.084 246.994C298.389 245.681 296.694 244.368 294.999 243.055C294.709 242.831 294.129 242.83 293.839 243.055C290.611 245.563 287.383 248.071 284.155 250.579C282.992 251.483 284.135 253.531 285.315 252.615C288.35 250.257 291.385 247.899 294.42 245.541C296.313 247.007 298.207 248.473 300.101 249.94" fill="white"/>
</g>
</g>
<path id="Fill 8" fill-rule="evenodd" clip-rule="evenodd" d="M296.191 252.868C296.191 253.735 295.506 254.438 294.661 254.438C293.816 254.438 293.131 253.735 293.131 252.868C293.131 252.001 293.816 251.298 294.661 251.298C295.506 251.298 296.191 252.001 296.191 252.868Z" fill="white"/>
</g>
</g>
</g>
</g>
</g>
<g id="FENETRE">
<path id="Forme_791" fill-rule="evenodd" clip-rule="evenodd" d="M65.1538 181.476C65.1538 181.476 80.4417 132.209 92.0267 146.541C103.612 160.873 117.168 139.375 125.17 116.085C133.172 92.795 143.469 74.1114 147.009 88.8934C150.595 103.87 148.659 185.913 148.659 185.913L66.1587 185.583" fill="#D9EBFB"/>
<path id="Forme_792" fill-rule="evenodd" clip-rule="evenodd" d="M58.8989 114.633C58.8989 114.633 68.3495 100.41 75.4554 106.68C82.5612 112.95 89.8476 103.993 96.0579 91.4523C102.268 78.9113 98.4989 79.3235 98.4989 79.3235L59.5589 79.9835L58.8989 114.633Z" fill="#D9EBFB"/>
<rect id="Rectangle_787_copie" x="57.9912" y="78.0137" width="92.2555" height="109.282" rx="2.80632" stroke="#041766" stroke-width="3.3"/>
<path id="Forme_789" d="M105.757 78.6602V186.9" stroke="#041766" stroke-width="3.3"/>
<path id="Forme_789_copie" d="M58.4365 130.417H148.437" stroke="#041766" stroke-width="3.3"/>
</g>
<g id="message_right_copie_2">
<rect id="Rectangle_arrondi_7_copie" x="166.909" y="105.715" width="73.9867" height="29.7721" rx="4.4" fill="#BADBF1"/>
<path id="key" fill-rule="evenodd" clip-rule="evenodd" d="M226.406 115.888C226.112 115.435 225.497 115.312 225.034 115.612C224.571 115.913 224.434 116.525 224.728 116.978C225.023 117.431 225.637 117.554 226.1 117.253C226.563 116.953 226.7 116.341 226.406 115.888ZM229.124 115.484C229.867 116.628 229.819 118.058 229.128 119.163L232.864 124.914L232.62 127.016L229.992 126.001L230.158 124.727L228.927 124.36L229.093 123.086L227.861 122.719L226.612 120.796C225.322 120.979 223.997 120.441 223.253 119.296C222.223 117.71 222.703 115.571 224.324 114.519C225.945 113.466 228.094 113.898 229.124 115.484Z" fill="#F2F9FF"/>
<path id="Forme_61_copie" fill-rule="evenodd" clip-rule="evenodd" d="M219.243 134.648C219.243 134.648 221.542 141.538 224.481 142.146C227.421 142.755 217.199 144.141 211.623 135.586" fill="#BADBF1"/>
<rect id="Rectangle_arrondi_8" x="180.468" y="114.35" width="29.7828" height="3.32818" rx="1.1" fill="#EDF7FF"/>
<rect id="Rectangle_arrondi_8_copie" x="180.468" y="122.357" width="9.91422" height="3.31518" rx="1.1" fill="#EDF7FF"/>
<rect id="Rectangle_arrondi_8_copie_2" x="192.381" y="122.357" width="21.1744" height="3.31518" rx="1.1" fill="#EDF7FF"/>
</g>
<g id="locataire">
<g id="Ipad">
<path id="Rectangle_arrondi_3" fill-rule="evenodd" clip-rule="evenodd" d="M177.102 217.263C175.778 216.387 173.996 216.753 173.122 218.081L127.247 287.79C126.828 288.427 126.678 289.206 126.831 289.954C126.984 290.703 127.427 291.359 128.063 291.78L165.631 316.622C166.956 317.498 168.737 317.132 169.611 315.804L215.487 246.095C215.906 245.458 216.056 244.679 215.903 243.931C215.75 243.183 215.306 242.526 214.671 242.106L177.102 217.263Z" fill="#F8F9FF" stroke="#1631A0" stroke-width="1.98"/>
<path id="Forme_1312_2" fill-rule="evenodd" clip-rule="evenodd" d="M178.785 301.75L125.262 241.495L172.937 180.84L214.551 244.095L178.785 301.75Z" fill="url(#paint1_linear)"/>
<path id="Forme_1312_3" fill-rule="evenodd" clip-rule="evenodd" d="M178.785 301.75L125.262 241.495L172.937 180.84L214.551 244.095L178.785 301.75Z" fill="url(#paint2_linear)"/>
<path id="Rectangle_arrondi_4" fill-rule="evenodd" clip-rule="evenodd" d="M204.482 247.404L174.676 228.775C174.217 228.455 173.588 228.567 173.266 229.025L170.226 233.912C169.958 234.403 170.135 235.019 170.623 235.291L200.428 253.92C200.887 254.24 201.517 254.128 201.838 253.67L204.878 248.783C205.147 248.293 204.97 247.676 204.482 247.404Z" fill="#D8DFFF"/>
<path id="Rectangle_arrondi_4_copie" fill-rule="evenodd" clip-rule="evenodd" d="M198.738 256.043L168.93 237.414C168.472 237.094 167.842 237.206 167.52 237.664L164.48 242.551C164.214 243.042 164.392 243.657 164.879 243.928L194.684 262.558C195.143 262.878 195.773 262.766 196.094 262.308L199.134 257.421C199.401 256.93 199.224 256.315 198.738 256.043Z" fill="#D8DFFF"/>
<path id="Rectangle_arrondi_4_copie_2" fill-rule="evenodd" clip-rule="evenodd" d="M192.035 266.602L162.229 247.973C161.77 247.653 161.141 247.765 160.819 248.222L157.779 253.11C157.511 253.601 157.688 254.217 158.175 254.489L187.981 273.118C188.44 273.438 189.07 273.326 189.391 272.868L192.431 267.981C192.7 267.49 192.523 266.874 192.035 266.602Z" fill="#D8DFFF"/>
<path id="Rectangle_arrondi_4_copie_3" fill-rule="evenodd" clip-rule="evenodd" d="M186.289 276.201L156.483 257.572C156.025 257.252 155.395 257.364 155.073 257.821L138.627 284.786C138.358 285.277 138.535 285.894 139.024 286.165L168.83 304.795C169.288 305.114 169.918 305.002 170.239 304.544L186.687 277.58C186.954 277.089 186.777 276.473 186.289 276.201Z" fill="#D8DFFF"/>
<path id="Forme_28" d="M197.269 246.578L198.495 249.627L206.311 245.807" stroke="#00C997" stroke-width="1.584" stroke-linecap="round"/>
<path id="Forme_28_copie" d="M186.862 266.139L188.087 269.188L195.904 265.368" stroke="#00C997" stroke-width="1.584" stroke-linecap="round"/>
<path id="Forme_28_copie_2" d="M191.189 255.355L192.415 258.405L200.231 254.584" stroke="#00C997" stroke-width="1.584" stroke-linecap="round"/>
</g>
<path id="face_2" d="M145.878 234.688C153.893 234.688 160.39 220.345 160.39 202.652C160.39 184.959 153.893 170.615 145.878 170.615C137.863 170.615 131.366 184.959 131.366 202.652C131.366 220.345 137.863 234.688 145.878 234.688Z" fill="#E49F56"/>
<path id="Forme_34" d="M152.314 217.648C152.314 217.648 152.995 220.906 155.316 221.652" stroke="#A15E18" stroke-width="1.26044" stroke-linecap="round"/>
<path id="Hand" fill-rule="evenodd" clip-rule="evenodd" d="M152.039 253.613C152.039 253.613 153.627 236.935 162.501 228.907C171.375 220.879 166.23 231.278 164.826 235.275C163.423 239.271 163.063 240.726 165.474 242.973C167.885 245.22 163.182 250.353 161.022 252.52" fill="#F19C45"/>
<path id="Body" fill-rule="evenodd" clip-rule="evenodd" d="M73.8192 344.008C73.8192 344.008 47.9264 226.531 97.3405 225.674C146.755 224.816 162.079 237.404 165.39 267.716C168.701 298.027 156.884 344.008 156.884 344.008H73.8192Z" fill="#F15D79"/>
<path id="hand" fill-rule="evenodd" clip-rule="evenodd" d="M167.39 283.732C167.39 283.732 164.665 255.109 168.392 256.704C172.118 258.298 170.938 265.583 172.394 269.718C173.849 273.852 185.83 277.018 182.401 282.73C178.973 288.441 179.4 288.736 179.4 288.736" fill="#E49F56"/>
<path id="arm" fill-rule="evenodd" clip-rule="evenodd" d="M130.364 269.718C130.364 269.718 141.559 346.237 171.394 334.782C187.483 324.608 180.4 284.732 180.4 284.732L165.39 281.73" fill="#F15D79"/>
<path id="Forme_33" d="M158.384 334.679C158.384 334.679 148.265 331.557 139.37 297.643" stroke="white" stroke-width="1.5795" stroke-linecap="round"/>
<path id="hair_2" fill-rule="evenodd" clip-rule="evenodd" d="M117.355 162.61C117.355 162.61 90.379 176.017 92.3371 193.641C94.2952 211.266 80.5769 233.78 64.317 240.688C25.7045 262.069 51.5851 296.744 82.3298 302.75C113.074 308.756 143.471 296.281 134.366 262.71C125.262 229.138 127.822 235.988 138.37 229.678C148.918 223.367 133.77 208.111 135.368 198.646C136.967 189.18 147.319 199.009 145.374 191.639C143.429 184.269 145.509 175.701 160.386 185.633C175.263 195.565 187.92 124.574 117.355 162.61Z" fill="#041766"/>
<g id="smile_sunglass">
<path id="Oval_3" fill-rule="evenodd" clip-rule="evenodd" d="M159.386 210.662C162.149 210.662 164.388 205.956 164.388 200.151C164.388 194.346 162.149 189.641 159.386 189.641C156.624 189.641 154.384 194.346 154.384 200.151C154.384 205.956 156.624 210.662 159.386 210.662Z" stroke="#041766" stroke-width="1.5795"/>
<path id="Forme_35" d="M154.382 200.597C154.382 200.597 150.937 194.113 141.114 193.521" stroke="#041766" stroke-width="1.5795" stroke-linecap="round"/>
<path id="Path_2" fill-rule="evenodd" clip-rule="evenodd" d="M157.643 196.622C158.305 196.582 158.932 198.537 159.041 200.99C159.15 203.442 158.704 205.463 158.043 205.504C157.381 205.544 156.756 203.589 156.645 201.136C156.534 198.683 156.982 196.663 157.643 196.622Z" fill="#041766"/>
</g>
</g>
<g id="dossier_check">
<rect id="Rectangle_arrondi_2_copie_7" x="232.693" y="47.3086" width="73.5687" height="24.3078" rx="4.4" fill="#DEEDF9"/>
<rect id="Rectangle_arrondi_2_copie_6" x="195.909" y="59.0367" width="73.5687" height="24.3078" rx="4.4" fill="#3163EC"/>
<g id="check_copie">
<path id="Oval_4" d="M208.449 77.0543C211.45 77.0543 213.883 74.6167 213.883 71.6097C213.883 68.6028 211.45 66.1652 208.449 66.1652C205.448 66.1652 203.015 68.6028 203.015 71.6097C203.015 74.6167 205.448 77.0543 208.449 77.0543Z" fill="white"/>
<path id="Forme_22" d="M208.233 68.5247L210.308 71.1875L217.446 65.0653" stroke="#041766" stroke-width="2.2" stroke-linecap="round"/>
</g>
</g>
<g id="Flower_copie_2">
<path id="Forme_82" fill-rule="evenodd" clip-rule="evenodd" d="M31.5488 308.728C31.5488 308.728 -4.01879 258.578 40.2972 251.768C84.6132 244.959 40.8226 340.48 40.8226 340.48" fill="#3FE5C7"/>
<path id="Forme_83" fill-rule="evenodd" clip-rule="evenodd" d="M51.2329 332.461C51.2329 332.461 55.3068 269.237 65.4492 277.875C75.5917 286.513 60.5824 306.285 74.7448 304.575C88.9072 302.865 87.4684 323.566 73.6509 331.275" fill="#008965"/>
<path id="Forme_81" fill-rule="evenodd" clip-rule="evenodd" d="M33.6566 342.294C33.6566 342.294 7.47278 288.526 22.5795 283.3C37.6861 278.074 43.3672 307.657 45.1935 320.297C47.0197 332.937 33.4058 204.081 53.962 221.306C74.5182 238.532 46.7823 312.543 59.9616 320.797C73.1408 329.05 73.2286 302.741 82.1141 309.298C90.9996 315.854 95.2236 330.015 77.534 342.577" fill="#00C997"/>
</g>
<g id="Forme_80">
<path fill-rule="evenodd" clip-rule="evenodd" d="M13.6045 342.508L177.408 342.809L13.6045 342.508Z" fill="#D9EBFB"/>
<path d="M13.6045 342.508L177.408 342.809" stroke="#041766" stroke-width="3.456" stroke-linecap="round"/>
</g>
<g id="Forme_80 Copy">
<path fill-rule="evenodd" clip-rule="evenodd" d="M231.409 342.809H405.409H231.409Z" fill="#D9EBFB"/>
<path d="M231.409 342.809H405.409" stroke="#041766" stroke-width="3.456" stroke-linecap="round"/>
</g>
<g id="Forme_80 Copy 2">
<path fill-rule="evenodd" clip-rule="evenodd" d="M418.892 342.693L429.355 342.958L418.892 342.693Z" fill="#D9EBFB"/>
<path d="M418.892 342.693L429.355 342.958" stroke="#041766" stroke-width="3.456" stroke-linecap="round"/>
</g>
</g>
<defs>
<linearGradient id="paint0_linear" x1="234.915" y1="176.501" x2="234.915" y2="276.232" gradientUnits="userSpaceOnUse">
<stop offset="0.00810283" stop-color="white" stop-opacity="0.01"/>
<stop offset="1" stop-color="white"/>
</linearGradient>
<linearGradient id="paint1_linear" x1="178.785" y1="301.75" x2="115.817" y2="248.913" gradientUnits="userSpaceOnUse">
<stop stop-color="white" stop-opacity="0.817581"/>
<stop offset="1" stop-color="white" stop-opacity="0.01"/>
</linearGradient>
<linearGradient id="paint2_linear" x1="178.785" y1="301.75" x2="115.817" y2="248.913" gradientUnits="userSpaceOnUse">
<stop stop-color="white" stop-opacity="0.817581"/>
<stop offset="1" stop-color="white" stop-opacity="0.01"/>
</linearGradient>
</defs>
</svg>
