<?xml version="1.0" encoding="utf-8"?>
<!-- Generator: Adobe Illustrator 22.1.0, SVG Export Plug-In . SVG Version: 6.00 Build 0)  -->
<svg version="1.1" xmlns="http://www.w3.org/2000/svg" xmlns:xlink="http://www.w3.org/1999/xlink" x="0px" y="0px"
	 viewBox="0 0 500 500" style="enable-background:new 0 0 500 500;" xml:space="preserve">
<style type="text/css">
	.st0{display:none;}
	.st1{display:inline;}
	.st2{fill:#ECEFF1;}
	.st3{opacity:0.24;clip-path:url(#SVGID_2_);}
	.st4{fill:none;stroke:#CFD8DC;stroke-width:5;stroke-linecap:round;stroke-linejoin:round;stroke-miterlimit:10;}
	.st5{fill:#B0BEC5;}
	.st6{fill:#0097A7;}
	.st7{fill:#00838F;}
	.st8{fill:#FFFFFF;}
	.st9{fill:#455A64;}
	.st10{fill:#546E7A;}
	.st11{fill:#CFD8DC;}
	.st12{fill:none;stroke:#546E7A;stroke-width:1.5;stroke-linecap:round;stroke-linejoin:round;stroke-miterlimit:10;}
	.st13{fill:none;stroke:#546E7A;stroke-width:2;stroke-linecap:round;stroke-linejoin:round;}
	.st14{fill:none;stroke:#546E7A;stroke-width:2;stroke-linecap:round;stroke-linejoin:round;stroke-dasharray:0,6.0688;}
	.st15{fill:none;stroke:#546E7A;stroke-width:2;stroke-linecap:round;stroke-linejoin:round;stroke-dasharray:0,6.0071;}
	.st16{fill:none;stroke:#546E7A;stroke-width:2;stroke-linecap:round;stroke-linejoin:round;stroke-dasharray:0,6.0682;}
	.st17{fill:#26C6DA;}
	.st18{opacity:0.68;fill:#FFFFFF;}
	.st19{fill:none;stroke:#546E7A;stroke-width:2;stroke-miterlimit:10;}
	.st20{fill:none;stroke:#B0BEC5;stroke-width:1.5;stroke-linecap:round;stroke-linejoin:round;stroke-miterlimit:10;}
	.st21{font-family:'Roboto-Bold';}
	.st22{font-size:21.1924px;}
	.st23{font-size:32.5036px;}
	.st24{font-family:'Aller-Bold';}
	.st25{font-size:8.4512px;}
	.st26{fill:none;stroke:#546E7A;stroke-width:4;stroke-linecap:round;stroke-linejoin:round;stroke-miterlimit:10;}
</style>
<g id="BACKGROUND" class="st0">
	<g class="st1">
		<rect class="st2" width="500" height="500"/>
		<g>
			<defs>
				<rect id="SVGID_1_" width="500" height="500"/>
			</defs>
			<clipPath id="SVGID_2_">
				<use xlink:href="#SVGID_1_"  style="overflow:visible;"/>
			</clipPath>
			<g class="st3">
				<line class="st4" x1="-590" y1="0" x2="-215.6" y2="506"/>
				<line class="st4" x1="-575.8" y1="0" x2="-201.4" y2="506"/>
				<line class="st4" x1="-561.6" y1="0" x2="-187.2" y2="506"/>
				<line class="st4" x1="-547.5" y1="0" x2="-173" y2="506"/>
				<line class="st4" x1="-533.3" y1="0" x2="-158.9" y2="506"/>
				<line class="st4" x1="-519.1" y1="0" x2="-144.7" y2="506"/>
				<line class="st4" x1="-504.9" y1="0" x2="-130.5" y2="506"/>
				<line class="st4" x1="-490.8" y1="0" x2="-116.3" y2="506"/>
				<line class="st4" x1="-476.6" y1="0" x2="-102.2" y2="506"/>
				<line class="st4" x1="-462.4" y1="0" x2="-88" y2="506"/>
				<line class="st4" x1="-448.2" y1="0" x2="-73.8" y2="506"/>
				<line class="st4" x1="-434.1" y1="0" x2="-59.6" y2="506"/>
				<line class="st4" x1="-419.9" y1="0" x2="-45.4" y2="506"/>
				<line class="st4" x1="-405.7" y1="0" x2="-31.3" y2="506"/>
				<line class="st4" x1="-391.5" y1="0" x2="-17.1" y2="506"/>
				<line class="st4" x1="-377.4" y1="0" x2="-2.9" y2="506"/>
				<line class="st4" x1="-363.2" y1="0" x2="11.3" y2="506"/>
				<line class="st4" x1="-349" y1="0" x2="25.4" y2="506"/>
				<line class="st4" x1="-334.8" y1="0" x2="39.6" y2="506"/>
				<line class="st4" x1="-320.6" y1="0" x2="53.8" y2="506"/>
				<line class="st4" x1="-306.5" y1="0" x2="68" y2="506"/>
				<line class="st4" x1="-292.3" y1="0" x2="82.1" y2="506"/>
				<line class="st4" x1="-278.1" y1="0" x2="96.3" y2="506"/>
				<line class="st4" x1="-263.9" y1="0" x2="110.5" y2="506"/>
				<line class="st4" x1="-249.8" y1="0" x2="124.7" y2="506"/>
				<line class="st4" x1="-235.6" y1="0" x2="138.8" y2="506"/>
				<line class="st4" x1="-221.4" y1="0" x2="153" y2="506"/>
				<line class="st4" x1="-207.2" y1="0" x2="167.2" y2="506"/>
				<line class="st4" x1="-193.1" y1="0" x2="181.4" y2="506"/>
				<line class="st4" x1="-178.9" y1="0" x2="195.6" y2="506"/>
				<line class="st4" x1="-164.7" y1="0" x2="209.7" y2="506"/>
				<line class="st4" x1="-150.5" y1="0" x2="223.9" y2="506"/>
				<line class="st4" x1="-136.4" y1="0" x2="238.1" y2="506"/>
				<line class="st4" x1="-122.2" y1="0" x2="252.3" y2="506"/>
				<line class="st4" x1="-108" y1="0" x2="266.4" y2="506"/>
				<line class="st4" x1="-93.8" y1="0" x2="280.6" y2="506"/>
				<line class="st4" x1="-79.6" y1="0" x2="294.8" y2="506"/>
				<line class="st4" x1="-65.5" y1="0" x2="309" y2="506"/>
				<line class="st4" x1="-51.3" y1="0" x2="323.1" y2="506"/>
				<line class="st4" x1="-37.1" y1="0" x2="337.3" y2="506"/>
				<line class="st4" x1="-22.9" y1="0" x2="351.5" y2="506"/>
				<line class="st4" x1="-8.8" y1="0" x2="365.7" y2="506"/>
				<line class="st4" x1="5.4" y1="0" x2="379.8" y2="506"/>
				<line class="st4" x1="19.6" y1="0" x2="394" y2="506"/>
				<line class="st4" x1="33.8" y1="0" x2="408.2" y2="506"/>
				<line class="st4" x1="47.9" y1="0" x2="422.4" y2="506"/>
				<line class="st4" x1="62.1" y1="0" x2="436.6" y2="506"/>
				<line class="st4" x1="76.3" y1="0" x2="450.7" y2="506"/>
				<line class="st4" x1="90.5" y1="0" x2="464.9" y2="506"/>
				<line class="st4" x1="104.7" y1="0" x2="479.1" y2="506"/>
				<line class="st4" x1="118.8" y1="0" x2="493.3" y2="506"/>
				<line class="st4" x1="133" y1="0" x2="507.4" y2="506"/>
				<line class="st4" x1="147.2" y1="0" x2="521.6" y2="506"/>
				<line class="st4" x1="161.4" y1="0" x2="535.8" y2="506"/>
				<line class="st4" x1="175.5" y1="0" x2="550" y2="506"/>
				<line class="st4" x1="189.7" y1="0" x2="564.1" y2="506"/>
				<line class="st4" x1="203.9" y1="0" x2="578.3" y2="506"/>
				<line class="st4" x1="218.1" y1="0" x2="592.5" y2="506"/>
				<line class="st4" x1="232.2" y1="0" x2="606.7" y2="506"/>
				<line class="st4" x1="246.4" y1="0" x2="620.9" y2="506"/>
				<line class="st4" x1="260.6" y1="0" x2="635" y2="506"/>
				<line class="st4" x1="274.8" y1="0" x2="649.2" y2="506"/>
				<line class="st4" x1="288.9" y1="0" x2="663.4" y2="506"/>
				<line class="st4" x1="303.1" y1="0" x2="677.6" y2="506"/>
				<line class="st4" x1="317.3" y1="0" x2="691.7" y2="506"/>
				<line class="st4" x1="331.5" y1="0" x2="705.9" y2="506"/>
				<line class="st4" x1="345.7" y1="0" x2="720.1" y2="506"/>
				<line class="st4" x1="359.8" y1="0" x2="734.3" y2="506"/>
				<line class="st4" x1="374" y1="0" x2="748.4" y2="506"/>
				<line class="st4" x1="388.2" y1="0" x2="762.6" y2="506"/>
				<line class="st4" x1="402.4" y1="0" x2="776.8" y2="506"/>
				<line class="st4" x1="416.5" y1="0" x2="791" y2="506"/>
				<line class="st4" x1="430.7" y1="0" x2="805.1" y2="506"/>
				<line class="st4" x1="444.9" y1="0" x2="819.3" y2="506"/>
				<line class="st4" x1="459.1" y1="0" x2="833.5" y2="506"/>
				<line class="st4" x1="473.2" y1="0" x2="847.7" y2="506"/>
				<line class="st4" x1="487.4" y1="0" x2="861.9" y2="506"/>
				<line class="st4" x1="501.6" y1="0" x2="876" y2="506"/>
				<line class="st4" x1="515.8" y1="0" x2="890.2" y2="506"/>
				<line class="st4" x1="529.9" y1="0" x2="904.4" y2="506"/>
				<line class="st4" x1="544.1" y1="0" x2="918.6" y2="506"/>
				<line class="st4" x1="558.3" y1="0" x2="932.7" y2="506"/>
				<line class="st4" x1="572.5" y1="0" x2="946.9" y2="506"/>
				<line class="st4" x1="586.7" y1="0" x2="961.1" y2="506"/>
				<line class="st4" x1="600.8" y1="0" x2="975.3" y2="506"/>
				<line class="st4" x1="615" y1="0" x2="989.4" y2="506"/>
				<line class="st4" x1="629.2" y1="0" x2="1003.6" y2="506"/>
				<line class="st4" x1="643.4" y1="0" x2="1017.8" y2="506"/>
				<line class="st4" x1="657.5" y1="0" x2="1032" y2="506"/>
				<line class="st4" x1="671.7" y1="0" x2="1046.1" y2="506"/>
				<line class="st4" x1="685.9" y1="0" x2="1060.3" y2="506"/>
				<line class="st4" x1="700.1" y1="0" x2="1074.5" y2="506"/>
				<line class="st4" x1="714.2" y1="0" x2="1088.7" y2="506"/>
				<line class="st4" x1="728.4" y1="0" x2="1102.9" y2="506"/>
				<line class="st4" x1="742.6" y1="0" x2="1117" y2="506"/>
			</g>
		</g>
	</g>
</g>
<g id="OBJECTS">
	<g>
		<g>
			<g>
				<rect x="148" y="228" class="st5" width="181.2" height="78.1"/>
				<rect x="138.7" y="224.6" class="st6" width="199.7" height="8.9"/>
				<polygon class="st7" points="338.4,224.6 138.7,224.6 166.5,184.6 310.6,184.6 				"/>
				<polygon class="st8" points="243.2,300.7 353.6,300.7 353.6,227.6 298.5,185.9 243.2,227.6 				"/>
				<rect x="165.5" y="248.5" class="st9" width="60.3" height="57.6"/>
				<polygon class="st10" points="225.8,248.5 165.5,248.5 165.5,306.1 				"/>
				<g>
					<rect x="282.7" y="209.8" class="st11" width="31.5" height="22.7"/>
					<rect x="282.7" y="229" class="st9" width="31.5" height="3.6"/>
					<polygon class="st2" points="282.7,229.1 282.7,209.8 301.8,209.8 					"/>
				</g>
				<g>
					<rect x="252.1" y="251.1" class="st11" width="19.1" height="29.7"/>
					<polygon class="st2" points="252.1,270.4 252.1,251.1 271.3,251.1 					"/>
					<rect x="252.1" y="277.3" class="st9" width="19.1" height="3.6"/>
				</g>
				<g>
					<rect x="279.3" y="251.1" class="st11" width="19.1" height="29.7"/>
					<polygon class="st2" points="279.3,270.4 279.3,251.1 298.4,251.1 					"/>
					<rect x="279.3" y="277.3" class="st9" width="19.1" height="3.6"/>
				</g>
				<rect x="319.8" y="260.6" class="st9" width="23.2" height="40"/>
				<rect x="324.3" y="266" class="st11" width="14.1" height="25.9"/>
				<polygon class="st2" points="310.2,187.6 306.1,181.1 243.2,228.6 243.2,238.3 				"/>
				<polygon class="st11" points="300.2,175.9 235.9,224.6 235.9,238.5 300.2,189.8 364.5,238.5 364.5,224.6 				"/>
			</g>
			<rect x="132.6" y="300.7" class="st7" width="234.8" height="5.4"/>
		</g>
		<g>
			
				<ellipse transform="matrix(0.7071 -0.7071 0.7071 0.7071 -108.5812 255.1502)" class="st12" cx="253.7" cy="258.6" rx="165.3" ry="165.3"/>
			<g>
				<g>
					<line class="st13" x1="270.7" y1="341" x2="270.7" y2="341"/>
					<line class="st14" x1="270.7" y1="347.1" x2="270.7" y2="441.2"/>
					<line class="st13" x1="270.7" y1="444.2" x2="270.7" y2="444.2"/>
					<path class="st15" d="M276.7,443.6C368.7,432.2,440,353.8,440,258.6c0-102.9-83.4-186.3-186.3-186.3S67.4,155.7,67.4,258.6
						c0,59.7,28,112.8,71.7,146.9"/>
					<line class="st13" x1="141.4" y1="407.3" x2="141.4" y2="407.3"/>
				</g>
			</g>
			<g>
				<g>
					<g>
						<line class="st13" x1="141.4" y1="407.3" x2="141.4" y2="407.3"/>
						<path class="st16" d="M146.3,411c21.4,14.9,62.2,29.8,87.4,32.9"/>
						<line class="st13" x1="236.7" y1="444.2" x2="236.7" y2="444.2"/>
						<line class="st14" x1="236.7" y1="438.1" x2="236.7" y2="344.1"/>
						<line class="st13" x1="236.7" y1="341" x2="236.7" y2="341"/>
					</g>
				</g>
				<g>
					
						<ellipse transform="matrix(0.7071 -0.7071 0.7071 0.7071 -86.5709 387.7998)" class="st17" cx="424.8" cy="298.4" rx="27.4" ry="27.4"/>
					<path class="st8" d="M424.8,281.7c-6.7,0-12.1,5.4-12.1,12.1c0,6.7,12.1,21.1,12.1,21.1s12.1-14.4,12.1-21.1
						C436.9,287.1,431.5,281.7,424.8,281.7z M424.8,298.3c-2.9,0-5.2-2.3-5.2-5.2c0-2.9,2.3-5.2,5.2-5.2c2.9,0,5.2,2.3,5.2,5.2
						C430,296,427.7,298.3,424.8,298.3z"/>
				</g>
				<g>
					<line class="st12" x1="339.4" y1="167" x2="349.4" y2="167"/>
					<line class="st12" x1="344.4" y1="162" x2="344.4" y2="172"/>
				</g>
				<g>
					<line class="st12" x1="293.5" y1="394.6" x2="303.5" y2="394.6"/>
					<line class="st12" x1="298.5" y1="389.6" x2="298.5" y2="399.6"/>
				</g>
				<g>
					<line class="st12" x1="62.4" y1="346" x2="72.4" y2="346"/>
					<line class="st12" x1="67.4" y1="341" x2="67.4" y2="351"/>
				</g>
				<path class="st12" d="M103.6,240.2c2.8,0,5,2.2,5,5s-2.2,5-5,5"/>
				<g>
					<line class="st12" x1="156" y1="146.2" x2="170.7" y2="146.2"/>
					<line class="st12" x1="179.5" y1="146.2" x2="186" y2="146.2"/>
				</g>
				<g>
					<line class="st12" x1="400.3" y1="245" x2="400.3" y2="235.2"/>
					<line class="st12" x1="400.3" y1="229.3" x2="400.3" y2="225"/>
				</g>
				<g>
					<line class="st12" x1="153.3" y1="366.3" x2="153.3" y2="356.5"/>
					<line class="st12" x1="153.3" y1="350.6" x2="153.3" y2="346.2"/>
				</g>
				<circle class="st12" cx="182.4" cy="71.2" r="3.5"/>
				<circle class="st12" cx="328.2" cy="447.7" r="3.5"/>
				<g>
					<circle class="st18" cx="245.3" cy="67" r="19.3"/>
					<line class="st19" x1="221.3" y1="91" x2="230.6" y2="81.7"/>
					<path class="st17" d="M261.8,50.5c-9.1-9.1-23.9-9.1-33,0c-9.1,9.1-9.1,23.9,0,33c9.1,9.1,23.9,9.1,33,0
						C270.9,74.4,270.9,59.7,261.8,50.5z M234.5,77.8c-5.9-5.9-5.9-15.6,0-21.5c5.9-5.9,15.6-5.9,21.5,0c5.9,5.9,5.9,15.6,0,21.5
						C250.1,83.8,240.5,83.8,234.5,77.8z"/>
					<path class="st10" d="M201.9,110.5L201.9,110.5c-1.3-1.3-1.3-3.5,0-4.8L219,88.6c1.3-1.3,3.5-1.3,4.8,0l0,0
						c1.3,1.3,1.3,3.5,0,4.8l-17.1,17.1C205.3,111.8,203.2,111.8,201.9,110.5z"/>
				</g>
				<g>
					<g>
						<g>
							<g>
								<g>
									<path class="st17" d="M248.4,155.6h0.3c1.4,0,2.5-1.1,2.5-2.5v-3.2h-5.3v3.2C245.9,154.5,247,155.6,248.4,155.6z"/>
								</g>
								<g>
									<path class="st17" d="M225.1,155.6h0.3c1.4,0,2.5-1.1,2.5-2.5v-3.2h-5.3v3.2C222.6,154.5,223.7,155.6,225.1,155.6z"/>
								</g>
							</g>
							<g>
								<path class="st17" d="M251.8,139.9H251v-7.8c0-1.8-1.5-3.3-3.3-3.3h-21.7c-1.8,0-3.3,1.5-3.3,3.3v7.8h-0.7
									c-1.8,0-3.3,1.5-3.3,3.3v5.9c0,1.2,1,2.2,2.2,2.2h32c1.2,0,2.2-1,2.2-2.2v-5.9C255.1,141.4,253.6,139.9,251.8,139.9z
									 M226.6,134.6h20.6v4.8h-20.6V134.6z M231,146.4c0,0.4-0.4,0.8-0.8,0.8h-6.5c-0.4,0-0.8-0.4-0.8-0.8v-1.7
									c0-0.4,0.4-0.8,0.8-0.8h6.5c0.4,0,0.8,0.4,0.8,0.8V146.4z M250.9,146.4c0,0.4-0.4,0.8-0.8,0.8h-6.5c-0.4,0-0.8-0.4-0.8-0.8
									v-1.7c0-0.4,0.4-0.8,0.8-0.8h6.5c0.4,0,0.8,0.4,0.8,0.8V146.4z"/>
							</g>
							<g>
								<path class="st17" d="M236.9,140.5c-0.6,0-1.1-0.5-1.1-1.1v-4.8c0-0.6,0.5-1.1,1.1-1.1c0.6,0,1.1,0.5,1.1,1.1v4.8
									C238,140,237.5,140.5,236.9,140.5z"/>
							</g>
							<g>
								<path class="st17" d="M236.9,141.8"/>
							</g>
							<g>
								<path class="st17" d="M236.9,141.8"/>
							</g>
							<g>
								<path class="st17" d="M236.9,145"/>
							</g>
							<g>
								<path class="st17" d="M236.9,145"/>
							</g>
							<g>
								<path class="st17" d="M236.9,148.1"/>
							</g>
							<g>
								<path class="st17" d="M236.9,148.1"/>
							</g>
							<g>
								<g>
									<path class="st17" d="M250.6,138.8L250.6,138.8l-0.1-5.6h0.1c1.4,0,2.6,1.2,2.6,2.6v0.5C253.2,137.7,252,138.8,250.6,138.8
										z"/>
								</g>
								<g>
									<path class="st17" d="M223.2,133.2L223.2,133.2l0.1,5.6h-0.1c-1.4,0-2.6-1.2-2.6-2.6v-0.5
										C220.7,134.4,221.8,133.2,223.2,133.2z"/>
								</g>
							</g>
						</g>
						<g>
							<g>
								<g>
									<path class="st17" d="M296.5,155.6h0.3c1.4,0,2.5-1.1,2.5-2.5v-3.2h-5.3v3.2C294.1,154.5,295.2,155.6,296.5,155.6z"/>
								</g>
								<g>
									<path class="st17" d="M273.2,155.6h0.3c1.4,0,2.5-1.1,2.5-2.5v-3.2h-5.3v3.2C270.8,154.5,271.9,155.6,273.2,155.6z"/>
								</g>
							</g>
							<g>
								<path class="st17" d="M299.9,139.9h-0.7v-7.8c0-1.8-1.5-3.3-3.3-3.3h-21.7c-1.8,0-3.3,1.5-3.3,3.3v7.8h-0.7
									c-1.8,0-3.3,1.5-3.3,3.3v5.9c0,1.2,1,2.2,2.2,2.2h32c1.2,0,2.2-1,2.2-2.2v-5.9C303.2,141.4,301.7,139.9,299.9,139.9z
									 M274.8,134.6h20.6v4.8h-20.6V134.6z M279.1,146.4c0,0.4-0.4,0.8-0.8,0.8h-6.5c-0.4,0-0.8-0.4-0.8-0.8v-1.7
									c0-0.4,0.4-0.8,0.8-0.8h6.5c0.4,0,0.8,0.4,0.8,0.8V146.4z M299,146.4c0,0.4-0.4,0.8-0.8,0.8h-6.5c-0.4,0-0.8-0.4-0.8-0.8
									v-1.7c0-0.4,0.4-0.8,0.8-0.8h6.5c0.4,0,0.8,0.4,0.8,0.8V146.4z"/>
							</g>
							<g>
								<path class="st17" d="M285,140.5c-0.6,0-1.1-0.5-1.1-1.1v-4.8c0-0.6,0.5-1.1,1.1-1.1c0.6,0,1.1,0.5,1.1,1.1v4.8
									C286.1,140,285.6,140.5,285,140.5z"/>
							</g>
							<g>
								<path class="st17" d="M285,141.8"/>
							</g>
							<g>
								<path class="st17" d="M285,141.8"/>
							</g>
							<g>
								<path class="st17" d="M285,145"/>
							</g>
							<g>
								<path class="st17" d="M285,145"/>
							</g>
							<g>
								<path class="st17" d="M285,148.1"/>
							</g>
							<g>
								<path class="st17" d="M285,148.1"/>
							</g>
							<g>
								<g>
									<path class="st17" d="M298.7,138.8L298.7,138.8l-0.1-5.6h0.1c1.4,0,2.6,1.2,2.6,2.6v0.5
										C301.3,137.7,300.1,138.8,298.7,138.8z"/>
								</g>
								<g>
									<path class="st17" d="M271.4,133.2L271.4,133.2l0.1,5.6h-0.1c-1.4,0-2.6-1.2-2.6-2.6v-0.5
										C268.8,134.4,269.9,133.2,271.4,133.2z"/>
								</g>
							</g>
						</g>
						<g>
							<line class="st12" x1="212.6" y1="119.2" x2="212.6" y2="167.1"/>
							<line class="st12" x1="207" y1="167.1" x2="218.3" y2="167.1"/>
						</g>
						<g>
							<line class="st12" x1="260.8" y1="119.2" x2="260.8" y2="167.1"/>
							<line class="st12" x1="255.1" y1="167.1" x2="266.5" y2="167.1"/>
						</g>
						<g>
							<line class="st12" x1="308.9" y1="119.2" x2="308.9" y2="167.1"/>
							<line class="st12" x1="303.2" y1="167.1" x2="314.6" y2="167.1"/>
						</g>
					</g>
				</g>
				<g>
					<g>
						<polygon class="st8" points="381.4,114.4 367.4,128.4 367.4,193 424.8,193 424.8,114.4 						"/>
						<polyline class="st11" points="381.4,114.4 381.4,128.4 367.4,128.4 						"/>
						<line class="st20" x1="376" y1="139" x2="416.2" y2="139"/>
						<line class="st20" x1="376" y1="144.8" x2="416.2" y2="144.8"/>
						<line class="st20" x1="376" y1="150.7" x2="416.2" y2="150.7"/>
						<line class="st20" x1="376" y1="156.5" x2="416.2" y2="156.5"/>
						<line class="st20" x1="376" y1="162.4" x2="396.2" y2="162.4"/>
					</g>
					<g>
						<path class="st17" d="M438.8,193h-0.9c-1.2,0-2.2-1-2.2-2.2v-57.2h5.3v57.2C441,192,440,193,438.8,193z"/>
						<path class="st10" d="M438.8,193h-0.9c-1.2,0-2.2-1-2.2-2.2v-11.2h5.3v11.2C441,192,440,193,438.8,193z"/>
						<polygon class="st10" points="435.7,133.6 438.3,125.5 441,133.6 						"/>
						<polyline class="st12" points="438.3,190.1 443.1,190.1 443.1,173.4 						"/>
					</g>
				</g>
				<g>
					<g>
						<circle class="st6" cx="104.8" cy="378.9" r="17.5"/>
						
							<ellipse transform="matrix(0.7071 -0.7071 0.7071 0.7071 -237.2234 185.0926)" class="st17" cx="104.8" cy="378.9" rx="14.6" ry="14.6"/>
						<text transform="matrix(1 0 0 1 99.3794 386.9218)" class="st8 st21 st22">$</text>
					</g>
				</g>
				<g>
					<g>
						
							<ellipse transform="matrix(0.7071 -0.7071 0.7071 0.7071 -205.3349 245.1306)" class="st6" cx="193.2" cy="370.4" rx="26.9" ry="26.9"/>
						<circle class="st17" cx="193.2" cy="370.4" r="22.4"/>
						<text transform="matrix(1 0 0 1 184.8951 382.7301)" class="st8 st21 st23">$</text>
					</g>
				</g>
				<g>
					<path class="st8" d="M121.3,193h-2.5h-2.5H114h-2.5h-2.5h-2.5h-2.5h-2.5h-2.5h-2.5h-2.5h-2.5h-2.5H87h-2.5h-2.5v-4.6v-4.6v-4.6
						v-4.6v-4.6v-4.6v-4.6v-4.6v-4.6v-4.6v-4.6v-4.6v-4.6V128v-4.6v-3.7c0-0.3,0.4-0.4,0.6-0.2l1.9,2.3l2-2.5c0.2-0.3,0.6-0.3,0.8,0
						l2,2.5l2-2.5c0.2-0.3,0.6-0.3,0.8,0l2,2.5l2-2.5c0.2-0.3,0.6-0.3,0.8,0l2,2.5l2-2.5c0.2-0.3,0.6-0.3,0.8,0l2,2.5l2-2.5
						c0.2-0.3,0.6-0.3,0.8,0l2,2.5l2-2.5c0.2-0.3,0.6-0.3,0.8,0l2,2.5l2-2.5c0.2-0.3,0.6-0.3,0.8,0l2,2.5l1.9-2.3
						c0.2-0.2,0.6-0.1,0.6,0.2v3.7v4.6v4.6v4.6v4.6v4.6v4.6v4.6v4.6v4.6v4.6v4.6v4.6v4.6v4.6V193z"/>
					<rect x="82.1" y="187.8" class="st5" width="39.2" height="5.2"/>
					<text transform="matrix(1 0 0 1 94.414 140.1456)" class="st5 st24 st25">bill</text>
					<line class="st20" x1="87.5" y1="148.9" x2="115.9" y2="148.9"/>
					<line class="st20" x1="87.5" y1="153.4" x2="115.9" y2="153.4"/>
					<line class="st20" x1="87.5" y1="158" x2="115.9" y2="158"/>
					<line class="st20" x1="87.5" y1="162.5" x2="115.9" y2="162.5"/>
					<line class="st20" x1="87.5" y1="167" x2="115.9" y2="167"/>
					<line class="st20" x1="87.5" y1="171.5" x2="115.9" y2="171.5"/>
					<line class="st20" x1="87.5" y1="176.1" x2="99" y2="176.1"/>
				</g>
				<g>
					<g>
						<path class="st10" d="M130.7,211H61.3c-2.7,0-4.9-2.2-4.9-4.9v-35.5c0-2.7,2.2-4.9,4.9-4.9h69.4c2.7,0,4.9,2.2,4.9,4.9v35.5
							C135.6,208.8,133.4,211,130.7,211z"/>
						<g>
							<g>
								<path class="st8" d="M76.4,192.2h-8.9c-1.1,0-2-0.9-2-2v-8.9c0-1.1,0.9-2,2-2h8.9c1.1,0,2,0.9,2,2v8.9
									C78.4,191.4,77.5,192.2,76.4,192.2z"/>
							</g>
							<g>
								<line class="st12" x1="65.5" y1="182.7" x2="78.4" y2="182.7"/>
								<line class="st12" x1="65.5" y1="185.8" x2="78.4" y2="185.8"/>
								<line class="st12" x1="65.5" y1="188.9" x2="78.4" y2="188.9"/>
								<rect x="69.1" y="182.7" class="st12" width="5.7" height="6.2"/>
							</g>
						</g>
						<circle class="st17" cx="119.9" cy="179.6" r="8"/>
						<circle class="st8" cx="110" cy="179.6" r="8"/>
						<line class="st20" x1="65.5" y1="173.4" x2="90.8" y2="173.4"/>
						<line class="st20" x1="65.5" y1="198.2" x2="117.4" y2="198.2"/>
						<line class="st20" x1="65.5" y1="203.1" x2="117.4" y2="203.1"/>
					</g>
				</g>
				<g>
					<polyline class="st26" points="326.3,370.4 326.3,387 347.7,393.1 					"/>
					<path class="st10" d="M330.7,370.4c0,2.4-2,4.4-4.4,4.4s-4.4-2-4.4-4.4c0-2.4,2-4.4,4.4-4.4S330.7,368,330.7,370.4z"/>
					<g>
						
							<rect x="298.2" y="360.7" transform="matrix(0.9576 -0.2883 0.2883 0.9576 -91.502 108.167)" class="st10" width="46.7" height="8.1"/>
						<path class="st10" d="M344.5,351l-44.7,13.5l-5.6-3.2l46.4-14c1.4-0.4,2.9,0.4,3.3,1.8L344.5,351z"/>
						<path class="st17" d="M345.8,364.6l-42.2,12.7l-3.9-13l44.7-13.5l3.2,10.5C348,362.7,347.2,364.1,345.8,364.6z"/>
					</g>
					<path class="st10" d="M353.5,402.6h-2.1c-2.1,0-3.7-1.7-3.7-3.7v-11.2c0-2.1,1.7-3.7,3.7-3.7h2.1V402.6z"/>
				</g>
			</g>
		</g>
	</g>
</g>
<g id="DESIGNED_BY_FREEPIK">
</g>
</svg>
