<svg width="547" height="622" viewBox="0 0 547 622" fill="none" xmlns="http://www.w3.org/2000/svg">
<g id="illus-apr&#195;&#168;shomePad">
<path id="Oval" fill-rule="evenodd" clip-rule="evenodd" d="M24.75 446.9C38.419 446.9 49.5 436.625 49.5 423.95C49.5 411.275 38.419 401 24.75 401C11.081 401 0 411.275 0 423.95C0 436.625 11.081 446.9 24.75 446.9Z" fill="#F2F9FF"/>
<path id="Oval_2" fill-rule="evenodd" clip-rule="evenodd" d="M287.5 397C306.554 397 322 381.554 322 362.5C322 343.446 306.554 328 287.5 328C268.446 328 253 343.446 253 362.5C253 381.554 268.446 397 287.5 397Z" fill="#00C997"/>
<g id="LOGO">
<path id="Fill 1" fill-rule="evenodd" clip-rule="evenodd" d="M293.913 356.065V358.561H284.643V350.259C285.514 349.692 286.384 349.125 287.255 348.558C288.042 349.069 288.828 349.58 289.615 350.091V351.398C289.615 352.699 291.637 352.701 291.637 351.398C291.637 350.832 291.66 350.261 291.637 349.696C291.611 349.023 291.264 348.753 290.757 348.424C289.76 347.775 288.763 347.127 287.765 346.479C287.477 346.291 287.033 346.291 286.744 346.479C285.871 347.048 284.997 347.617 284.123 348.186C283.402 348.655 282.643 348.983 282.62 349.942C282.563 352.313 282.62 354.694 282.62 357.066V359.573C282.62 360.119 283.084 360.584 283.632 360.584H294.924C295.471 360.584 295.936 360.121 295.936 359.573V356.065C295.936 354.764 293.913 354.761 293.913 356.065Z" fill="white"/>
<g id="Group 5">
<mask id="mask0" mask-type="alpha" maskUnits="userSpaceOnUse" x="278" y="341" width="18" height="20">
<path id="Clip 4" fill-rule="evenodd" clip-rule="evenodd" d="M278.346 341.2H295.975V360.55H278.346V341.2Z" fill="white"/>
</mask>
<g mask="url(#mask0)">
<path id="Fill 3" fill-rule="evenodd" clip-rule="evenodd" d="M287.18 343.389C289.424 344.707 291.668 346.024 293.913 347.341V348.529C293.913 349.83 295.935 349.833 295.935 348.529C295.935 347.637 296.203 346.394 295.35 345.839C294.579 345.338 293.756 344.904 292.964 344.439C291.203 343.405 289.442 342.372 287.681 341.338C287.373 341.157 286.967 341.151 286.66 341.338C285.439 342.081 284.219 342.824 282.998 343.567C281.669 344.376 280.218 345.106 278.961 346.024C278.078 346.669 278.405 348.296 278.405 349.263V355.315V359.573C278.405 360.874 280.428 360.876 280.428 359.573V347.499C282.679 346.129 284.929 344.759 287.18 343.389Z" fill="white"/>
</g>
</g>
<path id="Fill 6" fill-rule="evenodd" clip-rule="evenodd" d="M299.856 346.805C296.76 349.429 293.664 352.053 290.567 354.677C289.633 354.023 288.699 353.369 287.765 352.715C286.697 351.967 285.685 353.72 286.744 354.462C287.868 355.249 288.992 356.035 290.116 356.822C290.503 357.093 291.016 356.939 291.341 356.664C294.656 353.854 297.971 351.045 301.286 348.236C302.281 347.393 300.844 345.968 299.856 346.805Z" fill="white"/>
<path id="Fill 8" fill-rule="evenodd" clip-rule="evenodd" d="M262 371.799V363.4C262 363.142 262.243 363.012 262.728 363.012H263.068C263.553 363.012 263.796 363.142 263.796 363.4V366.544C263.998 366.301 264.247 366.103 264.543 365.949C264.838 365.795 265.159 365.718 265.507 365.718C266.122 365.718 266.581 365.878 266.885 366.198C267.188 366.517 267.34 367.013 267.34 367.684V371.799C267.34 372.058 267.097 372.187 266.612 372.187H266.272C265.787 372.187 265.544 372.058 265.544 371.799V367.951C265.544 367.45 265.285 367.199 264.767 367.199C264.549 367.199 264.356 367.27 264.19 367.411C264.025 367.553 263.893 367.717 263.796 367.903V371.799C263.796 372.058 263.553 372.187 263.068 372.187H262.728C262.243 372.187 262 372.058 262 371.799Z" fill="white"/>
<g id="Group 12">
<mask id="mask1" mask-type="alpha" maskUnits="userSpaceOnUse" x="268" y="365" width="7" height="8">
<path id="Clip 11" fill-rule="evenodd" clip-rule="evenodd" d="M268.687 365.718H274.573V372.26H268.687V365.718Z" fill="white"/>
</mask>
<g mask="url(#mask1)">
<path id="Fill 10" fill-rule="evenodd" clip-rule="evenodd" d="M272.479 370.372C272.661 370.061 272.752 369.598 272.752 368.983C272.752 368.368 272.661 367.907 272.479 367.599C272.297 367.292 272.016 367.138 271.636 367.138C271.255 367.138 270.972 367.292 270.786 367.599C270.6 367.907 270.507 368.368 270.507 368.983C270.507 370.221 270.883 370.84 271.636 370.84C272.016 370.84 272.297 370.684 272.479 370.372ZM269.439 371.416C268.937 370.854 268.687 370.043 268.687 368.983C268.687 367.923 268.937 367.114 269.439 366.555C269.941 365.997 270.673 365.718 271.636 365.718C272.598 365.718 273.329 365.997 273.826 366.555C274.324 367.114 274.573 367.923 274.573 368.983C274.573 370.043 274.324 370.854 273.826 371.416C273.329 371.978 272.598 372.26 271.636 372.26C270.673 372.26 269.941 371.978 269.439 371.416Z" fill="white"/>
</g>
</g>
<path id="Fill 13" fill-rule="evenodd" clip-rule="evenodd" d="M284.264 366.197C284.551 366.517 284.694 367.013 284.694 367.684V371.798C284.694 372.057 284.452 372.187 283.966 372.187H283.627C283.141 372.187 282.898 372.057 282.898 371.798V367.951C282.898 367.701 282.844 367.512 282.735 367.387C282.625 367.261 282.441 367.199 282.182 367.199C281.81 367.199 281.491 367.429 281.224 367.89V371.798C281.224 372.057 280.981 372.187 280.495 372.187H280.155C279.67 372.187 279.427 372.057 279.427 371.798V367.951C279.427 367.701 279.373 367.512 279.264 367.387C279.154 367.261 278.97 367.199 278.711 367.199C278.493 367.199 278.303 367.27 278.141 367.411C277.979 367.553 277.85 367.717 277.753 367.903V371.798C277.753 372.057 277.51 372.187 277.024 372.187H276.685C276.199 372.187 275.956 372.057 275.956 371.798V367.951C275.956 367.595 275.946 367.322 275.926 367.132C275.906 366.942 275.879 366.73 275.847 366.495C275.823 366.382 275.811 366.297 275.811 366.24C275.811 366.111 275.975 366.014 276.302 365.949C276.63 365.884 276.919 365.852 277.17 365.852C277.316 365.852 277.417 365.906 277.473 366.015C277.53 366.125 277.572 366.244 277.601 366.374C277.629 366.503 277.647 366.592 277.656 366.641C277.85 366.382 278.106 366.163 278.426 365.985C278.746 365.807 279.088 365.718 279.452 365.718C279.872 365.718 280.214 365.793 280.477 365.943C280.74 366.093 280.932 366.325 281.054 366.641C281.256 366.382 281.523 366.163 281.855 365.985C282.186 365.807 282.542 365.718 282.923 365.718C283.53 365.718 283.976 365.878 284.264 366.197Z" fill="white"/>
<g id="Group 17">
<mask id="mask2" mask-type="alpha" maskUnits="userSpaceOnUse" x="286" y="365" width="6" height="8">
<path id="Clip 16" fill-rule="evenodd" clip-rule="evenodd" d="M286.126 365.718H291.697V372.26H286.126V365.718Z" fill="white"/>
</mask>
<g mask="url(#mask2)">
<path id="Fill 15" fill-rule="evenodd" clip-rule="evenodd" d="M289.949 368.364C289.949 367.992 289.876 367.695 289.731 367.472C289.585 367.25 289.367 367.138 289.075 367.138C288.477 367.138 288.113 367.547 287.983 368.364H289.949ZM286.909 371.404C286.387 370.834 286.126 370.043 286.126 369.031C286.126 367.891 286.387 367.053 286.909 366.519C287.431 365.985 288.153 365.718 289.075 365.718C289.974 365.718 290.635 366.01 291.06 366.592C291.484 367.175 291.697 367.927 291.697 368.849C291.697 368.947 291.614 369.09 291.448 369.28C291.282 369.47 291.159 369.565 291.078 369.565H287.983C288.023 370.027 288.161 370.354 288.396 370.548C288.63 370.743 288.958 370.84 289.379 370.84C289.605 370.84 289.812 370.814 289.998 370.761C290.184 370.708 290.378 370.642 290.58 370.56C290.71 370.496 290.799 370.463 290.847 370.463C290.928 370.463 291.019 370.522 291.12 370.639C291.221 370.757 291.306 370.89 291.375 371.04C291.444 371.19 291.478 371.305 291.478 371.386C291.478 371.572 291.353 371.732 291.102 371.865C290.851 371.999 290.552 372.098 290.204 372.163C289.856 372.227 289.553 372.26 289.294 372.26C288.226 372.26 287.431 371.974 286.909 371.404Z" fill="white"/>
</g>
</g>
<path id="Fill 18" fill-rule="evenodd" clip-rule="evenodd" d="M296.066 367.381C296.357 367.381 296.606 367.304 296.812 367.15C297.019 366.997 297.122 366.722 297.122 366.325C297.122 365.929 297.019 365.652 296.812 365.494C296.606 365.336 296.357 365.257 296.066 365.257H294.986V367.381H296.066ZM293.117 371.799V364.153C293.117 363.983 293.155 363.86 293.232 363.783C293.309 363.706 293.432 363.667 293.602 363.667H296.151C296.911 363.667 297.583 363.852 298.165 364.219C298.748 364.588 299.039 365.29 299.039 366.325C299.039 367.037 298.869 367.589 298.529 367.982C298.19 368.374 297.809 368.639 297.389 368.777C296.968 368.914 296.596 368.983 296.272 368.983H294.986V371.799C294.986 372.058 294.743 372.187 294.258 372.187H293.845C293.36 372.187 293.117 372.058 293.117 371.799Z" fill="white"/>
<path id="Fill 20" fill-rule="evenodd" clip-rule="evenodd" d="M302.862 370.621C303.064 370.475 303.214 370.294 303.311 370.075V369.408C302.178 369.408 301.612 369.707 301.612 370.306C301.612 370.468 301.664 370.597 301.77 370.694C301.875 370.791 302.024 370.84 302.219 370.84C302.445 370.84 302.66 370.767 302.862 370.621ZM300.259 371.774C299.971 371.451 299.828 371.022 299.828 370.488C299.828 369.841 300.064 369.302 300.538 368.874C301.011 368.445 301.935 368.23 303.311 368.23V367.83C303.311 367.595 303.236 367.421 303.087 367.308C302.937 367.195 302.696 367.138 302.364 367.138C302.089 367.138 301.849 367.167 301.642 367.223C301.436 367.28 301.252 367.345 301.09 367.417C300.928 367.49 300.835 367.526 300.811 367.526C300.73 367.526 300.641 367.466 300.544 367.345C300.447 367.223 300.362 367.084 300.289 366.926C300.216 366.768 300.18 366.645 300.18 366.556C300.18 366.418 300.281 366.285 300.483 366.155C300.685 366.026 300.964 365.921 301.321 365.84C301.677 365.759 302.069 365.718 302.498 365.718C303.412 365.718 304.076 365.899 304.488 366.258C304.901 366.618 305.107 367.114 305.107 367.745V370.026C305.107 370.399 305.117 370.682 305.137 370.876C305.158 371.07 305.184 371.285 305.216 371.519C305.241 371.625 305.253 371.714 305.253 371.786C305.253 371.916 305.089 372.013 304.761 372.078C304.434 372.142 304.144 372.175 303.893 372.175C303.748 372.175 303.647 372.116 303.59 371.999C303.533 371.882 303.491 371.754 303.463 371.616C303.434 371.479 303.416 371.386 303.408 371.337C303.359 371.426 303.262 371.542 303.117 371.683C302.971 371.825 302.769 371.956 302.51 372.078C302.251 372.199 301.956 372.26 301.624 372.26C301.001 372.26 300.546 372.098 300.259 371.774Z" fill="white"/>
<path id="Resolve" d="M276.866 381.014C276.586 381.014 276.446 380.939 276.446 380.79V376.38C276.446 376.282 276.467 376.212 276.509 376.17C276.555 376.123 276.628 376.1 276.726 376.1H278.091C279.253 376.1 279.834 376.539 279.834 377.416C279.834 377.677 279.759 377.906 279.61 378.102C279.465 378.293 279.267 378.436 279.015 378.529V378.557C279.103 378.59 279.194 378.669 279.288 378.795C279.381 378.916 279.458 379.052 279.519 379.201L280.135 380.741C280.158 380.802 280.17 380.846 280.17 380.874C280.17 380.916 280.135 380.951 280.065 380.979C279.995 381.002 279.89 381.014 279.75 381.014H279.463C279.234 381.014 279.099 380.965 279.057 380.867L278.504 379.502C278.424 379.348 278.338 379.241 278.245 379.18C278.156 379.115 278.007 379.082 277.797 379.082H277.524V380.79C277.524 380.939 277.384 381.014 277.104 381.014H276.866ZM278.189 378.151C278.333 378.151 278.459 378.093 278.567 377.976C278.674 377.859 278.728 377.717 278.728 377.549C278.728 377.386 278.674 377.257 278.567 377.164C278.464 377.066 278.322 377.017 278.14 377.017H277.524V378.151H278.189ZM282.363 381.056C281.747 381.056 281.287 380.893 280.984 380.566C280.685 380.235 280.536 379.777 280.536 379.194C280.536 378.536 280.685 378.053 280.984 377.745C281.287 377.437 281.705 377.283 282.237 377.283C282.755 377.283 283.135 377.451 283.378 377.787C283.625 378.123 283.749 378.557 283.749 379.089C283.749 379.145 283.7 379.229 283.602 379.341C283.508 379.448 283.438 379.502 283.392 379.502H281.607C281.63 379.768 281.709 379.957 281.845 380.069C281.98 380.181 282.169 380.237 282.412 380.237C282.542 380.237 282.661 380.223 282.769 380.195C282.876 380.162 282.988 380.123 283.105 380.076C283.179 380.039 283.231 380.02 283.259 380.02C283.305 380.02 283.357 380.055 283.413 380.125C283.473 380.19 283.522 380.267 283.56 380.356C283.602 380.44 283.623 380.505 283.623 380.552C283.623 380.659 283.55 380.753 283.406 380.832C283.261 380.907 283.088 380.963 282.888 381C282.687 381.037 282.512 381.056 282.363 381.056ZM282.741 378.809C282.741 378.594 282.699 378.424 282.615 378.298C282.531 378.167 282.405 378.102 282.237 378.102C281.891 378.102 281.681 378.338 281.607 378.809H282.741ZM285.38 381.056C285.09 381.056 284.824 381.012 284.582 380.923C284.339 380.834 284.218 380.72 284.218 380.58C284.218 380.487 284.262 380.375 284.351 380.244C284.439 380.109 284.519 380.041 284.589 380.041C284.626 380.041 284.677 380.06 284.743 380.097C284.841 380.139 284.929 380.174 285.009 380.202C285.093 380.225 285.188 380.237 285.296 380.237C285.436 380.237 285.541 380.211 285.611 380.16C285.685 380.109 285.723 380.036 285.723 379.943C285.723 379.85 285.683 379.777 285.604 379.726C285.524 379.675 285.375 379.602 285.156 379.509C284.992 379.439 284.852 379.369 284.736 379.299C284.619 379.224 284.516 379.117 284.428 378.977C284.344 378.832 284.302 378.65 284.302 378.431C284.302 378.072 284.416 377.792 284.645 377.591C284.873 377.386 285.184 377.283 285.576 377.283C285.823 377.283 286.059 377.318 286.283 377.388C286.511 377.458 286.626 377.558 286.626 377.689C286.626 377.778 286.591 377.892 286.521 378.032C286.451 378.172 286.385 378.242 286.325 378.242C286.306 378.242 286.236 378.219 286.115 378.172C285.993 378.121 285.856 378.095 285.702 378.095C285.454 378.095 285.331 378.181 285.331 378.354C285.331 378.457 285.373 378.536 285.457 378.592C285.541 378.643 285.692 378.709 285.912 378.788C286.154 378.877 286.355 379 286.514 379.159C286.672 379.313 286.752 379.546 286.752 379.859C286.752 380.223 286.63 380.515 286.388 380.734C286.145 380.949 285.809 381.056 285.38 381.056ZM288.915 381.056C288.36 381.056 287.937 380.895 287.648 380.573C287.359 380.246 287.214 379.777 287.214 379.166C287.214 378.555 287.359 378.088 287.648 377.766C287.937 377.444 288.36 377.283 288.915 377.283C289.47 377.283 289.89 377.444 290.175 377.766C290.464 378.088 290.609 378.555 290.609 379.166C290.609 379.777 290.464 380.246 290.175 380.573C289.89 380.895 289.47 381.056 288.915 381.056ZM288.915 380.237C289.134 380.237 289.295 380.148 289.398 379.971C289.505 379.789 289.559 379.521 289.559 379.166C289.559 378.811 289.505 378.545 289.398 378.368C289.295 378.191 289.134 378.102 288.915 378.102C288.696 378.102 288.532 378.191 288.425 378.368C288.318 378.545 288.264 378.811 288.264 379.166C288.264 379.88 288.481 380.237 288.915 380.237ZM292.375 381.056C291.694 381.056 291.353 380.678 291.353 379.922V375.946C291.353 375.797 291.493 375.722 291.773 375.722H291.969C292.249 375.722 292.389 375.797 292.389 375.946V379.936C292.389 380.043 292.408 380.12 292.445 380.167C292.487 380.214 292.552 380.237 292.641 380.237C292.664 380.237 292.695 380.232 292.732 380.223C292.774 380.214 292.807 380.209 292.83 380.209C292.872 380.209 292.909 380.244 292.942 380.314C292.975 380.384 293 380.461 293.019 380.545C293.038 380.629 293.047 380.685 293.047 380.713C293.047 380.942 292.823 381.056 292.375 381.056ZM294.517 381.014C294.293 381.014 294.162 380.965 294.125 380.867L293.012 377.605C292.993 377.54 292.984 377.498 292.984 377.479C292.984 377.376 293.126 377.325 293.411 377.325H293.642C293.871 377.325 294.001 377.374 294.034 377.472L294.384 378.578C294.505 378.951 294.592 379.32 294.643 379.684H294.671C294.713 379.348 294.799 378.979 294.93 378.578L295.28 377.472C295.313 377.374 295.443 377.325 295.672 377.325H295.847C296.127 377.325 296.267 377.376 296.267 377.479C296.267 377.512 296.26 377.554 296.246 377.605L295.133 380.867C295.1 380.965 294.97 381.014 294.741 381.014H294.517ZM298.385 381.056C297.769 381.056 297.309 380.893 297.006 380.566C296.707 380.235 296.558 379.777 296.558 379.194C296.558 378.536 296.707 378.053 297.006 377.745C297.309 377.437 297.727 377.283 298.259 377.283C298.777 377.283 299.157 377.451 299.4 377.787C299.647 378.123 299.771 378.557 299.771 379.089C299.771 379.145 299.722 379.229 299.624 379.341C299.53 379.448 299.46 379.502 299.414 379.502H297.629C297.652 379.768 297.731 379.957 297.867 380.069C298.002 380.181 298.191 380.237 298.434 380.237C298.564 380.237 298.683 380.223 298.791 380.195C298.898 380.162 299.01 380.123 299.127 380.076C299.201 380.039 299.253 380.02 299.281 380.02C299.327 380.02 299.379 380.055 299.435 380.125C299.495 380.19 299.544 380.267 299.582 380.356C299.624 380.44 299.645 380.505 299.645 380.552C299.645 380.659 299.572 380.753 299.428 380.832C299.283 380.907 299.11 380.963 298.91 381C298.709 381.037 298.534 381.056 298.385 381.056ZM298.763 378.809C298.763 378.594 298.721 378.424 298.637 378.298C298.553 378.167 298.427 378.102 298.259 378.102C297.913 378.102 297.703 378.338 297.629 378.809H298.763Z" fill="white"/>
<g id="Group 24">
<mask id="mask3" mask-type="alpha" maskUnits="userSpaceOnUse" x="306" y="363" width="7" height="10">
<path id="Clip 23" fill-rule="evenodd" clip-rule="evenodd" d="M306.563 363.012H312.304V372.26H306.563V363.012Z" fill="white"/>
</mask>
<g mask="url(#mask3)">
<path id="Fill 22" fill-rule="evenodd" clip-rule="evenodd" d="M310.362 370.075V367.369C310.087 367.215 309.804 367.138 309.512 367.138C308.76 367.138 308.384 367.753 308.384 368.983C308.384 370.188 308.712 370.791 309.367 370.791C309.755 370.791 310.087 370.553 310.362 370.075ZM307.662 371.877C307.318 371.622 307.049 371.248 306.855 370.755C306.66 370.261 306.563 369.671 306.563 368.983C306.563 367.98 306.788 367.185 307.237 366.598C307.686 366.012 308.315 365.718 309.124 365.718C309.601 365.718 310.014 365.844 310.362 366.095V363.4C310.362 363.142 310.605 363.012 311.09 363.012H311.43C311.915 363.012 312.158 363.142 312.158 363.4V370.027C312.158 370.399 312.168 370.682 312.188 370.876C312.209 371.07 312.235 371.285 312.267 371.519C312.292 371.625 312.304 371.714 312.304 371.787C312.304 371.916 312.14 372.013 311.812 372.078C311.485 372.142 311.195 372.175 310.945 372.175C310.799 372.175 310.697 372.116 310.641 371.999C310.584 371.882 310.542 371.756 310.514 371.622C310.485 371.489 310.467 371.398 310.459 371.35C310.313 371.616 310.097 371.835 309.81 372.005C309.523 372.175 309.197 372.26 308.833 372.26C308.396 372.26 308.005 372.132 307.662 371.877Z" fill="white"/>
</g>
</g>
</g>
<g id="locataire">
<path id="Path 2" fill-rule="evenodd" clip-rule="evenodd" d="M339.985 597.343C339.985 597.343 396.272 577.813 370.513 538.087C344.754 498.361 376.866 451.144 322.806 436.334C268.746 421.524 286.008 468.159 224.4 497.479C162.792 526.798 242.49 597.343 242.49 597.343H339.985Z" fill="#F2F9FF"/>
<g id="loca">
<path id="face" d="M264.153 497.478C258.135 497.478 253.257 486.707 253.257 473.42C253.257 460.132 258.135 449.361 264.153 449.361C270.171 449.361 275.05 460.132 275.05 473.42C275.05 486.707 270.171 497.478 264.153 497.478Z" fill="#E49F56"/>
<path id="Forme_34" d="M259.379 484.432C259.379 484.432 258.868 486.879 257.125 487.44" stroke="#A15E18" stroke-width="1.40137" stroke-linecap="round"/>
<path id="Body" fill-rule="evenodd" clip-rule="evenodd" d="M317.087 597.343C317.087 597.343 337.718 490.178 300.607 489.535C263.496 488.891 251.987 498.347 249.501 521.115C247.014 543.884 261.263 597.048 261.263 597.048L317.087 597.343Z" fill="#F15D79"/>
<path id="hand" fill-rule="evenodd" clip-rule="evenodd" d="M247.997 534.328C247.997 534.328 250.043 512.827 247.245 514.026C244.448 515.225 245.332 520.695 244.239 523.801C243.146 526.906 234.15 529.286 236.722 533.576C239.295 537.866 238.979 538.087 238.979 538.087" fill="#E49F56"/>
<path id="arm" fill-rule="evenodd" clip-rule="evenodd" d="M275.805 523.801C275.805 523.801 267.398 581.28 244.992 572.675C232.907 565.032 238.227 535.08 238.227 535.08L249.502 532.824" fill="#F15D79"/>
<path id="Forme_33" d="M254.466 573.588C254.466 573.588 262.066 571.242 268.746 545.767" stroke="white" stroke-width="1.5876" stroke-linecap="round"/>
<path id="hair" fill-rule="evenodd" clip-rule="evenodd" d="M285.576 444.823C285.576 444.823 305.836 454.894 304.365 468.133C302.894 481.372 313.196 498.283 325.409 503.472C354.408 519.532 334.971 545.58 311.88 550.092C288.79 554.603 265.962 545.232 272.799 520.015C279.637 494.799 277.715 499.942 269.793 495.201C261.871 490.461 273.249 479.002 272.048 471.892C270.847 464.782 263.071 472.164 264.532 466.629C265.993 461.094 264.431 454.657 253.259 462.118C242.086 469.578 232.579 416.252 285.576 444.823Z" fill="#041766"/>
<g id="smile_sunglass">
<path id="Oval_3" d="M254.761 475.971C254.333 475.971 253.986 474.696 253.986 473.124C253.986 471.551 254.333 470.276 254.761 470.276C255.189 470.276 255.537 471.551 255.537 473.124C255.537 474.696 255.189 475.971 254.761 475.971Z" fill="#041766"/>
<path id="Oval_4" fill-rule="evenodd" clip-rule="evenodd" d="M254.004 479.433C251.929 479.433 250.248 475.9 250.248 471.541C250.248 467.182 251.929 463.649 254.004 463.649C256.079 463.649 257.761 467.182 257.761 471.541C257.761 475.9 256.079 479.433 254.004 479.433Z" stroke="#041766" stroke-width="1.05103"/>
<path id="Forme_35" d="M257.768 472.67C257.768 472.67 257.906 468.604 265.284 468.159" stroke="#041766" stroke-width="1.05103"/>
</g>
</g>
<path id="Path 3" d="M352.07 597.344H298.488" stroke="#041766" stroke-width="2.7" stroke-linecap="round"/>
<path id="Path 3 Copy" d="M287.924 597.344L256.874 596.894" stroke="#041766" stroke-width="2.7" stroke-linecap="round"/>
<path id="Path 3 Copy 2" d="M246.749 597.344L236.174 596.894" stroke="#041766" stroke-width="2.7" stroke-linecap="round"/>
<g id="text">
<path id="locataire_2" d="M274.685 612.149L274.696 612.948V618.1C274.451 618.143 274.159 618.165 273.821 618.165C273.482 618.165 273.198 618.143 272.968 618.1V612.149L272.276 612.16H271.164C271.121 611.951 271.099 611.714 271.099 611.447C271.099 611.174 271.121 610.932 271.164 610.724H276.51C276.568 610.911 276.596 611.138 276.596 611.404C276.596 611.67 276.524 611.865 276.38 611.987C276.236 612.102 276.006 612.16 275.689 612.16H275.376L274.696 612.149H274.685ZM279.156 615.918L279.145 616.696V616.707C279.477 616.692 279.743 616.685 279.945 616.685H282.45C282.45 616.952 282.439 617.157 282.418 617.301C282.331 617.855 281.964 618.132 281.316 618.132H278.443C278.134 618.132 277.889 618.042 277.709 617.862C277.536 617.682 277.45 617.438 277.45 617.128V610.799L277.525 610.724H282.18C282.223 610.932 282.245 611.159 282.245 611.404C282.245 611.649 282.195 611.904 282.094 612.171H279.145L279.156 612.948V613.704C279.343 613.697 279.588 613.694 279.891 613.694H281.543C281.608 613.895 281.64 614.126 281.64 614.385C281.64 614.644 281.608 614.882 281.543 615.098H279.156V615.918ZM289.529 610.648L289.605 610.724V618.068C289.317 618.132 288.975 618.165 288.579 618.165C288.19 618.165 287.845 618.143 287.542 618.1L285.847 614.234C285.645 613.794 285.44 613.287 285.231 612.711L285.199 612.722C285.285 613.773 285.328 614.849 285.328 615.951V618.1C285.105 618.143 284.835 618.165 284.518 618.165C284.201 618.165 283.935 618.143 283.719 618.1V610.756C283.993 610.691 284.32 610.659 284.702 610.659C285.091 610.659 285.436 610.68 285.739 610.724L287.413 614.579C287.715 615.292 287.938 615.839 288.082 616.221L288.125 616.199C288.039 615.198 287.996 614.136 287.996 613.013V611.696C287.996 611.321 288.071 611.055 288.223 610.896C288.374 610.731 288.619 610.648 288.957 610.648H289.529ZM293.099 616.556C292.905 616.556 292.761 616.552 292.667 616.545L292.203 618.111C292.03 618.154 291.789 618.176 291.479 618.176C291.134 618.176 290.853 618.136 290.637 618.057L290.583 617.97L292.959 610.724C293.24 610.68 293.567 610.659 293.942 610.659C294.366 610.659 294.705 610.684 294.957 610.734L297.29 617.992C297.038 618.129 296.753 618.197 296.436 618.197C296.062 618.197 295.799 618.132 295.648 618.003C295.497 617.873 295.367 617.625 295.259 617.258L295.054 616.545C294.96 616.552 294.82 616.556 294.633 616.556H293.099ZM293.067 615.195L293.499 615.184H294.287C294.323 615.184 294.384 615.188 294.471 615.195C294.564 615.195 294.633 615.195 294.676 615.195L294.492 614.525C294.32 613.92 294.122 613.179 293.898 612.3H293.834C293.776 612.61 293.603 613.298 293.315 614.363L293.067 615.195ZM304.071 610.648L304.147 610.724V618.068C303.859 618.132 303.517 618.165 303.121 618.165C302.732 618.165 302.387 618.143 302.084 618.1L300.389 614.234C300.187 613.794 299.982 613.287 299.773 612.711L299.741 612.722C299.827 613.773 299.87 614.849 299.87 615.951V618.1C299.647 618.143 299.377 618.165 299.06 618.165C298.743 618.165 298.477 618.143 298.261 618.1V610.756C298.535 610.691 298.862 610.659 299.244 610.659C299.633 610.659 299.978 610.68 300.281 610.724L301.955 614.579C302.257 615.292 302.48 615.839 302.624 616.221L302.667 616.199C302.581 615.198 302.538 614.136 302.538 613.013V611.696C302.538 611.321 302.613 611.055 302.765 610.896C302.916 610.731 303.161 610.648 303.499 610.648H304.071ZM308.646 612.149L308.656 612.948V618.1C308.412 618.143 308.12 618.165 307.782 618.165C307.443 618.165 307.159 618.143 306.928 618.1V612.149L306.237 612.16H305.125C305.082 611.951 305.06 611.714 305.06 611.447C305.06 611.174 305.082 610.932 305.125 610.724H310.471C310.528 610.911 310.557 611.138 310.557 611.404C310.557 611.67 310.485 611.865 310.341 611.987C310.197 612.102 309.967 612.16 309.65 612.16H309.337L308.656 612.149H308.646Z" fill="#041766"/>
</g>
</g>
<g id="gestionnaire">
<path id="Path 6" fill-rule="evenodd" clip-rule="evenodd" d="M259.213 261.432C259.213 261.432 192.941 260.276 213.938 225.433C234.934 190.591 175.011 158.526 195.887 121.245C216.763 83.9626 244.688 84.1595 284.024 94.0597C323.36 103.96 309.185 135.222 352.29 135.222C395.395 135.222 382.403 261.432 333.587 261.432C284.771 261.432 259.213 261.432 259.213 261.432Z" fill="#F2F9FF"/>
<path id="Path 7" d="M231.938 261.256H322.05" stroke="#041766" stroke-width="2.7" stroke-linecap="round"/>
<path id="Path 7_2" d="M332.237 260.85H345.737" stroke="#041766" stroke-width="2.7" stroke-linecap="round"/>
<path id="neck" fill-rule="evenodd" clip-rule="evenodd" d="M292.182 159.662L286.442 150.496L278.998 148.529L273.526 160.366" fill="#FFE1C1"/>
<g id="face_2">
<path id="face-2" fill-rule="evenodd" clip-rule="evenodd" d="M278.005 98.3927C267.826 100.496 262.085 113.934 265.182 128.408C268.278 142.882 279.041 152.911 289.219 150.808C299.398 148.706 305.139 135.267 302.044 120.794C298.949 106.321 288.183 96.2902 278.005 98.3927Z" fill="#FFE1C1"/>
<path id="SMILE" d="M295.384 141.419C295.384 141.419 289.984 141.414 289.563 134.762" stroke="#E1A15E" stroke-width="1.56816" stroke-linecap="round"/>
<g id="Eyes">
<path id="Path" fill-rule="evenodd" clip-rule="evenodd" d="M297.586 118.571C296.944 118.722 296.684 120.695 297.006 122.976C297.328 125.258 298.107 126.986 298.751 126.835C299.394 126.684 299.653 124.712 299.331 122.43C299.01 120.148 298.229 118.42 297.586 118.571Z" fill="#041766"/>
<path id="Forme_56" d="M298.211 126.209C298.211 126.209 275.744 124.263 273.609 126.209" stroke="#041766" stroke-width="1.56816"/>
<path id="Oval_5" fill-rule="evenodd" clip-rule="evenodd" d="M301.124 132.984C303.089 132.984 304.682 128.998 304.682 124.08C304.682 119.162 303.089 115.176 301.124 115.176C299.159 115.176 297.566 119.162 297.566 124.08C297.566 128.998 299.159 132.984 301.124 132.984Z" stroke="#041766" stroke-width="1.56816"/>
</g>
<path id="hair_2" fill-rule="evenodd" clip-rule="evenodd" d="M246.478 118.077C245.199 108.031 244.874 100.016 270.938 97.5169C286.448 95.7345 295.25 78.5258 307.276 86.1323C319.302 93.7389 316.783 103.746 297.102 109.444C277.421 115.142 287.743 127.891 277.293 127.219C266.843 126.547 275.252 134.026 275.252 134.026C275.252 134.026 282.423 146.35 278.616 149.751C274.808 153.152 248.266 132.116 246.478 118.077Z" fill="#041766"/>
</g>
<g id="body">
<path id="body-2" fill-rule="evenodd" clip-rule="evenodd" d="M342.465 249.839C342.465 249.839 372.658 250.478 348.754 208.121C324.849 165.764 304.741 158.215 283.496 157.905C262.25 157.594 252.79 160.782 218.236 215.847C191.511 258.665 242.61 249.839 242.61 249.839" fill="#FFD800"/>
<path id="Forme_95" fill-rule="evenodd" clip-rule="evenodd" d="M322.05 259.775L348.271 183.016L226.162 170.566L247.982 257.714L322.05 259.775Z" fill="url(#paint0_linear)"/>
<path id="Forme_60" d="M333.081 233.689C333.081 233.689 312.37 232.275 308.685 235.099" stroke="white" stroke-width="1.56816" stroke-linecap="round"/>
<path id="Forme_51" d="M318.091 205.399C318.091 205.399 312.061 196.005 312.587 190.72" stroke="white" stroke-width="1.56816" stroke-linecap="round"/>
<path id="Forme_52" d="M258.266 204.491C258.266 204.491 260.922 203.362 262.198 199.083" stroke="white" stroke-width="1.56816" stroke-linecap="round"/>
<path id="Forme_53" d="M245.413 236.841C245.413 236.841 239.62 233.735 231.26 233.75" stroke="white" stroke-width="1.56816" stroke-linecap="round"/>
<path id="Forme_54" d="M238.247 233.665L242.18 229.802" stroke="white" stroke-width="1.56816" stroke-linecap="round"/>
<path id="Path 12" fill-rule="evenodd" clip-rule="evenodd" d="M289.889 157.887L288.767 153.943H295.384C295.384 153.943 302.07 154.94 299.469 160.094C296.868 165.248 289.889 161.4 289.889 161.4L285.167 201L280.478 161.4C280.478 161.4 273.398 164.993 269.428 160.094C265.459 155.195 269.428 154.447 269.428 154.447L276.994 153.943L274.947 157.887H289.889Z" fill="white"/>
</g>
<g id="laptop">
<path id="Forme_55" fill-rule="evenodd" clip-rule="evenodd" d="M324.471 259.775L330.21 249.904H238.367L246.26 259.775" fill="#1D43AB"/>
<path id="Rectangle_arrondi_5" d="M247.627 203.374H322.291C323.468 203.374 324.422 204.328 324.422 205.505V260.474H245.495V205.505C245.495 204.328 246.449 203.374 247.627 203.374Z" fill="#3163EC"/>
<g id="logo">
<path id="Fill 1_2" fill-rule="evenodd" clip-rule="evenodd" d="M282.434 236.837C282.215 236.837 281.5 236.973 281.353 236.748C281.265 236.612 281.353 236.092 281.353 235.938V233.974V228.8V226.698C281.353 226.474 281.241 225.858 281.353 225.658C281.477 225.438 281.861 225.537 282.092 225.537H284.3H286.806H287.709C287.829 225.537 288.174 225.473 288.281 225.537C288.472 225.651 288.403 225.88 288.403 226.103V227.831V233.506C288.403 233.752 288.554 236.809 288.317 236.837H284.806H282.434ZM289.862 229.285C289.862 228.077 289.924 226.849 289.862 225.642C289.761 223.699 287.677 224.04 286.359 224.04C284.757 224.04 283.138 223.97 281.538 224.04C279.867 224.113 279.895 225.568 279.895 226.84C279.895 230.085 279.806 233.343 279.895 236.586C279.952 238.654 281.976 238.334 283.398 238.334H288.141C288.196 238.34 288.254 238.342 288.317 238.334C288.404 238.334 288.481 238.318 288.553 238.294C290.089 237.959 289.862 236.311 289.862 235.01V229.285Z" fill="white"/>
<path id="Fill 3_2" fill-rule="evenodd" clip-rule="evenodd" d="M289.859 234.037C290.155 234.266 290.45 234.494 290.745 234.723C291.494 235.303 292.222 234.004 291.481 233.43C290.939 233.01 290.396 232.59 289.854 232.17" fill="white"/>
<g id="Group 7">
<mask id="mask4" mask-type="alpha" maskUnits="userSpaceOnUse" x="277" y="228" width="12" height="7">
<path id="Clip 6" fill-rule="evenodd" clip-rule="evenodd" d="M277.967 228.428H288.4V234.752H277.967V228.428Z" fill="white"/>
</mask>
<g mask="url(#mask4)">
<path id="Fill 5" fill-rule="evenodd" clip-rule="evenodd" d="M288.389 231.036C287.313 230.203 286.236 229.369 285.16 228.536C284.976 228.393 284.608 228.392 284.424 228.536C282.375 230.128 280.325 231.72 278.275 233.313C277.537 233.887 278.263 235.187 279.012 234.605C280.939 233.108 282.866 231.611 284.792 230.114C285.995 231.045 287.197 231.976 288.4 232.907" fill="white"/>
</g>
</g>
<path id="Fill 8_2" fill-rule="evenodd" clip-rule="evenodd" d="M285.917 234.766C285.917 235.316 285.482 235.763 284.946 235.763C284.409 235.763 283.974 235.316 283.974 234.766C283.974 234.215 284.409 233.769 284.946 233.769C285.482 233.769 285.917 234.215 285.917 234.766Z" fill="white"/>
</g>
</g>
<g id="text_2">
<path id="gestionnaire_2" d="M235.453 279.789H234.6V282.1C234.37 282.143 234.082 282.165 233.736 282.165C233.383 282.165 233.095 282.143 232.872 282.1V274.777L232.948 274.702C233.574 274.687 234.092 274.677 234.503 274.669C234.92 274.662 235.237 274.659 235.453 274.659C235.849 274.659 236.209 274.713 236.533 274.821C236.864 274.929 237.145 275.091 237.376 275.307C237.606 275.523 237.782 275.793 237.905 276.117C238.034 276.433 238.099 276.801 238.099 277.218C238.099 277.636 238.034 278.007 237.905 278.331C237.775 278.647 237.595 278.914 237.365 279.13C237.134 279.346 236.854 279.511 236.522 279.627C236.198 279.735 235.842 279.789 235.453 279.789ZM234.6 275.976V278.493C234.802 278.485 234.96 278.482 235.075 278.482C235.198 278.475 235.277 278.471 235.313 278.471C235.507 278.471 235.669 278.439 235.799 278.374C235.928 278.302 236.033 278.212 236.112 278.104C236.191 277.989 236.249 277.855 236.285 277.704C236.321 277.553 236.339 277.395 236.339 277.229C236.339 277.071 236.321 276.916 236.285 276.765C236.249 276.613 236.191 276.48 236.112 276.365C236.04 276.25 235.943 276.16 235.82 276.095C235.698 276.023 235.554 275.987 235.388 275.987C235.223 275.987 235.075 275.987 234.946 275.987C234.816 275.987 234.701 275.983 234.6 275.976ZM244.591 277.002C244.591 277.24 244.555 277.467 244.483 277.683C244.411 277.891 244.314 278.082 244.192 278.255C244.076 278.421 243.936 278.568 243.77 278.698C243.612 278.82 243.446 278.914 243.274 278.979C243.648 279.115 243.925 279.447 244.105 279.972L244.429 280.89C244.552 281.25 244.732 281.517 244.969 281.689C244.861 281.833 244.699 281.956 244.483 282.057C244.267 282.15 244.03 282.197 243.77 282.197C243.511 282.197 243.31 282.125 243.166 281.981C243.022 281.83 242.888 281.571 242.766 281.203L242.377 280.069C242.298 279.853 242.19 279.688 242.053 279.573C241.924 279.457 241.726 279.4 241.459 279.4H241.016V282.1C240.786 282.143 240.498 282.165 240.152 282.165C239.807 282.165 239.522 282.143 239.299 282.1V274.777L239.375 274.702C240.001 274.687 240.527 274.677 240.952 274.669C241.384 274.662 241.722 274.659 241.967 274.659C242.363 274.659 242.723 274.709 243.047 274.81C243.371 274.903 243.644 275.047 243.868 275.242C244.098 275.436 244.274 275.681 244.397 275.976C244.526 276.271 244.591 276.613 244.591 277.002ZM241.016 275.955V278.071C241.34 278.071 241.618 278.068 241.848 278.061C242.078 278.046 242.262 278.003 242.399 277.931C242.543 277.852 242.651 277.744 242.723 277.607C242.795 277.47 242.831 277.272 242.831 277.013C242.831 276.315 242.492 275.965 241.816 275.965C241.65 275.965 241.499 275.965 241.362 275.965C241.232 275.965 241.117 275.962 241.016 275.955ZM247.473 280.091C247.667 280.653 248.059 280.933 248.65 280.933C248.945 280.933 249.183 280.861 249.363 280.717C249.55 280.566 249.694 280.379 249.795 280.156C249.903 279.925 249.975 279.67 250.011 279.389C250.047 279.108 250.065 278.831 250.065 278.557C250.065 278.305 250.054 278.025 250.032 277.715C250.018 277.405 249.967 277.117 249.881 276.851C249.795 276.577 249.658 276.351 249.471 276.171C249.283 275.983 249.01 275.89 248.65 275.89C248.304 275.89 248.038 275.98 247.851 276.16C247.671 276.333 247.534 276.549 247.44 276.808C247.354 277.067 247.3 277.344 247.278 277.639C247.257 277.927 247.246 278.183 247.246 278.406C247.246 278.737 247.26 279.033 247.289 279.292C247.325 279.551 247.386 279.817 247.473 280.091ZM246.598 281.581C245.827 280.941 245.442 279.886 245.442 278.417C245.442 277.783 245.514 277.229 245.658 276.754C245.809 276.271 246.022 275.868 246.295 275.544C246.576 275.22 246.915 274.975 247.311 274.81C247.707 274.644 248.153 274.561 248.65 274.561C249.147 274.561 249.593 274.644 249.989 274.81C250.392 274.975 250.731 275.224 251.004 275.555C251.285 275.879 251.497 276.282 251.641 276.765C251.793 277.24 251.868 277.791 251.868 278.417C251.868 279.043 251.793 279.598 251.641 280.08C251.497 280.555 251.285 280.955 251.004 281.279C250.731 281.603 250.392 281.848 249.989 282.013C249.593 282.179 249.147 282.262 248.65 282.262C247.829 282.262 247.145 282.035 246.598 281.581ZM255.726 279.789H254.873V282.1C254.643 282.143 254.355 282.165 254.009 282.165C253.656 282.165 253.368 282.143 253.145 282.1V274.777L253.221 274.702C253.847 274.687 254.366 274.677 254.776 274.669C255.194 274.662 255.51 274.659 255.726 274.659C256.122 274.659 256.482 274.713 256.806 274.821C257.138 274.929 257.418 275.091 257.649 275.307C257.879 275.523 258.056 275.793 258.178 276.117C258.308 276.433 258.372 276.801 258.372 277.218C258.372 277.636 258.308 278.007 258.178 278.331C258.048 278.647 257.868 278.914 257.638 279.13C257.408 279.346 257.127 279.511 256.796 279.627C256.472 279.735 256.115 279.789 255.726 279.789ZM254.873 275.976V278.493C255.075 278.485 255.233 278.482 255.348 278.482C255.471 278.475 255.55 278.471 255.586 278.471C255.78 278.471 255.942 278.439 256.072 278.374C256.202 278.302 256.306 278.212 256.385 278.104C256.464 277.989 256.522 277.855 256.558 277.704C256.594 277.553 256.612 277.395 256.612 277.229C256.612 277.071 256.594 276.916 256.558 276.765C256.522 276.613 256.464 276.48 256.385 276.365C256.313 276.25 256.216 276.16 256.094 276.095C255.971 276.023 255.827 275.987 255.662 275.987C255.496 275.987 255.348 275.987 255.219 275.987C255.089 275.987 254.974 275.983 254.873 275.976ZM261.268 279.918L261.257 280.696V280.707C261.588 280.692 261.855 280.685 262.056 280.685H264.562C264.562 280.951 264.551 281.157 264.53 281.301C264.443 281.855 264.076 282.132 263.428 282.132H260.555C260.246 282.132 260.001 282.042 259.821 281.862C259.648 281.682 259.562 281.437 259.562 281.128V274.799L259.637 274.723H264.292C264.335 274.932 264.357 275.159 264.357 275.404C264.357 275.649 264.306 275.904 264.206 276.171H261.257L261.268 276.948V277.704C261.455 277.697 261.7 277.693 262.002 277.693H263.655C263.72 277.895 263.752 278.125 263.752 278.385C263.752 278.644 263.72 278.881 263.655 279.097H261.268V279.918ZM271.123 277.002C271.123 277.24 271.087 277.467 271.015 277.683C270.943 277.891 270.846 278.082 270.723 278.255C270.608 278.421 270.468 278.568 270.302 278.698C270.144 278.82 269.978 278.914 269.805 278.979C270.18 279.115 270.457 279.447 270.637 279.972L270.961 280.89C271.083 281.25 271.263 281.517 271.501 281.689C271.393 281.833 271.231 281.956 271.015 282.057C270.799 282.15 270.561 282.197 270.302 282.197C270.043 282.197 269.841 282.125 269.697 281.981C269.553 281.83 269.42 281.571 269.298 281.203L268.909 280.069C268.83 279.853 268.722 279.688 268.585 279.573C268.455 279.457 268.257 279.4 267.991 279.4H267.548V282.1C267.318 282.143 267.03 282.165 266.684 282.165C266.339 282.165 266.054 282.143 265.831 282.1V274.777L265.907 274.702C266.533 274.687 267.059 274.677 267.483 274.669C267.915 274.662 268.254 274.659 268.499 274.659C268.895 274.659 269.255 274.709 269.579 274.81C269.903 274.903 270.176 275.047 270.399 275.242C270.63 275.436 270.806 275.681 270.929 275.976C271.058 276.271 271.123 276.613 271.123 277.002ZM267.548 275.955V278.071C267.872 278.071 268.149 278.068 268.38 278.061C268.61 278.046 268.794 278.003 268.931 277.931C269.075 277.852 269.183 277.744 269.255 277.607C269.327 277.47 269.363 277.272 269.363 277.013C269.363 276.315 269.024 275.965 268.347 275.965C268.182 275.965 268.031 275.965 267.894 275.965C267.764 275.965 267.649 275.962 267.548 275.955ZM275.235 276.149L275.246 276.948V282.1C275.001 282.143 274.709 282.165 274.371 282.165C274.032 282.165 273.748 282.143 273.518 282.1V276.149L272.826 276.16H271.714C271.671 275.951 271.649 275.713 271.649 275.447C271.649 275.173 271.671 274.932 271.714 274.723H277.06C277.118 274.911 277.146 275.137 277.146 275.404C277.146 275.67 277.074 275.865 276.93 275.987C276.786 276.102 276.556 276.16 276.239 276.16H275.926L275.246 276.149H275.235ZM280.732 276.549L281.456 274.723C281.643 274.68 281.884 274.659 282.179 274.659C282.496 274.659 282.77 274.702 283 274.788L283.076 274.875L280.981 279.832V282.1C280.757 282.143 280.469 282.165 280.117 282.165C279.764 282.165 279.476 282.143 279.253 282.1V279.789L277.168 274.929C277.499 274.734 277.816 274.637 278.119 274.637C278.421 274.637 278.637 274.691 278.767 274.799C278.903 274.9 279.022 275.076 279.123 275.328L279.641 276.613C279.829 277.074 279.991 277.589 280.127 278.158H280.192C280.307 277.704 280.487 277.168 280.732 276.549ZM286.145 282.078L286.718 274.734C287.034 274.677 287.409 274.648 287.841 274.648C288.273 274.648 288.651 274.677 288.975 274.734L289.612 277.38C289.864 278.575 289.997 279.227 290.012 279.335H290.087C290.116 279.155 290.249 278.503 290.487 277.38L291.135 274.734C291.452 274.677 291.826 274.648 292.258 274.648C292.69 274.648 293.068 274.677 293.392 274.734L293.964 282.078C293.741 282.136 293.464 282.165 293.133 282.165C292.809 282.165 292.542 282.147 292.334 282.111L292.161 279.108C292.11 277.913 292.082 277.081 292.074 276.613H292.01L290.94 281.009C290.681 281.052 290.382 281.074 290.044 281.074C289.713 281.074 289.418 281.052 289.158 281.009L288.1 276.613H288.024C288.024 277.254 287.996 278.086 287.938 279.108L287.776 282.111C287.567 282.147 287.297 282.165 286.966 282.165C286.642 282.165 286.368 282.136 286.145 282.078ZM297.229 280.555C297.034 280.555 296.89 280.552 296.797 280.545L296.332 282.111C296.16 282.154 295.918 282.175 295.609 282.175C295.263 282.175 294.982 282.136 294.766 282.057L294.712 281.97L297.088 274.723C297.369 274.68 297.697 274.659 298.071 274.659C298.496 274.659 298.834 274.684 299.086 274.734L301.419 281.992C301.167 282.129 300.883 282.197 300.566 282.197C300.192 282.197 299.929 282.132 299.778 282.003C299.626 281.873 299.497 281.625 299.389 281.257L299.184 280.545C299.09 280.552 298.95 280.555 298.762 280.555H297.229ZM297.196 279.195L297.628 279.184H298.417C298.453 279.184 298.514 279.187 298.6 279.195C298.694 279.195 298.762 279.195 298.806 279.195L298.622 278.525C298.449 277.92 298.251 277.179 298.028 276.3H297.963C297.906 276.61 297.733 277.297 297.445 278.363L297.196 279.195ZM308.201 274.648L308.277 274.723V282.067C307.989 282.132 307.647 282.165 307.251 282.165C306.862 282.165 306.516 282.143 306.214 282.1L304.518 278.233C304.317 277.794 304.111 277.287 303.903 276.711L303.87 276.721C303.957 277.773 304 278.849 304 279.951V282.1C303.777 282.143 303.507 282.165 303.19 282.165C302.873 282.165 302.607 282.143 302.391 282.1V274.756C302.664 274.691 302.992 274.659 303.373 274.659C303.762 274.659 304.108 274.68 304.41 274.723L306.084 278.579C306.387 279.292 306.61 279.839 306.754 280.221L306.797 280.199C306.711 279.198 306.667 278.136 306.667 277.013V275.695C306.667 275.321 306.743 275.055 306.894 274.896C307.045 274.731 307.29 274.648 307.629 274.648H308.201ZM311.771 280.555C311.577 280.555 311.433 280.552 311.339 280.545L310.875 282.111C310.702 282.154 310.461 282.175 310.151 282.175C309.805 282.175 309.525 282.136 309.309 282.057L309.255 281.97L311.631 274.723C311.911 274.68 312.239 274.659 312.613 274.659C313.038 274.659 313.377 274.684 313.629 274.734L315.961 281.992C315.709 282.129 315.425 282.197 315.108 282.197C314.734 282.197 314.471 282.132 314.32 282.003C314.169 281.873 314.039 281.625 313.931 281.257L313.726 280.545C313.632 280.552 313.492 280.555 313.305 280.555H311.771ZM311.739 279.195L312.171 279.184H312.959C312.995 279.184 313.056 279.187 313.143 279.195C313.236 279.195 313.305 279.195 313.348 279.195L313.164 278.525C312.991 277.92 312.793 277.179 312.57 276.3H312.505C312.448 276.61 312.275 277.297 311.987 278.363L311.739 279.195ZM319.784 277.909L321.48 277.899C322.243 277.899 322.624 278.259 322.624 278.979V281.819C321.696 282.114 320.72 282.262 319.698 282.262C319.179 282.262 318.718 282.175 318.315 282.003C317.919 281.83 317.584 281.581 317.311 281.257C317.044 280.933 316.843 280.537 316.706 280.069C316.569 279.594 316.501 279.058 316.501 278.46C316.501 277.805 316.594 277.236 316.782 276.754C316.976 276.264 317.232 275.857 317.548 275.533C317.872 275.209 318.243 274.968 318.661 274.81C319.078 274.644 319.514 274.561 319.968 274.561C320.904 274.561 321.782 274.821 322.603 275.339C322.596 275.454 322.567 275.573 322.516 275.695C322.473 275.811 322.416 275.926 322.344 276.041C322.279 276.149 322.2 276.25 322.106 276.343C322.02 276.43 321.93 276.505 321.836 276.57C321.238 276.181 320.634 275.987 320.022 275.987C318.848 275.987 318.261 276.808 318.261 278.449C318.261 280.084 318.862 280.901 320.065 280.901C320.23 280.901 320.389 280.894 320.54 280.879C320.698 280.865 320.853 280.843 321.004 280.815V280.091C321.004 279.925 321.004 279.781 321.004 279.659C321.012 279.537 321.019 279.432 321.026 279.346H320.486C320.176 279.346 319.96 279.288 319.838 279.173C319.723 279.051 319.665 278.863 319.665 278.611C319.665 278.395 319.705 278.161 319.784 277.909ZM325.762 279.918L325.751 280.696V280.707C326.083 280.692 326.349 280.685 326.551 280.685H329.056C329.056 280.951 329.045 281.157 329.024 281.301C328.937 281.855 328.57 282.132 327.922 282.132H325.049C324.74 282.132 324.495 282.042 324.315 281.862C324.142 281.682 324.056 281.437 324.056 281.128V274.799L324.131 274.723H328.786C328.829 274.932 328.851 275.159 328.851 275.404C328.851 275.649 328.801 275.904 328.7 276.171H325.751L325.762 276.948V277.704C325.949 277.697 326.194 277.693 326.497 277.693H328.149C328.214 277.895 328.246 278.125 328.246 278.385C328.246 278.644 328.214 278.881 328.149 279.097H325.762V279.918ZM335.617 277.002C335.617 277.24 335.581 277.467 335.509 277.683C335.437 277.891 335.34 278.082 335.218 278.255C335.102 278.421 334.962 278.568 334.796 278.698C334.638 278.82 334.472 278.914 334.3 278.979C334.674 279.115 334.951 279.447 335.131 279.972L335.455 280.89C335.578 281.25 335.758 281.517 335.995 281.689C335.887 281.833 335.725 281.956 335.509 282.057C335.293 282.15 335.056 282.197 334.796 282.197C334.537 282.197 334.336 282.125 334.192 281.981C334.048 281.83 333.914 281.571 333.792 281.203L333.403 280.069C333.324 279.853 333.216 279.688 333.079 279.573C332.95 279.457 332.752 279.4 332.485 279.4H332.042V282.1C331.812 282.143 331.524 282.165 331.178 282.165C330.833 282.165 330.548 282.143 330.325 282.1V274.777L330.401 274.702C331.027 274.687 331.553 274.677 331.978 274.669C332.41 274.662 332.748 274.659 332.993 274.659C333.389 274.659 333.749 274.709 334.073 274.81C334.397 274.903 334.67 275.047 334.894 275.242C335.124 275.436 335.3 275.681 335.423 275.976C335.552 276.271 335.617 276.613 335.617 277.002ZM332.042 275.955V278.071C332.366 278.071 332.644 278.068 332.874 278.061C333.104 278.046 333.288 278.003 333.425 277.931C333.569 277.852 333.677 277.744 333.749 277.607C333.821 277.47 333.857 277.272 333.857 277.013C333.857 276.315 333.518 275.965 332.842 275.965C332.676 275.965 332.525 275.965 332.388 275.965C332.258 275.965 332.143 275.962 332.042 275.955Z" fill="#041766"/>
</g>
</g>
<g id="propri&#195;&#169;taire">
<path id="Path 9" fill-rule="evenodd" clip-rule="evenodd" d="M475.044 595.525L427.61 596.091C427.61 596.091 367.657 544.309 396.213 524.554C424.769 504.8 400.708 436.7 419.555 429.308C438.403 421.915 490.857 420.047 523.257 452.371C555.657 484.695 549.261 512.554 531.82 539.277C514.38 566 513.07 594.8 513.07 594.8L475.044 595.525Z" fill="#F2F9FF"/>
<g id="propri&#195;&#169;taire_2">
<path id="face_3" fill-rule="evenodd" clip-rule="evenodd" d="M460.396 429.547C471.985 427.441 483.873 439.453 486.949 456.376C490.026 473.299 483.121 488.726 471.532 490.832C459.943 492.939 448.055 480.927 444.978 464.004C441.902 447.081 448.806 431.654 460.396 429.547Z" fill="#E49F56"/>
<path id="neck_2" fill-rule="evenodd" clip-rule="evenodd" d="M463.888 489.824C463.888 489.824 461.66 504.314 458.225 505.679C454.79 507.044 474.835 502.282 474.835 502.282L475.213 485.671" fill="#E49F56"/>
<path id="body_2" fill-rule="evenodd" clip-rule="evenodd" d="M473.428 495.798C473.428 495.798 454.424 504.564 448.787 510.587C443.151 516.609 434.405 530.481 435.952 544.94C437.5 559.398 450.297 583.965 443.125 595.525C460.49 595.525 478.238 595.525 487.681 595.525C476.488 566.218 487.459 567.316 495.22 537.39C502.982 507.463 497.864 495.975 473.428 495.798Z" fill="#3163EC"/>
<path id="arm_2" fill-rule="evenodd" clip-rule="evenodd" d="M448.787 539.277C457.512 548.831 471.192 553.559 476.345 552.489C466.945 566.055 461.088 575.977 449.603 595.525C442.755 596.799 446.033 595.525 437.311 595.525C437.971 591.291 441.228 567.735 448.787 539.277Z" fill="#E49F56"/>
<path id="Forme_23" d="M456.337 524.554L448.787 539.277C448.787 539.277 456.749 549.759 475.968 552.867" stroke="white" stroke-width="1.13251" stroke-linecap="round"/>
<path id="hair_3" fill-rule="evenodd" clip-rule="evenodd" d="M424.25 427.536C434.269 412.685 444.461 428.792 457.093 420.741C469.724 412.689 504.952 404.304 506.818 435.107C507.918 453.256 491.014 485.509 476.345 491.072C466.86 494.669 468.917 473.291 471.815 467.929C479.195 454.274 474.707 452.784 469.928 457.359C465.148 461.933 414.231 442.387 424.25 427.536Z" fill="#041766"/>
<path id="mouth" d="M457.092 480.764C457.092 480.764 461.985 483.331 463.888 475.479" stroke="#A15E18" stroke-width="1.13251" stroke-linecap="round"/>
<g id="eyes">
<path id="Oval_6" fill-rule="evenodd" clip-rule="evenodd" d="M458.893 466.736C459.503 466.595 459.693 465.162 459.318 463.534C458.942 461.907 458.143 460.702 457.533 460.843C456.922 460.984 456.732 462.417 457.108 464.044C457.484 465.672 458.283 466.877 458.893 466.736Z" fill="#00166A"/>
<path id="Oval_7" fill-rule="evenodd" clip-rule="evenodd" d="M448.498 466.736C449.108 466.595 449.299 465.162 448.923 463.534C448.547 461.907 447.748 460.702 447.138 460.843C446.527 460.984 446.337 462.417 446.713 464.044C447.089 465.672 447.888 466.877 448.498 466.736Z" fill="#00166A"/>
<path id="Forme_21" d="M462.391 462.074C462.391 462.074 477.801 449.886 483.909 451.126" stroke="#041766" stroke-width="1.13251"/>
<path id="Path_2" fill-rule="evenodd" clip-rule="evenodd" d="M454.889 453.428C457.837 452.766 461.137 456.269 462.258 461.253C463.379 466.236 461.892 470.814 458.943 471.476C455.995 472.139 452.696 468.636 451.574 463.651C450.453 458.667 451.941 454.088 454.889 453.428Z" stroke="#041766" stroke-width="1.13251"/>
<path id="Path_3" fill-rule="evenodd" clip-rule="evenodd" d="M441.659 453.428C444.607 452.766 447.907 456.269 449.028 461.253C450.149 466.236 448.662 470.814 445.713 471.476C442.765 472.139 439.466 468.636 438.344 463.651C437.223 458.667 438.711 454.088 441.659 453.428Z" stroke="#041766" stroke-width="1.13251"/>
</g>
<path id="Oval_8" fill-rule="evenodd" clip-rule="evenodd" d="M471.916 486.332C474.004 486.332 475.696 482.778 475.696 478.394C475.696 474.01 474.004 470.456 471.916 470.456C469.828 470.456 468.136 474.01 468.136 478.394C468.136 482.778 469.828 486.332 471.916 486.332Z" stroke="#FFD700" stroke-width="1.512"/>
<path id="Oval_9" fill-rule="evenodd" clip-rule="evenodd" d="M471.916 469.7C472.751 469.7 473.428 469.023 473.428 468.188C473.428 467.353 472.751 466.676 471.916 466.676C471.081 466.676 470.404 467.353 470.404 468.188C470.404 469.023 471.081 469.7 471.916 469.7Z" fill="#FFD700"/>
<path id="Forme_981" d="M465.21 489.824C465.21 489.824 467.343 491.143 471.25 489.824" stroke="#041766" stroke-width="1.13251" stroke-linecap="round"/>
</g>
<path id="Path 11" d="M418.58 596.092H499.118" stroke="#041766" stroke-width="2.7" stroke-linecap="round"/>
<path id="Path 11_2" d="M508.58 596.092L516.97 596.15" stroke="#041766" stroke-width="2.7" stroke-linecap="round"/>
<g id="text_3">
<path id="propri&#195;&#169;taire_3" d="M444.017 615.942H445.886C445.886 616.23 445.868 616.478 445.832 616.687C445.796 616.889 445.68 617.065 445.486 617.216C445.292 617.36 445.036 617.432 444.719 617.432H442.278C441.969 617.432 441.724 617.342 441.544 617.162C441.364 616.982 441.274 616.738 441.274 616.428V610.024L441.35 609.948H441.987C442.664 609.948 443.002 610.315 443.002 611.05V615.985C443.319 615.956 443.657 615.942 444.017 615.942ZM448.788 615.856C448.593 615.856 448.449 615.852 448.356 615.845L447.891 617.411C447.718 617.454 447.477 617.476 447.168 617.476C446.822 617.476 446.541 617.436 446.325 617.357L446.271 617.27L448.647 610.024C448.928 609.98 449.256 609.959 449.63 609.959C450.055 609.959 450.393 609.984 450.645 610.034L452.978 617.292C452.726 617.429 452.442 617.497 452.125 617.497C451.75 617.497 451.488 617.432 451.336 617.303C451.185 617.173 451.056 616.925 450.948 616.558L450.742 615.845C450.649 615.852 450.508 615.856 450.321 615.856H448.788ZM448.755 614.495L449.187 614.484H449.976C450.012 614.484 450.073 614.488 450.159 614.495C450.253 614.495 450.321 614.495 450.364 614.495L450.181 613.825C450.008 613.22 449.81 612.479 449.587 611.6H449.522C449.464 611.91 449.292 612.598 449.004 613.663L448.755 614.495ZM459.76 609.948L459.835 610.024V617.368C459.547 617.432 459.205 617.465 458.809 617.465C458.421 617.465 458.075 617.443 457.773 617.4L456.077 613.534C455.875 613.094 455.67 612.587 455.461 612.011L455.429 612.022C455.515 613.073 455.559 614.149 455.559 615.251V617.4C455.335 617.443 455.065 617.465 454.749 617.465C454.432 617.465 454.165 617.443 453.949 617.4V610.056C454.223 609.991 454.551 609.959 454.932 609.959C455.321 609.959 455.667 609.98 455.969 610.024L457.643 613.879C457.945 614.592 458.169 615.139 458.313 615.521L458.356 615.499C458.269 614.498 458.226 613.436 458.226 612.313V610.996C458.226 610.621 458.302 610.355 458.453 610.196C458.604 610.031 458.849 609.948 459.187 609.948H459.76ZM466.31 616.925C466.08 617.112 465.778 617.249 465.403 617.335C465.029 617.422 464.615 617.465 464.161 617.465C463.938 617.465 463.614 617.461 463.189 617.454C462.772 617.447 462.246 617.436 461.612 617.422L461.537 617.346V610.078L461.612 610.002C462.03 609.988 462.462 609.977 462.908 609.97C463.362 609.962 463.837 609.959 464.334 609.959C464.946 609.959 465.457 610.056 465.868 610.25C466.278 610.445 466.606 610.711 466.85 611.05C467.095 611.388 467.268 611.788 467.369 612.248C467.47 612.702 467.52 613.192 467.52 613.717C467.52 614.437 467.437 615.06 467.272 615.586C467.106 616.111 466.786 616.558 466.31 616.925ZM464.323 616.115C465.274 616.115 465.749 615.316 465.749 613.717C465.749 612.112 465.274 611.309 464.323 611.309C464.093 611.309 463.888 611.309 463.708 611.309C463.535 611.309 463.384 611.305 463.254 611.298V616.126C463.384 616.118 463.535 616.115 463.708 616.115C463.888 616.115 464.093 616.115 464.323 616.115ZM471.54 615.942H473.409C473.409 616.23 473.391 616.478 473.355 616.687C473.319 616.889 473.203 617.065 473.009 617.216C472.815 617.36 472.559 617.432 472.242 617.432H469.801C469.492 617.432 469.247 617.342 469.067 617.162C468.887 616.982 468.797 616.738 468.797 616.428V610.024L468.873 609.948H469.51C470.187 609.948 470.525 610.315 470.525 611.05V615.985C470.842 615.956 471.18 615.942 471.54 615.942ZM475.969 615.391C476.163 615.953 476.555 616.234 477.146 616.234C477.441 616.234 477.679 616.162 477.859 616.018C478.046 615.866 478.19 615.679 478.291 615.456C478.399 615.226 478.471 614.97 478.507 614.689C478.543 614.408 478.561 614.131 478.561 613.858C478.561 613.606 478.55 613.325 478.528 613.015C478.514 612.706 478.463 612.418 478.377 612.151C478.291 611.878 478.154 611.651 477.967 611.471C477.779 611.284 477.506 611.19 477.146 611.19C476.8 611.19 476.534 611.28 476.347 611.46C476.167 611.633 476.03 611.849 475.936 612.108C475.85 612.367 475.796 612.644 475.774 612.94C475.753 613.228 475.742 613.483 475.742 613.706C475.742 614.038 475.756 614.333 475.785 614.592C475.821 614.851 475.882 615.118 475.969 615.391ZM475.094 616.882C474.323 616.241 473.938 615.186 473.938 613.717C473.938 613.084 474.01 612.529 474.154 612.054C474.305 611.572 474.518 611.168 474.791 610.844C475.072 610.52 475.411 610.276 475.807 610.11C476.203 609.944 476.649 609.862 477.146 609.862C477.643 609.862 478.089 609.944 478.485 610.11C478.888 610.276 479.227 610.524 479.5 610.855C479.781 611.179 479.993 611.582 480.137 612.065C480.289 612.54 480.364 613.091 480.364 613.717C480.364 614.344 480.289 614.898 480.137 615.38C479.993 615.856 479.781 616.255 479.5 616.579C479.227 616.903 478.888 617.148 478.485 617.314C478.089 617.479 477.643 617.562 477.146 617.562C476.325 617.562 475.641 617.335 475.094 616.882ZM486.933 612.302C486.933 612.54 486.897 612.767 486.825 612.983C486.753 613.192 486.656 613.382 486.534 613.555C486.419 613.721 486.278 613.868 486.113 613.998C485.954 614.12 485.789 614.214 485.616 614.279C485.99 614.416 486.267 614.747 486.447 615.272L486.771 616.19C486.894 616.55 487.074 616.817 487.311 616.99C487.203 617.134 487.041 617.256 486.825 617.357C486.609 617.45 486.372 617.497 486.113 617.497C485.853 617.497 485.652 617.425 485.508 617.281C485.364 617.13 485.231 616.871 485.108 616.504L484.719 615.37C484.64 615.154 484.532 614.988 484.395 614.873C484.266 614.758 484.068 614.7 483.801 614.7H483.359V617.4C483.128 617.443 482.84 617.465 482.495 617.465C482.149 617.465 481.865 617.443 481.641 617.4V610.078L481.717 610.002C482.343 609.988 482.869 609.977 483.294 609.97C483.726 609.962 484.064 609.959 484.309 609.959C484.705 609.959 485.065 610.009 485.389 610.11C485.713 610.204 485.987 610.348 486.21 610.542C486.44 610.736 486.617 610.981 486.739 611.276C486.869 611.572 486.933 611.914 486.933 612.302ZM483.359 611.255V613.372C483.683 613.372 483.96 613.368 484.19 613.361C484.421 613.346 484.604 613.303 484.741 613.231C484.885 613.152 484.993 613.044 485.065 612.907C485.137 612.77 485.173 612.572 485.173 612.313C485.173 611.615 484.835 611.266 484.158 611.266C483.992 611.266 483.841 611.266 483.704 611.266C483.575 611.266 483.459 611.262 483.359 611.255ZM493.127 616.925C492.897 617.112 492.594 617.249 492.22 617.335C491.845 617.422 491.431 617.465 490.978 617.465C490.755 617.465 490.431 617.461 490.006 617.454C489.588 617.447 489.063 617.436 488.429 617.422L488.353 617.346V610.078L488.429 610.002C488.847 609.988 489.279 609.977 489.725 609.97C490.179 609.962 490.654 609.959 491.151 609.959C491.763 609.959 492.274 610.056 492.684 610.25C493.095 610.445 493.422 610.711 493.667 611.05C493.912 611.388 494.085 611.788 494.185 612.248C494.286 612.702 494.337 613.192 494.337 613.717C494.337 614.437 494.254 615.06 494.088 615.586C493.923 616.111 493.602 616.558 493.127 616.925ZM491.14 616.115C492.09 616.115 492.565 615.316 492.565 613.717C492.565 612.112 492.09 611.309 491.14 611.309C490.909 611.309 490.704 611.309 490.524 611.309C490.351 611.309 490.2 611.305 490.071 611.298V616.126C490.2 616.118 490.351 616.115 490.524 616.115C490.704 616.115 490.909 616.115 491.14 616.115Z" fill="#041766"/>
</g>
</g>
<g id="prestataire">
<path id="Path 6_2" fill-rule="evenodd" clip-rule="evenodd" d="M120.187 597.832C120.187 597.832 186.459 596.677 165.463 561.834C144.466 526.991 204.389 494.927 183.513 457.645C162.637 420.363 134.712 420.56 95.3763 430.46C56.0405 440.36 70.2149 471.622 27.1099 471.622C-15.9952 471.622 -3.00267 597.832 45.813 597.832C94.6286 597.832 120.187 597.832 120.187 597.832Z" fill="#F2F9FF"/>
<g id="gestionnair_copie">
<path id="face_4" fill-rule="evenodd" clip-rule="evenodd" d="M103.123 431.037C92.6521 427.974 80.697 437.403 76.4167 452.098C72.1364 466.793 77.1616 481.188 87.6311 484.252C98.1007 487.316 110.059 477.886 114.337 463.191C118.615 448.497 113.594 434.1 103.123 431.037Z" fill="#FFDBB5"/>
<path id="hair_4" fill-rule="evenodd" clip-rule="evenodd" d="M84.6047 476.151C84.6047 476.151 72.7769 467.074 73.1127 470.392C73.4484 473.709 76.8963 465.201 70.3531 452.92C85.852 440.722 108.783 460.576 101.122 455.994C93.4615 451.412 95.5692 457.47 96.0949 462.473C96.6205 467.477 87.4931 472.907 84.6047 476.151Z" fill="#041766"/>
<g id="eyes_sunglass">
<path id="Path_4" fill-rule="evenodd" clip-rule="evenodd" d="M111.007 463.627C110.569 463.404 109.491 464.418 108.599 465.892C107.707 467.367 107.339 468.742 107.777 468.965C108.215 469.188 109.294 468.175 110.186 466.701C111.077 465.226 111.447 463.85 111.007 463.627Z" fill="#041766"/>
</g>
<path id="col_chemise" fill-rule="evenodd" clip-rule="evenodd" d="M93.222 486.23L94.6587 480.471C94.6587 480.471 69.3739 464.236 65.7722 469.991C62.1705 475.746 65.7722 479.716 65.7722 479.716" fill="#FF9000"/>
<g id="Ipad">
<path id="Rectangle_arrondi_3" fill-rule="evenodd" clip-rule="evenodd" d="M164.494 493.748L136.318 475.116C135.325 474.459 133.989 474.734 133.333 475.73L98.9268 528.011C98.6122 528.489 98.5 529.073 98.6148 529.634C98.7296 530.196 99.062 530.688 99.5388 531.003L127.715 549.635C128.708 550.292 130.044 550.018 130.7 549.022L165.106 496.74C165.421 496.262 165.533 495.678 165.419 495.117C165.304 494.556 164.971 494.063 164.494 493.748Z" fill="#F8F9FF" stroke="#1631A0" stroke-width="1.485"/>
<path id="Forme_1312" fill-rule="evenodd" clip-rule="evenodd" d="M137.581 538.481L97.4379 493.29L133.194 447.799L164.405 495.24L137.581 538.481Z" fill="url(#paint1_linear)"/>
<path id="Forme_1312_2" fill-rule="evenodd" clip-rule="evenodd" d="M137.581 538.481L97.4379 493.29L133.194 447.799L164.405 495.24L137.581 538.481Z" fill="url(#paint2_linear)"/>
<path id="Rectangle_arrondi_4_copie_3" fill-rule="evenodd" clip-rule="evenodd" d="M162.109 495.019L135.254 478.348C134.911 478.108 134.438 478.191 134.197 478.535L103.862 524.858C103.66 525.226 103.793 525.689 104.16 525.892L132.814 540.765C133.158 541.004 133.63 540.92 133.871 540.577L162.407 496.053C162.608 495.685 162.109 495.019 162.109 495.019Z" fill="#DEEDF9"/>
<path id="Fill 1_3" fill-rule="evenodd" clip-rule="evenodd" d="M147.171 494.897L146.14 494.302C146.014 494.229 145.975 494.059 146.054 493.922L147.157 492.012C147.235 491.875 147.402 491.824 147.529 491.897L148.559 492.492C148.686 492.565 148.725 492.735 148.646 492.872L148.59 492.969C148.585 492.986 148.581 493.002 148.577 493.018C148.575 493.028 148.574 493.038 148.572 493.048C148.572 493.053 148.571 493.057 148.57 493.062C148.569 493.071 148.569 493.08 148.567 493.089C148.567 493.095 148.567 493.1 148.567 493.105C148.566 493.114 148.566 493.123 148.566 493.132C148.566 493.137 148.566 493.143 148.566 493.149C148.566 493.157 148.567 493.166 148.567 493.174C148.568 493.18 148.568 493.186 148.569 493.191C148.57 493.2 148.571 493.208 148.572 493.216C148.573 493.222 148.574 493.228 148.575 493.234C148.577 493.242 148.578 493.25 148.58 493.258C148.582 493.264 148.583 493.27 148.585 493.276C148.587 493.283 148.589 493.291 148.591 493.298C148.595 493.311 148.6 493.323 148.605 493.336C148.607 493.341 148.61 493.347 148.612 493.352C148.616 493.36 148.619 493.367 148.623 493.374C148.625 493.38 148.629 493.385 148.632 493.391C148.636 493.397 148.639 493.404 148.643 493.411C148.647 493.416 148.65 493.421 148.654 493.427C148.658 493.433 148.663 493.439 148.667 493.446C148.671 493.451 148.675 493.456 148.679 493.461C148.684 493.467 148.689 493.473 148.695 493.479C148.699 493.483 148.703 493.488 148.707 493.492C148.713 493.498 148.719 493.504 148.726 493.51C148.73 493.514 148.734 493.517 148.738 493.521C148.745 493.527 148.753 493.533 148.761 493.539C148.765 493.542 148.768 493.545 148.772 493.548C148.784 493.556 148.796 493.564 148.809 493.572C148.924 493.638 149.056 493.65 149.179 493.617L149.238 493.583L149.229 493.602C149.229 493.602 149.815 493.149 150.232 493.262C150.572 493.373 150.908 493.521 151.233 493.709C153.444 494.985 154.327 497.592 153.207 499.532C153.196 499.551 153.185 499.569 153.174 499.588C153.126 499.668 153.028 499.698 152.953 499.654C152.891 499.618 152.864 499.543 152.884 499.471L152.883 499.471C153.183 498.508 152.837 497.465 151.987 496.974C151.124 496.476 150.027 496.713 149.345 497.482L149.019 498.047C149.051 498.075 149.081 498.101 149.106 498.125C149.211 498.225 149.239 498.377 149.173 498.495L147.309 501.857L147.172 502.105L146.799 502.777L145.043 505.945L144.457 507.001C144.35 507.194 144.118 507.268 143.939 507.165L142.415 506.285C142.237 506.182 142.184 505.944 142.298 505.754L142.92 504.719L144.785 501.614L145.18 500.956L145.326 500.713L147.306 497.417C147.376 497.302 147.521 497.25 147.66 497.29C147.695 497.301 147.735 497.314 147.777 497.329L148.338 496.358L148.336 496.356C148.597 495.85 148.619 495.283 148.437 494.806L148.432 494.806C148.392 494.711 148.324 494.629 148.23 494.574C148.025 494.456 147.766 494.509 147.599 494.685L147.543 494.783C147.464 494.919 147.298 494.97 147.171 494.897Z" fill="#ACCBE0"/>
<path id="Fill 1_4" fill-rule="evenodd" clip-rule="evenodd" d="M137.203 485.539C136.658 485.212 135.965 485.375 135.614 485.96L135.358 486.386L134.158 485.665L132.624 488.219L137.273 493.33L136.602 494.447C136.047 494.258 135.474 494.348 135.09 494.987L133.044 498.392C132.692 498.977 132.896 499.751 133.496 500.111C134.15 500.505 134.929 500.321 135.28 499.735L137.326 496.33C137.71 495.692 137.52 495.143 137.093 494.742L137.988 493.252L133.338 488.141L134.361 486.439L135.07 486.865L134.815 487.29C134.495 487.822 134.644 488.563 135.189 488.891L142.771 493.447C143.371 493.807 144.095 493.591 144.415 493.059L145.214 491.729C145.566 491.143 145.385 490.456 144.785 490.095L137.203 485.539Z" fill="#ACCBE0"/>
<rect id="Rectangle" width="27.9" height="6.3" rx="1.8" transform="matrix(-0.857167 -0.515038 -0.515038 0.857167 146.243 514.779)" fill="#C5DFF1"/>
<rect id="Rectangle_2" width="27.9" height="6.3" rx="1.8" transform="matrix(-0.857167 -0.515038 -0.515038 0.857167 141.743 521.979)" fill="#C5DFF1"/>
<path id="Forme_28_copie_4" d="M135.87 521.517L136.369 523.409L140.954 521.971" stroke="#00C997" stroke-width="1.26" stroke-linecap="round"/>
<g id="croix">
<path id="Line 3" d="M144.65 515.128L139.546 516.856" stroke="#FF4E77" stroke-width="1.26" stroke-linecap="round"/>
<path id="Line 3_2" d="M141.674 513.268L142.357 518.613" stroke="#FF4E77" stroke-width="1.26" stroke-linecap="round"/>
</g>
</g>
<path id="Hand" fill-rule="evenodd" clip-rule="evenodd" d="M112.614 497.029C112.614 497.029 124.453 492.822 132.723 496.31C140.993 499.797 132.293 499.596 129.132 499.909C125.971 500.222 124.867 500.438 124.104 502.789C123.341 505.14 118.362 503.571 116.204 502.789" fill="#FFDBB5"/>
<path id="hand-2" fill-rule="evenodd" clip-rule="evenodd" d="M145.651 532.305C145.651 532.305 148.719 530.767 147.806 525.826C146.966 522.288 152.108 513.87 154.988 509.988C157.868 506.106 154.019 517.676 154.988 522.947C155.958 528.218 151.397 535.185 151.397 535.185" fill="#FFDBB5"/>
<path id="body_3" fill-rule="evenodd" clip-rule="evenodd" d="M59.194 597.832C59.194 597.832 29.5539 487.605 59.4762 480.982C89.3985 474.358 116.271 495.781 118.359 503.663C120.447 511.544 121.081 588.548 118.467 597.549" fill="#041766"/>
<path id="arm_3" fill-rule="evenodd" clip-rule="evenodd" d="M110.459 545.264C110.459 545.264 143.583 598.319 151.396 534.465C148.937 534.13 144.214 527.986 144.214 527.986C144.214 527.986 140.617 557.139 123.386 510.708C113.591 490.291 93.6176 483.498 84.6048 483.351" fill="#041766"/>
<path id="Path 13" fill-rule="evenodd" clip-rule="evenodd" d="M61.5975 479.87C62.4744 478.214 54.4986 490.375 54.4986 494.927C54.4986 499.478 87.0032 499.945 87.0032 499.945C87.0032 499.945 91.4038 484.83 94.4 484.83C97.3963 484.83 115.188 492.468 110.793 494.927C106.397 497.386 99.7326 524.54 104.113 535.185C108.493 545.83 111.895 550.747 111.895 550.747L120.187 558.687C120.187 558.687 121.529 592.3 118.9 597.25C116.272 597.832 57.3496 597.25 57.3496 597.25C57.3496 597.25 44.1582 531.989 46.1039 505.847C47.0429 493.231 50.4438 487.199 54.4986 483.351C58.5533 479.503 60.9424 481.106 61.5975 479.87Z" fill="#FF9000"/>
<path id="Forme_30" d="M120.91 558.965C120.91 558.965 107.476 550.555 103.768 535.185" stroke="white" stroke-width="1.188" stroke-linecap="round"/>
<path id="Path 14" fill-rule="evenodd" clip-rule="evenodd" d="M65.9934 455.163C69.5914 461.911 112.262 462.47 122.844 456.278C133.426 450.086 118.617 440.722 111.192 440.722C103.768 440.722 62.3955 448.415 65.9934 455.163Z" fill="#FF9000"/>
<path id="Path 15" fill-rule="evenodd" clip-rule="evenodd" d="M67.2216 452.569C67.2216 452.569 75.487 428.067 94.4 426.443C113.313 424.818 122.844 443.558 122.844 448.895C101.742 460.593 67.2216 452.569 67.2216 452.569Z" fill="#FFAE00"/>
<path id="Path 16" fill-rule="evenodd" clip-rule="evenodd" d="M88.332 428.108L92.4453 425.8C92.4453 425.8 112.406 418.527 109.392 455.834C109.392 455.834 108.363 456.975 107.592 455.834C107.592 422.774 88.332 428.108 88.332 428.108Z" fill="#FF9000"/>
</g>
<path id="Path 7_3" d="M147.463 597.656H57.3496" stroke="#041766" stroke-width="2.7" stroke-linecap="round"/>
<path id="Path 7_4" d="M47.163 597.25H33.663" stroke="#041766" stroke-width="2.7" stroke-linecap="round"/>
<path id="Path 17" d="M102.429 473.05L100.033 479.111" stroke="#D6A168" stroke-width="1.26" stroke-linecap="round"/>
<g id="text_4">
<g clip-path="url(#clip0)">
<path id="prestataire_2" d="M44.0749 616.963C44.0965 616.725 44.1685 616.487 44.2909 616.25C44.4205 616.012 44.5717 615.818 44.7445 615.667C45.5149 616.135 46.2457 616.369 46.9369 616.369C47.2393 616.369 47.4589 616.3 47.5957 616.163C47.7397 616.027 47.8117 615.857 47.8117 615.656C47.8117 615.317 47.5849 615.051 47.1313 614.857L45.8569 614.317C45.3601 614.093 44.9785 613.827 44.7121 613.517C44.4457 613.201 44.3125 612.801 44.3125 612.319C44.3125 611.987 44.3773 611.685 44.5069 611.411C44.6437 611.138 44.8309 610.9 45.0685 610.699C45.3133 610.497 45.6013 610.342 45.9325 610.234C46.2637 610.119 46.6309 610.061 47.0341 610.061C47.8405 610.061 48.6541 610.267 49.4749 610.677C49.4389 611.231 49.2445 611.663 48.8917 611.973C48.1573 611.62 47.5093 611.444 46.9477 611.444C46.6597 611.444 46.4437 611.509 46.2997 611.638C46.1557 611.768 46.0837 611.915 46.0837 612.081C46.0837 612.362 46.2961 612.589 46.7209 612.761L48.0169 613.312C48.5641 613.543 48.9709 613.838 49.2373 614.198C49.5109 614.558 49.6477 614.975 49.6477 615.451C49.6477 615.789 49.5865 616.099 49.4641 616.379C49.3417 616.66 49.1581 616.905 48.9133 617.114C48.6757 617.315 48.3769 617.474 48.0169 617.589C47.6569 617.704 47.2357 617.762 46.7533 617.762C45.8173 617.762 44.9245 617.495 44.0749 616.963ZM52.5085 615.418L52.4977 616.196V616.207C52.8289 616.192 53.0953 616.185 53.2969 616.185H55.8025C55.8025 616.451 55.7917 616.657 55.7701 616.801C55.6837 617.355 55.3165 617.632 54.6685 617.632H51.7957C51.4861 617.632 51.2413 617.542 51.0613 617.362C50.8885 617.182 50.8021 616.937 50.8021 616.628V610.299L50.8777 610.223H55.5325C55.5757 610.432 55.5973 610.659 55.5973 610.904C55.5973 611.149 55.5469 611.404 55.4461 611.671H52.4977L52.5085 612.448V613.204C52.6957 613.197 52.9405 613.193 53.2429 613.193H54.8953C54.9601 613.395 54.9925 613.625 54.9925 613.885C54.9925 614.144 54.9601 614.381 54.8953 614.597H52.5085V615.418ZM62.3634 612.502C62.3634 612.74 62.3274 612.967 62.2554 613.183C62.1834 613.391 62.0862 613.582 61.9638 613.755C61.8486 613.921 61.7082 614.068 61.5426 614.198C61.3842 614.32 61.2186 614.414 61.0458 614.479C61.4202 614.615 61.6974 614.947 61.8774 615.472L62.2014 616.39C62.3238 616.75 62.5038 617.017 62.7414 617.189C62.6334 617.333 62.4714 617.456 62.2554 617.557C62.0394 617.65 61.8018 617.697 61.5426 617.697C61.2834 617.697 61.0818 617.625 60.9378 617.481C60.7938 617.33 60.6606 617.071 60.5382 616.703L60.1494 615.569C60.0702 615.353 59.9622 615.188 59.8254 615.073C59.6958 614.957 59.4978 614.9 59.2314 614.9H58.7886V617.6C58.5582 617.643 58.2702 617.665 57.9246 617.665C57.579 617.665 57.2946 617.643 57.0714 617.6V610.277L57.147 610.202C57.7734 610.187 58.299 610.177 58.7238 610.169C59.1558 610.162 59.4942 610.159 59.739 610.159C60.135 610.159 60.495 610.209 60.819 610.31C61.143 610.403 61.4166 610.547 61.6398 610.742C61.8702 610.936 62.0466 611.181 62.169 611.476C62.2986 611.771 62.3634 612.113 62.3634 612.502ZM58.7886 611.455V613.571C59.1126 613.571 59.3898 613.568 59.6202 613.561C59.8506 613.546 60.0342 613.503 60.171 613.431C60.315 613.352 60.423 613.244 60.495 613.107C60.567 612.97 60.603 612.772 60.603 612.513C60.603 611.815 60.2646 611.465 59.5878 611.465C59.4222 611.465 59.271 611.465 59.1342 611.465C59.0046 611.465 58.8894 611.462 58.7886 611.455ZM66.1964 616.153L67.6112 610.223C67.784 610.18 68.0072 610.159 68.2808 610.159C68.6552 610.159 68.9504 610.198 69.1664 610.277L69.2312 610.364L67.2116 617.6C66.8012 617.643 66.3872 617.665 65.9696 617.665C65.5592 617.665 65.2604 617.614 65.0732 617.513C64.8932 617.405 64.7564 617.197 64.6628 616.887L62.87 610.375C63.2588 610.209 63.5792 610.126 63.8312 610.126C64.1336 610.126 64.3568 610.195 64.5008 610.331C64.6448 610.468 64.7564 610.684 64.8356 610.979L65.6672 614.057C65.7968 614.54 65.9336 615.195 66.0776 616.023C66.092 616.109 66.1316 616.153 66.1964 616.153ZM70.2323 617.6V610.223C70.4555 610.18 70.7435 610.159 71.0963 610.159C71.4491 610.159 71.7407 610.18 71.9711 610.223V617.6C71.7407 617.643 71.4491 617.665 71.0963 617.665C70.7435 617.665 70.4555 617.643 70.2323 617.6ZM77.5615 613.161V613.031C77.5615 611.966 77.1655 611.433 76.3735 611.433C75.9199 611.433 75.5923 611.642 75.3907 612.059C75.1891 612.47 75.0883 613.078 75.0883 613.885C75.0883 614.684 75.2143 615.278 75.4663 615.667C75.7183 616.055 76.0855 616.25 76.5679 616.25C76.8199 616.25 77.0971 616.192 77.3995 616.077C77.7091 615.955 78.0439 615.764 78.4039 615.505C78.5839 615.627 78.7495 615.796 78.9007 616.012C79.0591 616.221 79.1563 616.423 79.1923 616.617C79.0267 616.775 78.8323 616.927 78.6091 617.071C78.3931 617.207 78.1555 617.326 77.8963 617.427C77.6443 617.528 77.3779 617.607 77.0971 617.665C76.8235 617.729 76.5463 617.762 76.2655 617.762C75.7111 617.762 75.2431 617.657 74.8615 617.449C74.4799 617.233 74.1703 616.948 73.9327 616.595C73.7023 616.243 73.5331 615.836 73.4251 615.375C73.3243 614.914 73.2739 614.435 73.2739 613.939C73.2739 613.291 73.3531 612.725 73.5115 612.243C73.6771 611.753 73.8967 611.347 74.1703 611.023C74.4511 610.699 74.7787 610.457 75.1531 610.299C75.5275 610.133 75.9271 610.051 76.3519 610.051C76.7839 610.051 77.1763 610.108 77.5291 610.223C77.8819 610.339 78.1807 610.497 78.4255 610.699C78.6775 610.9 78.8683 611.138 78.9979 611.411C79.1347 611.685 79.2031 611.98 79.2031 612.297C79.2031 612.938 78.8755 613.258 78.2203 613.258C78.0259 613.258 77.8063 613.226 77.5615 613.161ZM82.0503 615.418L82.0395 616.196V616.207C82.3707 616.192 82.6371 616.185 82.8387 616.185H85.3443C85.3443 616.451 85.3335 616.657 85.3119 616.801C85.2255 617.355 84.8583 617.632 84.2103 617.632H81.3375C81.0279 617.632 80.7831 617.542 80.6031 617.362C80.4303 617.182 80.3439 616.937 80.3439 616.628V610.299L80.4195 610.223H85.0743C85.1175 610.432 85.1391 610.659 85.1391 610.904C85.1391 611.149 85.0887 611.404 84.9879 611.671H82.0395L82.0503 612.448V613.204C82.2375 613.197 82.4823 613.193 82.7847 613.193H84.4371C84.5019 613.395 84.5343 613.625 84.5343 613.885C84.5343 614.144 84.5019 614.381 84.4371 614.597H82.0503V615.418ZM91.635 615.289H90.7818V617.6C90.5514 617.643 90.2634 617.665 89.9178 617.665C89.565 617.665 89.277 617.643 89.0538 617.6V610.277L89.1294 610.202C89.7558 610.187 90.2742 610.177 90.6846 610.169C91.1022 610.162 91.419 610.159 91.635 610.159C92.031 610.159 92.391 610.213 92.715 610.321C93.0462 610.429 93.327 610.591 93.5574 610.807C93.7878 611.023 93.9642 611.293 94.0866 611.617C94.2162 611.933 94.281 612.301 94.281 612.718C94.281 613.136 94.2162 613.507 94.0866 613.831C93.957 614.147 93.777 614.414 93.5466 614.63C93.3162 614.846 93.0354 615.011 92.7042 615.127C92.3802 615.235 92.0238 615.289 91.635 615.289ZM90.7818 611.476V613.993C90.9834 613.985 91.1418 613.982 91.257 613.982C91.3794 613.975 91.4586 613.971 91.4946 613.971C91.689 613.971 91.851 613.939 91.9806 613.874C92.1102 613.802 92.2146 613.712 92.2938 613.604C92.373 613.489 92.4306 613.355 92.4666 613.204C92.5026 613.053 92.5206 612.895 92.5206 612.729C92.5206 612.571 92.5026 612.416 92.4666 612.265C92.4306 612.113 92.373 611.98 92.2938 611.865C92.2218 611.75 92.1246 611.66 92.0022 611.595C91.8798 611.523 91.7358 611.487 91.5702 611.487C91.4046 611.487 91.257 611.487 91.1274 611.487C90.9978 611.487 90.8826 611.483 90.7818 611.476ZM100.773 612.502C100.773 612.74 100.737 612.967 100.665 613.183C100.593 613.391 100.496 613.582 100.373 613.755C100.258 613.921 100.118 614.068 99.9522 614.198C99.7938 614.32 99.6282 614.414 99.4554 614.479C99.8298 614.615 100.107 614.947 100.287 615.472L100.611 616.39C100.733 616.75 100.913 617.017 101.151 617.189C101.043 617.333 100.881 617.456 100.665 617.557C100.449 617.65 100.211 617.697 99.9522 617.697C99.693 617.697 99.4914 617.625 99.3474 617.481C99.2034 617.33 99.0702 617.071 98.9478 616.703L98.559 615.569C98.4798 615.353 98.3718 615.188 98.235 615.073C98.1054 614.957 97.9074 614.9 97.641 614.9H97.1982V617.6C96.9678 617.643 96.6798 617.665 96.3342 617.665C95.9886 617.665 95.7042 617.643 95.481 617.6V610.277L95.5566 610.202C96.183 610.187 96.7086 610.177 97.1334 610.169C97.5654 610.162 97.9038 610.159 98.1486 610.159C98.5446 610.159 98.9046 610.209 99.2286 610.31C99.5526 610.403 99.8262 610.547 100.049 610.742C100.28 610.936 100.456 611.181 100.579 611.476C100.708 611.771 100.773 612.113 100.773 612.502ZM97.1982 611.455V613.571C97.5222 613.571 97.7994 613.568 98.0298 613.561C98.2602 613.546 98.4438 613.503 98.5806 613.431C98.7246 613.352 98.8326 613.244 98.9046 613.107C98.9766 612.97 99.0126 612.772 99.0126 612.513C99.0126 611.815 98.6742 611.465 97.9974 611.465C97.8318 611.465 97.6806 611.465 97.5438 611.465C97.4142 611.465 97.299 611.462 97.1982 611.455ZM103.654 615.591C103.849 616.153 104.241 616.433 104.832 616.433C105.127 616.433 105.364 616.361 105.544 616.217C105.732 616.066 105.876 615.879 105.976 615.656C106.084 615.425 106.156 615.17 106.192 614.889C106.228 614.608 106.246 614.331 106.246 614.057C106.246 613.805 106.236 613.525 106.214 613.215C106.2 612.905 106.149 612.617 106.063 612.351C105.976 612.077 105.84 611.851 105.652 611.671C105.465 611.483 105.192 611.39 104.832 611.39C104.486 611.39 104.22 611.48 104.032 611.66C103.852 611.833 103.716 612.049 103.622 612.308C103.536 612.567 103.482 612.844 103.46 613.139C103.438 613.427 103.428 613.683 103.428 613.906C103.428 614.237 103.442 614.533 103.471 614.792C103.507 615.051 103.568 615.317 103.654 615.591ZM102.78 617.081C102.009 616.441 101.624 615.386 101.624 613.917C101.624 613.283 101.696 612.729 101.84 612.254C101.991 611.771 102.204 611.368 102.477 611.044C102.758 610.72 103.096 610.475 103.492 610.31C103.888 610.144 104.335 610.061 104.832 610.061C105.328 610.061 105.775 610.144 106.171 610.31C106.574 610.475 106.912 610.724 107.186 611.055C107.467 611.379 107.679 611.782 107.823 612.265C107.974 612.74 108.05 613.291 108.05 613.917C108.05 614.543 107.974 615.098 107.823 615.58C107.679 616.055 107.467 616.455 107.186 616.779C106.912 617.103 106.574 617.348 106.171 617.513C105.775 617.679 105.328 617.762 104.832 617.762C104.011 617.762 103.327 617.535 102.78 617.081ZM111.824 616.153L113.239 610.223C113.412 610.18 113.635 610.159 113.909 610.159C114.283 610.159 114.578 610.198 114.794 610.277L114.859 610.364L112.839 617.6C112.429 617.643 112.015 617.665 111.597 617.665C111.187 617.665 110.888 617.614 110.701 617.513C110.521 617.405 110.384 617.197 110.291 616.887L108.498 610.375C108.887 610.209 109.207 610.126 109.459 610.126C109.761 610.126 109.985 610.195 110.129 610.331C110.273 610.468 110.384 610.684 110.463 610.979L111.295 614.057C111.425 614.54 111.561 615.195 111.705 616.023C111.72 616.109 111.759 616.153 111.824 616.153ZM115.86 617.6V610.223C116.083 610.18 116.371 610.159 116.724 610.159C117.077 610.159 117.369 610.18 117.599 610.223V617.6C117.369 617.643 117.077 617.665 116.724 617.665C116.371 617.665 116.083 617.643 115.86 617.6ZM124.107 617.125C123.877 617.312 123.575 617.449 123.2 617.535C122.826 617.621 122.412 617.665 121.958 617.665C121.735 617.665 121.411 617.661 120.986 617.654C120.569 617.647 120.043 617.636 119.409 617.621L119.334 617.546V610.277L119.409 610.202C119.827 610.187 120.259 610.177 120.705 610.169C121.159 610.162 121.634 610.159 122.131 610.159C122.743 610.159 123.254 610.256 123.665 610.45C124.075 610.645 124.403 610.911 124.647 611.249C124.892 611.588 125.065 611.987 125.166 612.448C125.267 612.902 125.317 613.391 125.317 613.917C125.317 614.637 125.234 615.26 125.069 615.785C124.903 616.311 124.583 616.757 124.107 617.125ZM122.12 616.315C123.071 616.315 123.546 615.515 123.546 613.917C123.546 612.311 123.071 611.509 122.12 611.509C121.89 611.509 121.685 611.509 121.505 611.509C121.332 611.509 121.181 611.505 121.051 611.498V616.325C121.181 616.318 121.332 616.315 121.505 616.315C121.685 616.315 121.89 616.315 122.12 616.315ZM128.3 615.418L128.29 616.196V616.207C128.621 616.192 128.887 616.185 129.089 616.185H131.594C131.594 616.451 131.584 616.657 131.562 616.801C131.476 617.355 131.108 617.632 130.46 617.632H127.588C127.278 617.632 127.033 617.542 126.853 617.362C126.68 617.182 126.594 616.937 126.594 616.628V610.299L126.67 610.223H131.324C131.368 610.432 131.389 610.659 131.389 610.904C131.389 611.149 131.339 611.404 131.238 611.671H128.29L128.3 612.448V613.204C128.488 613.197 128.732 613.193 129.035 613.193H130.687C130.752 613.395 130.784 613.625 130.784 613.885C130.784 614.144 130.752 614.381 130.687 614.597H128.3V615.418ZM138.155 612.502C138.155 612.74 138.119 612.967 138.047 613.183C137.975 613.391 137.878 613.582 137.756 613.755C137.641 613.921 137.5 614.068 137.335 614.198C137.176 614.32 137.011 614.414 136.838 614.479C137.212 614.615 137.489 614.947 137.669 615.472L137.993 616.39C138.116 616.75 138.296 617.017 138.533 617.189C138.425 617.333 138.263 617.456 138.047 617.557C137.831 617.65 137.594 617.697 137.335 617.697C137.075 617.697 136.874 617.625 136.73 617.481C136.586 617.33 136.453 617.071 136.33 616.703L135.941 615.569C135.862 615.353 135.754 615.188 135.617 615.073C135.488 614.957 135.29 614.9 135.023 614.9H134.581V617.6C134.35 617.643 134.062 617.665 133.717 617.665C133.371 617.665 133.087 617.643 132.863 617.6V610.277L132.939 610.202C133.565 610.187 134.091 610.177 134.516 610.169C134.948 610.162 135.286 610.159 135.531 610.159C135.927 610.159 136.287 610.209 136.611 610.31C136.935 610.403 137.209 610.547 137.432 610.742C137.662 610.936 137.839 611.181 137.961 611.476C138.091 611.771 138.155 612.113 138.155 612.502ZM134.581 611.455V613.571C134.905 613.571 135.182 613.568 135.412 613.561C135.643 613.546 135.826 613.503 135.963 613.431C136.107 613.352 136.215 613.244 136.287 613.107C136.359 612.97 136.395 612.772 136.395 612.513C136.395 611.815 136.057 611.465 135.38 611.465C135.214 611.465 135.063 611.465 134.926 611.465C134.797 611.465 134.681 611.462 134.581 611.455Z" fill="#041766"/>
</g>
</g>
</g>
<g id="ARROW">
<path id="Path 18" d="M119.383 404.951C119.383 404.951 118.727 330.161 218.639 345.285" stroke="#00C997" stroke-width="1.8" stroke-linecap="round" stroke-linejoin="round"/>
<path id="Path 19" d="M217.989 350.614L225.649 346.191L218.101 339.286" stroke="#00C997" stroke-width="1.8" stroke-linecap="round" stroke-linejoin="round"/>
</g>
<g id="ARROW_2">
<path id="Path 18_2" d="M213.112 331.297C213.112 331.297 111.131 319.336 105.321 400.93" stroke="#A9CEE7" stroke-width="1.8" stroke-linecap="round" stroke-linejoin="round" stroke-dasharray="0 4"/>
<path id="Path 19_2" d="M110.006 401.854L104.088 408.427L98.9026 399.609" stroke="#ACCBE0" stroke-width="1.5" stroke-linecap="round" stroke-linejoin="round"/>
</g>
<g id="ARROW_3">
<path id="Path 18_3" d="M368.365 331.297C368.365 331.297 470.345 314.912 477.909 400.93" stroke="#A9CEE7" stroke-width="1.8" stroke-linecap="round" stroke-linejoin="round" stroke-dasharray="0 4"/>
<path id="Path 19_3" d="M472.9 400.77L479.676 406.456L483.583 397.001" stroke="#ACCBE0" stroke-width="1.5" stroke-linecap="round" stroke-linejoin="round"/>
</g>
<g id="ARROW_4">
<path id="Path 18_4" d="M463.617 404.951C463.617 404.951 464.273 330.161 364.361 345.285" stroke="#00C997" stroke-width="1.8" stroke-linecap="round" stroke-linejoin="round"/>
<path id="Path 19_4" d="M365.011 350.614L357.35 346.191L364.898 339.286" stroke="#00C997" stroke-width="1.8" stroke-linecap="round" stroke-linejoin="round"/>
</g>
<path id="Path 20" fill-rule="evenodd" clip-rule="evenodd" d="M383.9 162.25C383.9 173.809 406.453 181.329 395.946 197.748C385.44 214.166 429.649 228.467 432.729 207.967C435.81 187.468 432.037 150.408 412.016 144.147C391.995 137.885 383.9 150.69 383.9 162.25Z" fill="#F2F9FF"/>
<g id="TOP_ARROW">
<path id="Path 21" d="M275.07 317.46V306.088" stroke="#00C997" stroke-width="2" stroke-linecap="round"/>
<path id="Path 19_5" d="M269.228 305.332L274.427 298.176L280.505 306.405" stroke="#00C997" stroke-width="1.8" stroke-linecap="round" stroke-linejoin="round"/>
</g>
<g id="TOP_ARROW_2">
<path id="Path 21_2" d="M294.07 298.028V309.399" stroke="#ACCBE0" stroke-width="2" stroke-linecap="round" stroke-dasharray="0 4"/>
<path id="Path 19_6" d="M288.228 310.156L293.427 317.311L299.505 309.083" stroke="#ACCBE0" stroke-width="1.5" stroke-linecap="round" stroke-linejoin="round"/>
</g>
<g id="TOP_ARROW_3">
<path id="Path 21_3" d="M294.07 423.46V412.088" stroke="#00C997" stroke-width="2" stroke-linecap="round"/>
<path id="Path 19_7" d="M288.228 411.332L293.427 404.176L299.505 412.405" stroke="#00C997" stroke-width="1.8" stroke-linecap="round" stroke-linejoin="round"/>
</g>
<g id="TOP_ARROW_4">
<path id="Path 21_4" d="M275.07 404.028V415.399" stroke="#ACCBE0" stroke-width="2" stroke-linecap="round" stroke-dasharray="0 4"/>
<path id="Path 19_8" d="M269.228 416.156L274.427 423.311L280.505 415.083" stroke="#ACCBE0" stroke-width="1.5" stroke-linecap="round" stroke-linejoin="round"/>
</g>
<g id="avant">
<rect id="Rectangle_3" x="229" width="102" height="37" rx="6" fill="#00C997"/>
<path id="Apr&#195;&#168;s" d="M254.303 23.996C253.799 23.996 253.426 23.9867 253.183 23.968L251.979 28.028C251.531 28.14 250.906 28.196 250.103 28.196C249.207 28.196 248.479 28.0933 247.919 27.888L247.779 27.664L253.939 8.876C254.667 8.764 255.516 8.708 256.487 8.708C257.588 8.708 258.466 8.77333 259.119 8.904L265.167 27.72C264.514 28.0747 263.776 28.252 262.955 28.252C261.984 28.252 261.303 28.084 260.911 27.748C260.519 27.412 260.183 26.768 259.903 25.816L259.371 23.968C259.128 23.9867 258.764 23.996 258.279 23.996H254.303ZM254.219 20.468L255.339 20.44H257.383C257.476 20.44 257.635 20.4493 257.859 20.468C258.102 20.468 258.279 20.468 258.391 20.468L257.915 18.732C257.467 17.164 256.954 15.2413 256.375 12.964H256.207C256.058 13.7667 255.61 15.5493 254.863 18.312L254.219 20.468ZM268.021 28V17.08L265.613 17.108C265.501 16.6413 265.445 16.128 265.445 15.568C265.445 15.008 265.501 14.4853 265.613 14L267.797 14.028C267.704 13.3373 267.657 12.712 267.657 12.152C267.657 10.752 268.105 9.59467 269.001 8.68C269.916 7.74667 271.101 7.28 272.557 7.28C274.013 7.28 275.441 7.54133 276.841 8.064C276.86 8.54933 276.776 9.08133 276.589 9.66C276.403 10.22 276.169 10.6493 275.889 10.948C275.012 10.6867 274.293 10.556 273.733 10.556C272.483 10.556 271.857 11.2 271.857 12.488C271.857 13.0293 271.895 13.552 271.969 14.056L275.637 14C275.749 14.4853 275.805 15.008 275.805 15.568C275.805 16.128 275.749 16.6413 275.637 17.108L272.277 17.052V28C271.643 28.112 270.943 28.168 270.177 28.168C269.412 28.168 268.693 28.112 268.021 28ZM285.624 14C285.736 14.5227 285.792 15.0453 285.792 15.568C285.792 16.0907 285.736 16.604 285.624 17.108L282.292 17.052V23.492C282.292 24.3693 282.702 24.808 283.524 24.808H285.092C285.334 25.48 285.456 26.096 285.456 26.656C285.456 27.216 285.418 27.6173 285.344 27.86C283.962 28.0467 282.693 28.14 281.536 28.14C279.184 28.14 278.008 26.8427 278.008 24.248V17.08L275.824 17.108C275.693 16.6413 275.628 16.1373 275.628 15.596C275.628 15.036 275.693 14.504 275.824 14L278.008 14.056V12.432C278.008 11.48 278.185 10.808 278.54 10.416C278.913 10.0053 279.529 9.8 280.388 9.8H282.096L282.292 9.996V14.056L285.624 14ZM298.823 22.428H291.515C291.553 23.268 291.767 23.9213 292.159 24.388C292.551 24.8547 293.195 25.088 294.091 25.088C294.539 25.088 295.053 25.0227 295.631 24.892C296.229 24.7613 296.91 24.5467 297.675 24.248C298.291 24.8827 298.674 25.7413 298.823 26.824C297.33 27.888 295.501 28.42 293.335 28.42C292.159 28.42 291.17 28.2333 290.367 27.86C289.583 27.4867 288.939 26.964 288.435 26.292C287.95 25.62 287.605 24.8267 287.399 23.912C287.194 22.9973 287.091 21.9987 287.091 20.916C287.091 19.8707 287.213 18.9093 287.455 18.032C287.717 17.136 288.099 16.3613 288.603 15.708C289.126 15.0547 289.779 14.5413 290.563 14.168C291.366 13.7947 292.299 13.608 293.363 13.608C294.259 13.608 295.062 13.7573 295.771 14.056C296.499 14.3547 297.115 14.7653 297.619 15.288C298.123 15.8107 298.506 16.436 298.767 17.164C299.047 17.892 299.187 18.6853 299.187 19.544C299.187 20.6827 299.066 21.644 298.823 22.428ZM291.487 19.404H295.183V19.096C295.183 18.4053 295.025 17.836 294.707 17.388C294.409 16.94 293.951 16.716 293.335 16.716C292.738 16.716 292.29 16.9307 291.991 17.36C291.711 17.7707 291.543 18.452 291.487 19.404ZM301.184 16.044C301.277 15.6707 301.455 15.26 301.716 14.812C301.977 14.3453 302.239 14.0093 302.5 13.804C304.217 13.9347 305.412 14.784 306.084 16.352C306.793 14.672 307.96 13.832 309.584 13.832C310.069 13.832 310.685 13.9067 311.432 14.056C311.432 14.6347 311.329 15.3253 311.124 16.128C310.937 16.912 310.676 17.584 310.34 18.144C310.023 18.032 309.547 17.9387 308.912 17.864C307.979 17.864 307.213 18.34 306.616 19.292V28C306 28.112 305.272 28.168 304.432 28.168C303.611 28.168 302.883 28.112 302.248 28V18.956C302.248 17.556 301.893 16.5853 301.184 16.044Z" fill="white"/>
</g>
</g>
<defs>
<linearGradient id="paint0_linear" x1="226.162" y1="170.566" x2="226.162" y2="259.775" gradientUnits="userSpaceOnUse">
<stop stop-color="white" stop-opacity="0.01"/>
<stop offset="1" stop-color="white"/>
</linearGradient>
<linearGradient id="paint1_linear" x1="137.581" y1="538.481" x2="90.3544" y2="498.853" gradientUnits="userSpaceOnUse">
<stop stop-color="white" stop-opacity="0.817581"/>
<stop offset="1" stop-color="white" stop-opacity="0.01"/>
</linearGradient>
<linearGradient id="paint2_linear" x1="137.581" y1="538.481" x2="90.3544" y2="498.853" gradientUnits="userSpaceOnUse">
<stop stop-color="white" stop-opacity="0.817581"/>
<stop offset="1" stop-color="white" stop-opacity="0.01"/>
</linearGradient>
<clipPath id="clip0">
<rect x="43.8" y="607.6" width="95.2" height="13" fill="white"/>
</clipPath>
</defs>
</svg>
