<?xml version="1.0" encoding="iso-8859-1"?>
<!-- Generator: Adobe Illustrator 19.0.0, SVG Export Plug-In . SVG Version: 6.00 Build 0)  -->
<svg version="1.1" id="Capa_1" xmlns="http://www.w3.org/2000/svg" xmlns:xlink="http://www.w3.org/1999/xlink" x="0px" y="0px"
	 viewBox="0 0 497.728 497.728" style="enable-background:new 0 0 497.728 497.728;" xml:space="preserve">
<polygon style="fill:#ECECEC;" points="432.864,185.728 432.864,425.728 384.864,425.728 112.864,425.728 64.864,425.728 
	64.864,185.728 248.864,57.728 "/>
<rect x="64.864" y="401.728" style="fill:#B6C1CE;" width="368" height="24"/>
<polygon style="fill:#92E0C0;" points="296.864,249.728 384.864,249.728 384.864,489.728 112.864,489.728 112.864,249.728 
	200.864,249.728 "/>
<polygon style="fill:#EABD8C;" points="272.864,281.728 352.864,281.728 352.864,425.728 144.864,425.728 144.864,281.728 
	224.864,281.728 "/>
<polygon style="fill:#B6C1CE;" points="136.864,97.728 136.864,57.728 88.864,57.728 88.864,128.704 "/>
<polygon style="fill:#FB5968;" points="456.864,153.728 248.864,9.728 40.864,153.728 40.864,201.728 248.864,57.728 
	456.864,201.728 "/>
<polygon style="fill:#B6C1CE;" points="64.864,185.728 64.864,217.112 248.864,89.728 432.864,217.112 432.864,185.728 
	248.864,57.728 "/>
<path style="fill:#FCD770;" d="M320.864,193.728c0-39.768-32.232-72-72-72s-72,32.232-72,72c0,31.336,20.056,57.92,48,67.816v28.184
	l16,16l-16,16l16,16l-16,16v16l24,24l24-24V261.544C300.808,251.648,320.864,225.064,320.864,193.728z"/>
<circle style="fill:#ECECEC;" cx="248.864" cy="177.728" r="24"/>
<rect x="112.864" y="465.728" style="fill:#48C397;" width="272" height="24"/>
<path d="M464.864,149.536L248.864,0l-104,72V49.728h-64v66.576l-48,33.232V217l24-16.616v233.344h48v64h288v-64h48V200.376
	l24,16.616V149.536z M96.864,65.728h32v17.344l-32,22.152V65.728z M376.864,481.728h-256v-224h80v-0.336
	c4.928,3.72,10.2,7.048,16,9.584v6.752h-80v160h224v-160h-80v-6.752c5.8-2.528,11.072-5.864,16-9.584v0.336h80V481.728z
	 M229.552,305.728l-16,16l16,16l-12.688,12.688v22.624l32,32l32-32v-83.312h64v128h-192v-128h64v3.312L229.552,305.728z
	 M270.192,254l-5.328,1.888v110.528l-16,16l-16-16v-9.376l19.312-19.312l-16-16l16-16l-19.312-19.312v-30.528l-5.328-1.88
	c-25.52-9.048-42.672-33.264-42.672-60.28c0-35.288,28.712-64,64-64s64,28.712,64,64C312.864,220.744,295.712,244.96,270.192,254z
	 M424.864,417.728h-32v-176h-80.328c10.248-13.576,16.328-30.24,16.328-48c0-44.112-35.888-80-80-80s-80,35.888-80,80
	c0,17.76,6.08,34.424,16.328,48h-80.328v176h-32V189.304l176-121.848l176,121.848V417.728z M448.864,186.464L248.864,48
	l-200,138.464v-28.536l200-138.472l200,138.472V186.464z"/>
<path d="M248.864,145.728c-17.648,0-32,14.352-32,32s14.352,32,32,32c17.648,0,32-14.352,32-32S266.512,145.728,248.864,145.728z
	 M248.864,193.728c-8.824,0-16-7.176-16-16s7.176-16,16-16c8.824,0,16,7.176,16,16S257.688,193.728,248.864,193.728z"/>
<rect x="136.864" y="449.728" width="192" height="16"/>
<rect x="344.864" y="449.728" width="16" height="16"/>
<g>
</g>
<g>
</g>
<g>
</g>
<g>
</g>
<g>
</g>
<g>
</g>
<g>
</g>
<g>
</g>
<g>
</g>
<g>
</g>
<g>
</g>
<g>
</g>
<g>
</g>
<g>
</g>
<g>
</g>
</svg>
